<svg width="992" height="306" viewBox="0 0 992 306" fill="none" xmlns="http://www.w3.org/2000/svg">
<path fill-rule="evenodd" clip-rule="evenodd" d="M945.018 100.14H838.643V218.303H945.018V100.14Z" fill="#C6C6C6"/>
<path fill-rule="evenodd" clip-rule="evenodd" d="M945.018 0.59436H838.643V95.462H945.018V0.59436Z" fill="#C6C6C6"/>
<path fill-rule="evenodd" clip-rule="evenodd" d="M833.965 95.462V0.59436H702.797V95.462H833.965Z" fill="#C6C6C6"/>
<path fill-rule="evenodd" clip-rule="evenodd" d="M698.119 95.462V0.59436H553.011V95.462H698.119Z" fill="#C6C6C6"/>
<path fill-rule="evenodd" clip-rule="evenodd" d="M399.81 0.59436H147.672V95.462H399.81V0.59436Z" fill="#C6C6C6"/>
<path fill-rule="evenodd" clip-rule="evenodd" d="M142.994 100.14V97.8009V0.59436H0.318359V158.005H142.994V100.14Z" fill="#C6C6C6"/>
<path fill-rule="evenodd" clip-rule="evenodd" d="M142.994 162.683H0.318359V292.962H142.994V162.683Z" fill="#C6C6C6"/>
<path fill-rule="evenodd" clip-rule="evenodd" d="M991.376 0.59436H949.696V95.462V97.8009V100.14V220.642V222.981H947.357H836.304H833.965V220.642V100.14H702.797H700.458H698.119H550.672H548.333V97.8009V74.2711H404.488V97.8009V100.14H402.149H147.672V158.005V160.344V162.683V292.962H991.376V0.59436Z" fill="#C6C6C6"/>
<path fill-rule="evenodd" clip-rule="evenodd" d="M239.78 297.64H147.672V305.406H239.78V297.64Z" fill="#C6C6C6"/>
<path fill-rule="evenodd" clip-rule="evenodd" d="M533.738 297.64H441.63V305.406H533.738V297.64Z" fill="#C6C6C6"/>
<path fill-rule="evenodd" clip-rule="evenodd" d="M937.908 297.64H845.8V305.406H937.908V297.64Z" fill="#C6C6C6"/>
<path fill-rule="evenodd" clip-rule="evenodd" d="M404.535 64.9621V69.7336H474.89V64.9621H404.535Z" fill="#C6C6C6"/>
<path fill-rule="evenodd" clip-rule="evenodd" d="M404.535 52.0979V60.2842H474.89V52.0979H404.535Z" fill="#C6C6C6"/>
<path fill-rule="evenodd" clip-rule="evenodd" d="M404.535 39.2805V47.4201H474.89V39.2805H404.535Z" fill="#C6C6C6"/>
<path fill-rule="evenodd" clip-rule="evenodd" d="M404.535 26.4163V34.6026H474.89V26.4163H404.535Z" fill="#C6C6C6"/>
<path fill-rule="evenodd" clip-rule="evenodd" d="M404.535 13.5989V21.7384H474.89V13.5989H404.535Z" fill="#C6C6C6"/>
<path fill-rule="evenodd" clip-rule="evenodd" d="M474.89 0.734741H404.535V8.92105H474.89V0.734741Z" fill="#C6C6C6"/>
<path fill-rule="evenodd" clip-rule="evenodd" d="M479.521 64.9621V69.7336H548.333V64.9621H479.521Z" fill="#C6C6C6"/>
<path fill-rule="evenodd" clip-rule="evenodd" d="M479.521 52.0979V60.2842H548.333V52.0979H479.521Z" fill="#C6C6C6"/>
<path fill-rule="evenodd" clip-rule="evenodd" d="M479.521 39.2805V47.4201H548.333V39.2805H479.521Z" fill="#C6C6C6"/>
<path fill-rule="evenodd" clip-rule="evenodd" d="M479.521 26.4163V34.6026H548.333V26.4163H479.521Z" fill="#C6C6C6"/>
<path fill-rule="evenodd" clip-rule="evenodd" d="M479.521 13.5989V21.7384H548.333V13.5989H479.521Z" fill="#C6C6C6"/>
<path fill-rule="evenodd" clip-rule="evenodd" d="M548.333 0.734741H479.521V8.92105H548.333V0.734741Z" fill="#C6C6C6"/>
<path d="M548.363 31.3749H405.19V31.3796H548.363V31.3749Z" fill="#C6C6C6"/>
<path d="M548.363 57.0565H405.19V57.0611H548.363V57.0565Z" fill="#C6C6C6"/>
<path d="M548.363 69.8739H405.19V69.8786H548.363V69.8739Z" fill="#C6C6C6"/>
</svg>
