<svg width="992" height="292" viewBox="0 0 992 292" fill="none" xmlns="http://www.w3.org/2000/svg">
<path fill-rule="evenodd" clip-rule="evenodd" d="M144.771 97.958H0.317383V291.015H144.771V97.958Z" fill="#C6C6C6"/>
<path fill-rule="evenodd" clip-rule="evenodd" d="M833.732 97.958H149.449V291.015H991.377V222.39H836.071H833.732V220.051V97.958Z" fill="#C6C6C6"/>
<path fill-rule="evenodd" clip-rule="evenodd" d="M991.378 97.958H838.41V217.712H991.378V97.958Z" fill="#C6C6C6"/>
<path fill-rule="evenodd" clip-rule="evenodd" d="M144.771 0.985107H0.317383V69.9374H144.771V0.985107Z" fill="#C6C6C6"/>
<path fill-rule="evenodd" clip-rule="evenodd" d="M399.763 0.985107H149.449V69.9374H399.763V65.1659V60.488V52.3484V47.6705V39.4842V34.8063V26.6668V24.3278V21.9889V11.4636V9.12465V0.985107Z" fill="#C6C6C6"/>
<path fill-rule="evenodd" clip-rule="evenodd" d="M404.441 65.1659V69.9374H475.077V65.1659H404.441Z" fill="#C6C6C6"/>
<path fill-rule="evenodd" clip-rule="evenodd" d="M404.441 52.3484V60.488H475.077V52.3484H404.441Z" fill="#C6C6C6"/>
<path fill-rule="evenodd" clip-rule="evenodd" d="M404.441 39.4842V47.6705H475.077V39.4842H404.441Z" fill="#C6C6C6"/>
<path fill-rule="evenodd" clip-rule="evenodd" d="M404.441 26.6668V34.8063H475.077V26.6668H404.441Z" fill="#C6C6C6"/>
<path fill-rule="evenodd" clip-rule="evenodd" d="M404.441 13.8025V21.9889H475.077V13.8025H404.441Z" fill="#C6C6C6"/>
<path fill-rule="evenodd" clip-rule="evenodd" d="M475.077 0.985107H404.441V9.12465H475.077V0.985107Z" fill="#C6C6C6"/>
<path fill-rule="evenodd" clip-rule="evenodd" d="M479.755 65.1659V69.9374H548.895V65.1659H479.755Z" fill="#C6C6C6"/>
<path fill-rule="evenodd" clip-rule="evenodd" d="M479.755 52.3484V60.488H548.895V52.3484H479.755Z" fill="#C6C6C6"/>
<path fill-rule="evenodd" clip-rule="evenodd" d="M479.755 39.4842V47.6705H548.895V39.4842H479.755Z" fill="#C6C6C6"/>
<path fill-rule="evenodd" clip-rule="evenodd" d="M479.755 26.6668V34.8063H548.895V26.6668H479.755Z" fill="#C6C6C6"/>
<path fill-rule="evenodd" clip-rule="evenodd" d="M479.755 13.8025V21.9889H548.895V13.8025H479.755Z" fill="#C6C6C6"/>
<path fill-rule="evenodd" clip-rule="evenodd" d="M548.895 0.985107H479.755V9.12465H548.895V0.985107Z" fill="#C6C6C6"/>
<path fill-rule="evenodd" clip-rule="evenodd" d="M697.418 0.985107H553.573V9.12465V11.4636V21.9889V24.3278V26.6668V34.8063V39.4842V47.6705V52.3484V60.488V65.1659V69.9374H697.418V0.985107Z" fill="#C6C6C6"/>
<path fill-rule="evenodd" clip-rule="evenodd" d="M842.246 0.985107H702.096V69.9374H842.246V0.985107Z" fill="#C6C6C6"/>
<path fill-rule="evenodd" clip-rule="evenodd" d="M842.246 74.6152H702.096H699.757H553.573H479.755H477.416H402.102H399.763H149.449H0.317383V93.2801H842.246V74.6152Z" fill="#C6C6C6"/>
<path fill-rule="evenodd" clip-rule="evenodd" d="M991.378 0.985107H846.924V72.2763V74.6153V93.2801H991.378V0.985107Z" fill="#C6C6C6"/>
<path d="M551.244 24.3278H402.102V24.3325H551.244V24.3278Z" fill="#C6C6C6"/>
<path d="M551.244 50.0095H402.102V50.0142H551.244V50.0095Z" fill="#C6C6C6"/>
<path d="M551.244 62.827H402.102V62.8316H551.244V62.827Z" fill="#C6C6C6"/>
</svg>
