<svg width="992" height="401" viewBox="0 0 992 401" fill="none" xmlns="http://www.w3.org/2000/svg">
<path fill-rule="evenodd" clip-rule="evenodd" d="M945.018 131.227H838.643V286.291H945.018V131.227Z" fill="#C6C6C6"/>
<path fill-rule="evenodd" clip-rule="evenodd" d="M945.018 0.59436H838.643V125.088H945.018V0.59436Z" fill="#C6C6C6"/>
<path fill-rule="evenodd" clip-rule="evenodd" d="M833.965 125.088V0.59436H702.797V125.088H833.965Z" fill="#C6C6C6"/>
<path fill-rule="evenodd" clip-rule="evenodd" d="M698.119 125.088V0.59436H553.011V125.088H698.119Z" fill="#C6C6C6"/>
<path fill-rule="evenodd" clip-rule="evenodd" d="M399.81 0.59436H147.672V125.088H399.81V0.59436Z" fill="#C6C6C6"/>
<path fill-rule="evenodd" clip-rule="evenodd" d="M142.994 131.227V128.157V0.59436H0.318359V207.163H142.994V131.227Z" fill="#C6C6C6"/>
<path fill-rule="evenodd" clip-rule="evenodd" d="M142.994 213.302H0.318359V384.265H142.994V213.302Z" fill="#C6C6C6"/>
<path fill-rule="evenodd" clip-rule="evenodd" d="M991.376 0.59436H949.696V125.088V128.157V131.227V289.361V292.43H947.357H836.304H833.965V289.361V131.227H702.797H700.458H698.119H550.672H548.333V128.157V97.2795H404.488V128.157V131.227H402.149H147.672V207.163V210.232V213.302V384.265H991.376V0.59436Z" fill="#C6C6C6"/>
<path fill-rule="evenodd" clip-rule="evenodd" d="M239.78 390.404H147.672V400.594H239.78V390.404Z" fill="#C6C6C6"/>
<path fill-rule="evenodd" clip-rule="evenodd" d="M533.738 390.404H441.63V400.594H533.738V390.404Z" fill="#C6C6C6"/>
<path fill-rule="evenodd" clip-rule="evenodd" d="M937.908 390.404H845.8V400.594H937.908V390.404Z" fill="#C6C6C6"/>
<path fill-rule="evenodd" clip-rule="evenodd" d="M404.535 85.0634V91.3249H474.89V85.0634H404.535Z" fill="#C6C6C6"/>
<path fill-rule="evenodd" clip-rule="evenodd" d="M404.535 68.1819V78.9246H474.89V68.1819H404.535Z" fill="#C6C6C6"/>
<path fill-rule="evenodd" clip-rule="evenodd" d="M404.535 51.3618V62.0432H474.89V51.3618H404.535Z" fill="#C6C6C6"/>
<path fill-rule="evenodd" clip-rule="evenodd" d="M404.535 34.4802V45.223H474.89V34.4802H404.535Z" fill="#C6C6C6"/>
<path fill-rule="evenodd" clip-rule="evenodd" d="M404.535 17.66V28.3414H474.89V17.66H404.535Z" fill="#C6C6C6"/>
<path fill-rule="evenodd" clip-rule="evenodd" d="M474.89 0.77858H404.535V11.5214H474.89V0.77858Z" fill="#C6C6C6"/>
<path fill-rule="evenodd" clip-rule="evenodd" d="M479.521 85.0634V91.3249H548.333V85.0634H479.521Z" fill="#C6C6C6"/>
<path fill-rule="evenodd" clip-rule="evenodd" d="M479.521 68.1819V78.9246H548.333V68.1819H479.521Z" fill="#C6C6C6"/>
<path fill-rule="evenodd" clip-rule="evenodd" d="M479.521 51.3618V62.0432H548.333V51.3618H479.521Z" fill="#C6C6C6"/>
<path fill-rule="evenodd" clip-rule="evenodd" d="M479.521 34.4802V45.223H548.333V34.4802H479.521Z" fill="#C6C6C6"/>
<path fill-rule="evenodd" clip-rule="evenodd" d="M479.521 17.66V28.3414H548.333V17.66H479.521Z" fill="#C6C6C6"/>
<path fill-rule="evenodd" clip-rule="evenodd" d="M548.333 0.77858H479.521V11.5214H548.333V0.77858Z" fill="#C6C6C6"/>
<path d="M548.363 40.9872H405.19V40.9934H548.363V40.9872Z" fill="#C6C6C6"/>
<path d="M548.363 74.6888H405.19V74.695H548.363V74.6888Z" fill="#C6C6C6"/>
<path d="M548.363 91.5091H405.19V91.5152H548.363V91.5091Z" fill="#C6C6C6"/>
<path d="M201.213 57.2048V68.8411H198.753V57.2048H201.213ZM205.612 63.7957V68.8411H203.191V60.1139H205.498V61.6536H205.601C205.794 61.146 206.118 60.7445 206.572 60.4491C207.027 60.1498 207.578 60.0002 208.226 60.0002C208.832 60.0002 209.36 60.1328 209.811 60.3979C210.262 60.6631 210.612 61.0419 210.862 61.5343C211.112 62.0229 211.237 62.6063 211.237 63.2843V68.8411H208.816V63.7161C208.82 63.182 208.684 62.7654 208.407 62.4661C208.131 62.1631 207.75 62.0116 207.265 62.0116C206.94 62.0116 206.652 62.0817 206.402 62.2218C206.156 62.362 205.962 62.5665 205.822 62.8354C205.686 63.1006 205.616 63.4207 205.612 63.7957ZM217.787 60.1139V61.932H212.531V60.1139H217.787ZM213.724 58.0229H216.145V66.1593C216.145 66.3828 216.179 66.557 216.247 66.682C216.315 66.8032 216.41 66.8885 216.531 66.9377C216.656 66.987 216.8 67.0116 216.963 67.0116C217.076 67.0116 217.19 67.0021 217.304 66.9832C217.417 66.9604 217.504 66.9434 217.565 66.932L217.946 68.7332C217.825 68.771 217.654 68.8146 217.434 68.8639C217.215 68.9169 216.948 68.9491 216.633 68.9604C216.05 68.9832 215.539 68.9055 215.099 68.7275C214.664 68.5495 214.325 68.2729 214.082 67.8979C213.84 67.5229 213.72 67.0495 213.724 66.4775V58.0229ZM223.247 69.0116C222.349 69.0116 221.576 68.8298 220.929 68.4661C220.285 68.0987 219.789 67.5798 219.44 66.9093C219.092 66.2351 218.917 65.4377 218.917 64.5173C218.917 63.6195 219.092 62.8317 219.44 62.1536C219.789 61.4756 220.279 60.9472 220.912 60.5684C221.548 60.1896 222.294 60.0002 223.15 60.0002C223.726 60.0002 224.262 60.093 224.758 60.2786C225.258 60.4604 225.694 60.7351 226.065 61.1025C226.44 61.4699 226.732 61.932 226.94 62.4889C227.148 63.0419 227.253 63.6896 227.253 64.432V65.0968H219.883V63.5968H224.974C224.974 63.2483 224.898 62.9396 224.747 62.6707C224.595 62.4017 224.385 62.1915 224.116 62.04C223.851 61.8847 223.542 61.807 223.19 61.807C222.823 61.807 222.497 61.8923 222.213 62.0627C221.932 62.2294 221.713 62.4548 221.554 62.7389C221.395 63.0192 221.313 63.3317 221.309 63.6764V65.1025C221.309 65.5343 221.389 65.9074 221.548 66.2218C221.711 66.5362 221.94 66.7786 222.236 66.9491C222.531 67.1195 222.881 67.2048 223.287 67.2048C223.556 67.2048 223.802 67.1669 224.025 67.0911C224.249 67.0154 224.44 66.9017 224.599 66.7502C224.758 66.5987 224.879 66.4131 224.963 66.1934L227.201 66.3411C227.088 66.879 226.855 67.3487 226.503 67.7502C226.154 68.1479 225.703 68.4585 225.15 68.682C224.601 68.9017 223.967 69.0116 223.247 69.0116ZM228.832 68.8411V60.1139H231.179V61.6366H231.27C231.429 61.0949 231.696 60.6858 232.071 60.4093C232.446 60.129 232.878 59.9889 233.366 59.9889C233.487 59.9889 233.618 59.9964 233.758 60.0116C233.898 60.0267 234.022 60.0476 234.128 60.0741V62.2218C234.014 62.1877 233.857 62.1574 233.656 62.1309C233.455 62.1044 233.272 62.0911 233.105 62.0911C232.749 62.0911 232.431 62.1688 232.15 62.3241C231.874 62.4756 231.654 62.6877 231.491 62.9604C231.332 63.2332 231.253 63.5476 231.253 63.9036V68.8411H228.832ZM237.799 63.7957V68.8411H235.379V60.1139H237.686V61.6536H237.788C237.981 61.146 238.305 60.7445 238.76 60.4491C239.214 60.1498 239.765 60.0002 240.413 60.0002C241.019 60.0002 241.548 60.1328 241.998 60.3979C242.449 60.6631 242.799 61.0419 243.049 61.5343C243.299 62.0229 243.424 62.6063 243.424 63.2843V68.8411H241.004V63.7161C241.008 63.182 240.871 62.7654 240.595 62.4661C240.318 62.1631 239.938 62.0116 239.453 62.0116C239.127 62.0116 238.839 62.0817 238.589 62.2218C238.343 62.362 238.15 62.5665 238.01 62.8354C237.873 63.1006 237.803 63.4207 237.799 63.7957ZM247.821 69.0059C247.264 69.0059 246.768 68.9093 246.332 68.7161C245.897 68.5192 245.552 68.2294 245.298 67.8468C245.048 67.4604 244.923 66.9794 244.923 66.4036C244.923 65.9188 245.012 65.5116 245.19 65.182C245.368 64.8525 245.611 64.5873 245.917 64.3866C246.224 64.1858 246.573 64.0343 246.963 63.932C247.357 63.8298 247.77 63.7578 248.201 63.7161C248.709 63.6631 249.118 63.6139 249.429 63.5684C249.739 63.5192 249.965 63.4472 250.105 63.3525C250.245 63.2578 250.315 63.1176 250.315 62.932V62.8979C250.315 62.5381 250.201 62.2597 249.974 62.0627C249.751 61.8657 249.432 61.7673 249.02 61.7673C248.584 61.7673 248.237 61.8639 247.98 62.057C247.722 62.2464 247.552 62.4851 247.468 62.7729L245.23 62.5911C245.343 62.0608 245.567 61.6025 245.9 61.2161C246.234 60.826 246.664 60.5267 247.19 60.3184C247.72 60.1063 248.334 60.0002 249.031 60.0002C249.516 60.0002 249.98 60.057 250.423 60.1707C250.87 60.2843 251.266 60.4604 251.611 60.6991C251.959 60.9377 252.234 61.2445 252.434 61.6195C252.635 61.9907 252.736 62.4358 252.736 62.9548V68.8411H250.44V67.6309H250.372C250.232 67.9036 250.044 68.1442 249.809 68.3525C249.575 68.557 249.292 68.718 248.963 68.8354C248.633 68.9491 248.253 69.0059 247.821 69.0059ZM248.514 67.3354C248.87 67.3354 249.184 67.2654 249.457 67.1252C249.73 66.9813 249.944 66.7881 250.099 66.5457C250.254 66.3032 250.332 66.0286 250.332 65.7218V64.7957C250.256 64.8449 250.152 64.8904 250.02 64.932C249.891 64.9699 249.745 65.0059 249.582 65.04C249.419 65.0703 249.256 65.0987 249.093 65.1252C248.931 65.1479 248.783 65.1688 248.65 65.1877C248.366 65.2294 248.118 65.2957 247.906 65.3866C247.694 65.4775 247.529 65.6006 247.412 65.7559C247.294 65.9074 247.236 66.0968 247.236 66.3241C247.236 66.6536 247.355 66.9055 247.593 67.0798C247.836 67.2502 248.143 67.3354 248.514 67.3354ZM259.255 60.1139V61.932H254V60.1139H259.255ZM255.193 58.0229H257.613V66.1593C257.613 66.3828 257.647 66.557 257.716 66.682C257.784 66.8032 257.879 66.8885 258 66.9377C258.125 66.987 258.269 67.0116 258.432 67.0116C258.545 67.0116 258.659 67.0021 258.772 66.9832C258.886 66.9604 258.973 66.9434 259.034 66.932L259.415 68.7332C259.293 68.771 259.123 68.8146 258.903 68.8639C258.683 68.9169 258.416 68.9491 258.102 68.9604C257.519 68.9832 257.007 68.9055 256.568 68.7275C256.132 68.5495 255.793 68.2729 255.551 67.8979C255.308 67.5229 255.189 67.0495 255.193 66.4775V58.0229ZM260.832 68.8411V60.1139H263.253V68.8411H260.832ZM262.048 58.9889C261.688 58.9889 261.379 58.8695 261.122 58.6309C260.868 58.3885 260.741 58.0987 260.741 57.7616C260.741 57.4282 260.868 57.1423 261.122 56.9036C261.379 56.6612 261.688 56.54 262.048 56.54C262.408 56.54 262.715 56.6612 262.968 56.9036C263.226 57.1423 263.355 57.4282 263.355 57.7616C263.355 58.0987 263.226 58.3885 262.968 58.6309C262.715 58.8695 262.408 58.9889 262.048 58.9889ZM269.135 69.0116C268.252 69.0116 267.489 68.8241 266.845 68.4491C266.205 68.0703 265.71 67.5438 265.362 66.8695C265.013 66.1915 264.839 65.4055 264.839 64.5116C264.839 63.6101 265.013 62.8222 265.362 62.1479C265.71 61.4699 266.205 60.9434 266.845 60.5684C267.489 60.1896 268.252 60.0002 269.135 60.0002C270.017 60.0002 270.779 60.1896 271.419 60.5684C272.063 60.9434 272.559 61.4699 272.907 62.1479C273.256 62.8222 273.43 63.6101 273.43 64.5116C273.43 65.4055 273.256 66.1915 272.907 66.8695C272.559 67.5438 272.063 68.0703 271.419 68.4491C270.779 68.8241 270.017 69.0116 269.135 69.0116ZM269.146 67.1366C269.548 67.1366 269.883 67.0229 270.152 66.7957C270.421 66.5646 270.623 66.2502 270.76 65.8525C270.9 65.4548 270.97 65.0021 270.97 64.4945C270.97 63.987 270.9 63.5343 270.76 63.1366C270.623 62.7389 270.421 62.4245 270.152 62.1934C269.883 61.9623 269.548 61.8468 269.146 61.8468C268.741 61.8468 268.4 61.9623 268.123 62.1934C267.851 62.4245 267.644 62.7389 267.504 63.1366C267.368 63.5343 267.299 63.987 267.299 64.4945C267.299 65.0021 267.368 65.4548 267.504 65.8525C267.644 66.2502 267.851 66.5646 268.123 66.7957C268.4 67.0229 268.741 67.1366 269.146 67.1366ZM277.424 63.7957V68.8411H275.004V60.1139H277.311V61.6536H277.413C277.606 61.146 277.93 60.7445 278.385 60.4491C278.839 60.1498 279.39 60.0002 280.038 60.0002C280.644 60.0002 281.173 60.1328 281.623 60.3979C282.074 60.6631 282.424 61.0419 282.674 61.5343C282.924 62.0229 283.049 62.6063 283.049 63.2843V68.8411H280.629V63.7161C280.633 63.182 280.496 62.7654 280.22 62.4661C279.943 62.1631 279.563 62.0116 279.078 62.0116C278.752 62.0116 278.464 62.0817 278.214 62.2218C277.968 62.362 277.775 62.5665 277.635 62.8354C277.498 63.1006 277.428 63.4207 277.424 63.7957ZM287.446 69.0059C286.889 69.0059 286.393 68.9093 285.957 68.7161C285.522 68.5192 285.177 68.2294 284.923 67.8468C284.673 67.4604 284.548 66.9794 284.548 66.4036C284.548 65.9188 284.637 65.5116 284.815 65.182C284.993 64.8525 285.236 64.5873 285.542 64.3866C285.849 64.1858 286.198 64.0343 286.588 63.932C286.982 63.8298 287.395 63.7578 287.826 63.7161C288.334 63.6631 288.743 63.6139 289.054 63.5684C289.364 63.5192 289.59 63.4472 289.73 63.3525C289.87 63.2578 289.94 63.1176 289.94 62.932V62.8979C289.94 62.5381 289.826 62.2597 289.599 62.0627C289.376 61.8657 289.057 61.7673 288.645 61.7673C288.209 61.7673 287.862 61.8639 287.605 62.057C287.347 62.2464 287.177 62.4851 287.093 62.7729L284.855 62.5911C284.968 62.0608 285.192 61.6025 285.525 61.2161C285.859 60.826 286.289 60.5267 286.815 60.3184C287.345 60.1063 287.959 60.0002 288.656 60.0002C289.141 60.0002 289.605 60.057 290.048 60.1707C290.495 60.2843 290.891 60.4604 291.236 60.6991C291.584 60.9377 291.859 61.2445 292.059 61.6195C292.26 61.9907 292.361 62.4358 292.361 62.9548V68.8411H290.065V67.6309H289.997C289.857 67.9036 289.669 68.1442 289.434 68.3525C289.2 68.557 288.917 68.718 288.588 68.8354C288.258 68.9491 287.878 69.0059 287.446 69.0059ZM288.139 67.3354C288.495 67.3354 288.809 67.2654 289.082 67.1252C289.355 66.9813 289.569 66.7881 289.724 66.5457C289.879 66.3032 289.957 66.0286 289.957 65.7218V64.7957C289.881 64.8449 289.777 64.8904 289.645 64.932C289.516 64.9699 289.37 65.0059 289.207 65.04C289.044 65.0703 288.881 65.0987 288.718 65.1252C288.556 65.1479 288.408 65.1688 288.275 65.1877C287.991 65.2294 287.743 65.2957 287.531 65.3866C287.319 65.4775 287.154 65.6006 287.037 65.7559C286.919 65.9074 286.861 66.0968 286.861 66.3241C286.861 66.6536 286.98 66.9055 287.218 67.0798C287.461 67.2502 287.768 67.3354 288.139 67.3354ZM296.659 57.2048V68.8411H294.238V57.2048H296.659ZM313.04 63.0229C313.04 64.2919 312.799 65.3714 312.318 66.2616C311.841 67.1517 311.189 67.8317 310.363 68.3014C309.541 68.7673 308.617 69.0002 307.591 69.0002C306.557 69.0002 305.629 68.7654 304.807 68.2957C303.985 67.826 303.335 67.146 302.858 66.2559C302.38 65.3657 302.142 64.2881 302.142 63.0229C302.142 61.754 302.38 60.6745 302.858 59.7843C303.335 58.8942 303.985 58.2161 304.807 57.7502C305.629 57.2805 306.557 57.0457 307.591 57.0457C308.617 57.0457 309.541 57.2805 310.363 57.7502C311.189 58.2161 311.841 58.8942 312.318 59.7843C312.799 60.6745 313.04 61.754 313.04 63.0229ZM310.545 63.0229C310.545 62.201 310.422 61.5078 310.176 60.9434C309.933 60.379 309.591 59.951 309.147 59.6593C308.704 59.3676 308.185 59.2218 307.591 59.2218C306.996 59.2218 306.477 59.3676 306.034 59.6593C305.591 59.951 305.246 60.379 305 60.9434C304.757 61.5078 304.636 62.201 304.636 63.0229C304.636 63.8449 304.757 64.5381 305 65.1025C305.246 65.6669 305.591 66.0949 306.034 66.3866C306.477 66.6782 306.996 66.8241 307.591 66.8241C308.185 66.8241 308.704 66.6782 309.147 66.3866C309.591 66.0949 309.933 65.6669 310.176 65.1025C310.422 64.5381 310.545 63.8449 310.545 63.0229ZM319.51 60.1139V61.932H314.123V60.1139H319.51ZM315.356 68.8411V59.4832C315.356 58.8506 315.479 58.326 315.726 57.9093C315.976 57.4926 316.316 57.1801 316.748 56.9718C317.18 56.7635 317.671 56.6593 318.22 56.6593C318.591 56.6593 318.93 56.6877 319.237 56.7445C319.548 56.8014 319.779 56.8525 319.93 56.8979L319.498 58.7161C319.404 58.6858 319.286 58.6574 319.146 58.6309C319.01 58.6044 318.87 58.5911 318.726 58.5911C318.37 58.5911 318.121 58.6745 317.981 58.8411C317.841 59.004 317.771 59.2332 317.771 59.5286V68.8411H315.356ZM325.682 60.1139V61.932H320.295V60.1139H325.682ZM321.528 68.8411V59.4832C321.528 58.8506 321.651 58.326 321.897 57.9093C322.147 57.4926 322.488 57.1801 322.92 56.9718C323.352 56.7635 323.843 56.6593 324.392 56.6593C324.763 56.6593 325.102 56.6877 325.409 56.7445C325.719 56.8014 325.95 56.8525 326.102 56.8979L325.67 58.7161C325.575 58.6858 325.458 58.6574 325.318 58.6309C325.182 58.6044 325.041 58.5911 324.897 58.5911C324.541 58.5911 324.293 58.6745 324.153 58.8411C324.013 59.004 323.943 59.2332 323.943 59.5286V68.8411H321.528ZM327.16 68.8411V60.1139H329.581V68.8411H327.16ZM328.376 58.9889C328.016 58.9889 327.708 58.8695 327.45 58.6309C327.196 58.3885 327.069 58.0987 327.069 57.7616C327.069 57.4282 327.196 57.1423 327.45 56.9036C327.708 56.6612 328.016 56.54 328.376 56.54C328.736 56.54 329.043 56.6612 329.297 56.9036C329.554 57.1423 329.683 57.4282 329.683 57.7616C329.683 58.0987 329.554 58.3885 329.297 58.6309C329.043 58.8695 328.736 58.9889 328.376 58.9889ZM335.463 69.0116C334.569 69.0116 333.8 68.8222 333.156 68.4434C332.516 68.0608 332.023 67.5305 331.679 66.8525C331.338 66.1745 331.167 65.3942 331.167 64.5116C331.167 63.6176 331.34 62.8335 331.684 62.1593C332.033 61.4813 332.527 60.9529 333.167 60.5741C333.807 60.1915 334.569 60.0002 335.451 60.0002C336.213 60.0002 336.879 60.1385 337.451 60.415C338.023 60.6915 338.476 61.0798 338.809 61.5798C339.143 62.0798 339.326 62.6669 339.361 63.3411H337.076C337.012 62.9055 336.842 62.5551 336.565 62.29C336.292 62.021 335.934 61.8866 335.491 61.8866C335.116 61.8866 334.789 61.9889 334.508 62.1934C334.232 62.3942 334.016 62.6877 333.861 63.0741C333.705 63.4604 333.628 63.9282 333.628 64.4775C333.628 65.0343 333.703 65.5078 333.855 65.8979C334.01 66.2881 334.228 66.5854 334.508 66.79C334.789 66.9945 335.116 67.0968 335.491 67.0968C335.768 67.0968 336.016 67.04 336.236 66.9264C336.459 66.8127 336.643 66.6479 336.787 66.432C336.934 66.2123 337.031 65.9491 337.076 65.6423H339.361C339.323 66.3089 339.141 66.896 338.815 67.4036C338.493 67.9074 338.048 68.3014 337.48 68.5854C336.912 68.8695 336.239 69.0116 335.463 69.0116ZM344.888 69.0116C343.99 69.0116 343.217 68.8298 342.569 68.4661C341.925 68.0987 341.429 67.5798 341.081 66.9093C340.732 66.2351 340.558 65.4377 340.558 64.5173C340.558 63.6195 340.732 62.8317 341.081 62.1536C341.429 61.4756 341.92 60.9472 342.552 60.5684C343.189 60.1896 343.935 60.0002 344.791 60.0002C345.367 60.0002 345.903 60.093 346.399 60.2786C346.899 60.4604 347.334 60.7351 347.706 61.1025C348.081 61.4699 348.372 61.932 348.581 62.4889C348.789 63.0419 348.893 63.6896 348.893 64.432V65.0968H341.524V63.5968H346.615C346.615 63.2483 346.539 62.9396 346.388 62.6707C346.236 62.4017 346.026 62.1915 345.757 62.04C345.492 61.8847 345.183 61.807 344.831 61.807C344.463 61.807 344.138 61.8923 343.853 62.0627C343.573 62.2294 343.353 62.4548 343.194 62.7389C343.035 63.0192 342.954 63.3317 342.95 63.6764V65.1025C342.95 65.5343 343.03 65.9074 343.189 66.2218C343.352 66.5362 343.581 66.7786 343.876 66.9491C344.172 67.1195 344.522 67.2048 344.927 67.2048C345.196 67.2048 345.442 67.1669 345.666 67.0911C345.889 67.0154 346.081 66.9017 346.24 66.7502C346.399 66.5987 346.52 66.4131 346.603 66.1934L348.842 66.3411C348.728 66.879 348.495 67.3487 348.143 67.7502C347.795 68.1479 347.344 68.4585 346.791 68.682C346.242 68.9017 345.607 69.0116 344.888 69.0116Z" fill="white"/>
<path d="M599.076 68.8411V57.2048H601.537V62.0059H606.531V57.2048H608.985V68.8411H606.531V64.0343H601.537V68.8411H599.076ZM616.565 65.1252V60.1139H618.985V68.8411H616.662V67.2559H616.571C616.374 67.7673 616.046 68.1782 615.588 68.4889C615.133 68.7995 614.578 68.9548 613.923 68.9548C613.34 68.9548 612.826 68.8222 612.383 68.557C611.94 68.2919 611.593 67.915 611.343 67.4264C611.097 66.9377 610.972 66.3525 610.968 65.6707V60.1139H613.389V65.2389C613.393 65.754 613.531 66.1612 613.804 66.4604C614.076 66.7597 614.442 66.9093 614.9 66.9093C615.192 66.9093 615.465 66.843 615.718 66.7104C615.972 66.5741 616.177 66.3733 616.332 66.1082C616.491 65.843 616.569 65.5154 616.565 65.1252ZM620.921 68.8411V60.1139H623.228V61.6536H623.331C623.512 61.1423 623.815 60.7389 624.24 60.4434C624.664 60.1479 625.171 60.0002 625.762 60.0002C626.361 60.0002 626.87 60.1498 627.291 60.4491C627.711 60.7445 627.992 61.146 628.132 61.6536H628.223C628.401 61.1536 628.723 60.754 629.189 60.4548C629.658 60.1517 630.213 60.0002 630.853 60.0002C631.668 60.0002 632.329 60.2597 632.836 60.7786C633.348 61.2938 633.603 62.0248 633.603 62.9718V68.8411H631.189V63.4491C631.189 62.9642 631.06 62.6006 630.802 62.3582C630.545 62.1157 630.223 61.9945 629.836 61.9945C629.397 61.9945 629.054 62.1347 628.808 62.415C628.562 62.6915 628.439 63.057 628.439 63.5116V68.8411H626.092V63.3979C626.092 62.9699 625.969 62.629 625.723 62.3752C625.48 62.1214 625.16 61.9945 624.762 61.9945C624.493 61.9945 624.251 62.0627 624.035 62.1991C623.823 62.3317 623.654 62.5192 623.529 62.7616C623.404 63.0002 623.342 63.2805 623.342 63.6025V68.8411H620.921ZM638.004 69.0059C637.447 69.0059 636.951 68.9093 636.515 68.7161C636.08 68.5192 635.735 68.2294 635.481 67.8468C635.231 67.4604 635.106 66.9794 635.106 66.4036C635.106 65.9188 635.195 65.5116 635.373 65.182C635.551 64.8525 635.794 64.5873 636.1 64.3866C636.407 64.1858 636.756 64.0343 637.146 63.932C637.54 63.8298 637.953 63.7578 638.385 63.7161C638.892 63.6631 639.301 63.6139 639.612 63.5684C639.922 63.5192 640.148 63.4472 640.288 63.3525C640.428 63.2578 640.498 63.1176 640.498 62.932V62.8979C640.498 62.5381 640.385 62.2597 640.157 62.0627C639.934 61.8657 639.616 61.7673 639.203 61.7673C638.767 61.7673 638.421 61.8639 638.163 62.057C637.905 62.2464 637.735 62.4851 637.652 62.7729L635.413 62.5911C635.527 62.0608 635.75 61.6025 636.083 61.2161C636.417 60.826 636.847 60.5267 637.373 60.3184C637.903 60.1063 638.517 60.0002 639.214 60.0002C639.699 60.0002 640.163 60.057 640.606 60.1707C641.053 60.2843 641.449 60.4604 641.794 60.6991C642.142 60.9377 642.417 61.2445 642.617 61.6195C642.818 61.9907 642.919 62.4358 642.919 62.9548V68.8411H640.623V67.6309H640.555C640.415 67.9036 640.227 68.1442 639.992 68.3525C639.758 68.557 639.475 68.718 639.146 68.8354C638.816 68.9491 638.436 69.0059 638.004 69.0059ZM638.697 67.3354C639.053 67.3354 639.367 67.2654 639.64 67.1252C639.913 66.9813 640.127 66.7881 640.282 66.5457C640.438 66.3032 640.515 66.0286 640.515 65.7218V64.7957C640.439 64.8449 640.335 64.8904 640.203 64.932C640.074 64.9699 639.928 65.0059 639.765 65.04C639.602 65.0703 639.439 65.0987 639.277 65.1252C639.114 65.1479 638.966 65.1688 638.833 65.1877C638.549 65.2294 638.301 65.2957 638.089 65.3866C637.877 65.4775 637.712 65.6006 637.595 65.7559C637.477 65.9074 637.419 66.0968 637.419 66.3241C637.419 66.6536 637.538 66.9055 637.777 67.0798C638.019 67.2502 638.326 67.3354 638.697 67.3354ZM652.058 62.6025L649.842 62.7389C649.804 62.5495 649.723 62.379 649.598 62.2275C649.473 62.0722 649.308 61.9491 649.103 61.8582C648.903 61.7635 648.662 61.7161 648.382 61.7161C648.007 61.7161 647.69 61.7957 647.433 61.9548C647.175 62.1101 647.046 62.3184 647.046 62.5798C647.046 62.7881 647.13 62.9642 647.296 63.1082C647.463 63.2521 647.749 63.3676 648.154 63.4548L649.734 63.7729C650.582 63.9472 651.215 64.2275 651.632 64.6139C652.048 65.0002 652.257 65.5078 652.257 66.1366C652.257 66.7085 652.088 67.2104 651.751 67.6423C651.418 68.0741 650.959 68.4112 650.376 68.6536C649.796 68.8923 649.128 69.0116 648.37 69.0116C647.215 69.0116 646.295 68.771 645.609 68.29C644.927 67.8051 644.528 67.146 644.41 66.3127L646.791 66.1877C646.863 66.54 647.037 66.8089 647.314 66.9945C647.59 67.1764 647.944 67.2673 648.376 67.2673C648.8 67.2673 649.141 67.1858 649.399 67.0229C649.66 66.8563 649.793 66.6423 649.796 66.3809C649.793 66.1612 649.7 65.9813 649.518 65.8411C649.336 65.6972 649.056 65.5873 648.677 65.5116L647.166 65.2104C646.314 65.04 645.679 64.7445 645.262 64.3241C644.85 63.9036 644.643 63.3676 644.643 62.7161C644.643 62.1555 644.795 61.6726 645.098 61.2673C645.404 60.862 645.834 60.5495 646.387 60.3298C646.944 60.1101 647.596 60.0002 648.342 60.0002C649.444 60.0002 650.312 60.2332 650.944 60.6991C651.581 61.165 651.952 61.7995 652.058 62.6025Z" fill="white"/>
<path d="M746.108 60.9661C746.029 60.6896 745.917 60.4453 745.773 60.2332C745.629 60.0173 745.453 59.8354 745.244 59.6877C745.04 59.5362 744.805 59.4207 744.54 59.3411C744.279 59.2616 743.989 59.2218 743.671 59.2218C743.076 59.2218 742.553 59.3695 742.102 59.665C741.655 59.9604 741.307 60.3904 741.057 60.9548C740.807 61.5154 740.682 62.201 740.682 63.0116C740.682 63.8222 740.805 64.5116 741.051 65.0798C741.298 65.6479 741.646 66.0817 742.097 66.3809C742.548 66.6764 743.08 66.8241 743.693 66.8241C744.25 66.8241 744.726 66.7256 745.119 66.5286C745.517 66.3279 745.82 66.0457 746.029 65.682C746.241 65.3184 746.347 64.8885 746.347 64.3923L746.847 64.4661H743.847V62.6139H748.716V64.0798C748.716 65.1025 748.5 65.9813 748.068 66.7161C747.637 67.4472 747.042 68.0116 746.284 68.4093C745.527 68.8032 744.659 69.0002 743.682 69.0002C742.591 69.0002 741.633 68.7597 740.807 68.2786C739.981 67.7938 739.337 67.1063 738.875 66.2161C738.417 65.3222 738.188 64.2616 738.188 63.0343C738.188 62.0911 738.324 61.2502 738.597 60.5116C738.873 59.7692 739.26 59.1404 739.756 58.6252C740.252 58.1101 740.83 57.718 741.489 57.4491C742.148 57.1801 742.862 57.0457 743.631 57.0457C744.29 57.0457 744.904 57.1423 745.472 57.3354C746.04 57.5248 746.544 57.7938 746.983 58.1423C747.426 58.4907 747.788 58.9055 748.068 59.3866C748.349 59.8639 748.529 60.3904 748.608 60.9661H746.108ZM756.115 65.1252V60.1139H758.536V68.8411H756.212V67.2559H756.121C755.924 67.7673 755.596 68.1782 755.138 68.4889C754.683 68.7995 754.128 68.9548 753.473 68.9548C752.89 68.9548 752.377 68.8222 751.933 68.557C751.49 68.2919 751.144 67.915 750.894 67.4264C750.647 66.9377 750.522 66.3525 750.519 65.6707V60.1139H752.939V65.2389C752.943 65.754 753.081 66.1612 753.354 66.4604C753.627 66.7597 753.992 66.9093 754.45 66.9093C754.742 66.9093 755.015 66.843 755.269 66.7104C755.522 66.5741 755.727 66.3733 755.882 66.1082C756.041 65.843 756.119 65.5154 756.115 65.1252ZM763.688 68.9832C763.025 68.9832 762.424 68.8127 761.887 68.4718C761.352 68.1271 760.928 67.6214 760.614 66.9548C760.303 66.2843 760.148 65.4623 760.148 64.4889C760.148 63.4889 760.309 62.6574 760.631 61.9945C760.953 61.3279 761.381 60.8298 761.915 60.5002C762.453 60.1669 763.042 60.0002 763.682 60.0002C764.171 60.0002 764.578 60.0835 764.904 60.2502C765.233 60.4131 765.498 60.6176 765.699 60.8639C765.904 61.1063 766.059 61.3449 766.165 61.5798H766.239V57.2048H768.654V68.8411H766.267V67.4434H766.165C766.051 67.6858 765.89 67.9264 765.682 68.165C765.477 68.3998 765.21 68.5949 764.881 68.7502C764.555 68.9055 764.157 68.9832 763.688 68.9832ZM764.455 67.057C764.845 67.057 765.174 66.951 765.443 66.7389C765.716 66.5229 765.924 66.2218 766.068 65.8354C766.216 65.4491 766.29 64.9964 766.29 64.4775C766.29 63.9585 766.218 63.5078 766.074 63.1252C765.93 62.7426 765.722 62.4472 765.449 62.2389C765.176 62.0305 764.845 61.9264 764.455 61.9264C764.057 61.9264 763.722 62.0343 763.449 62.2502C763.176 62.4661 762.97 62.7654 762.83 63.1479C762.69 63.5305 762.619 63.9737 762.619 64.4775C762.619 64.9851 762.69 65.4339 762.83 65.8241C762.974 66.2104 763.18 66.5135 763.449 66.7332C763.722 66.9491 764.057 67.057 764.455 67.057ZM773.132 69.0059C772.575 69.0059 772.079 68.9093 771.644 68.7161C771.208 68.5192 770.863 68.2294 770.61 67.8468C770.36 67.4604 770.235 66.9794 770.235 66.4036C770.235 65.9188 770.324 65.5116 770.502 65.182C770.68 64.8525 770.922 64.5873 771.229 64.3866C771.536 64.1858 771.884 64.0343 772.274 63.932C772.668 63.8298 773.081 63.7578 773.513 63.7161C774.021 63.6631 774.43 63.6139 774.74 63.5684C775.051 63.5192 775.276 63.4472 775.416 63.3525C775.557 63.2578 775.627 63.1176 775.627 62.932V62.8979C775.627 62.5381 775.513 62.2597 775.286 62.0627C775.062 61.8657 774.744 61.7673 774.331 61.7673C773.896 61.7673 773.549 61.8639 773.291 62.057C773.034 62.2464 772.863 62.4851 772.78 62.7729L770.541 62.5911C770.655 62.0608 770.878 61.6025 771.212 61.2161C771.545 60.826 771.975 60.5267 772.502 60.3184C773.032 60.1063 773.646 60.0002 774.343 60.0002C774.827 60.0002 775.291 60.057 775.735 60.1707C776.182 60.2843 776.577 60.4604 776.922 60.6991C777.271 60.9377 777.545 61.2445 777.746 61.6195C777.947 61.9907 778.047 62.4358 778.047 62.9548V68.8411H775.752V67.6309H775.683C775.543 67.9036 775.356 68.1442 775.121 68.3525C774.886 68.557 774.604 68.718 774.274 68.8354C773.945 68.9491 773.564 69.0059 773.132 69.0059ZM773.825 67.3354C774.182 67.3354 774.496 67.2654 774.769 67.1252C775.041 66.9813 775.255 66.7881 775.411 66.5457C775.566 66.3032 775.644 66.0286 775.644 65.7218V64.7957C775.568 64.8449 775.464 64.8904 775.331 64.932C775.202 64.9699 775.057 65.0059 774.894 65.04C774.731 65.0703 774.568 65.0987 774.405 65.1252C774.242 65.1479 774.094 65.1688 773.962 65.1877C773.678 65.2294 773.43 65.2957 773.218 65.3866C773.005 65.4775 772.841 65.6006 772.723 65.7559C772.606 65.9074 772.547 66.0968 772.547 66.3241C772.547 66.6536 772.666 66.9055 772.905 67.0798C773.147 67.2502 773.454 67.3354 773.825 67.3354ZM782.345 63.7957V68.8411H779.925V60.1139H782.232V61.6536H782.334C782.527 61.146 782.851 60.7445 783.306 60.4491C783.76 60.1498 784.311 60.0002 784.959 60.0002C785.565 60.0002 786.093 60.1328 786.544 60.3979C786.995 60.6631 787.345 61.0419 787.595 61.5343C787.845 62.0229 787.97 62.6063 787.97 63.2843V68.8411H785.55V63.7161C785.554 63.182 785.417 62.7654 785.141 62.4661C784.864 62.1631 784.484 62.0116 783.999 62.0116C783.673 62.0116 783.385 62.0817 783.135 62.2218C782.889 62.362 782.696 62.5665 782.556 62.8354C782.419 63.1006 782.349 63.4207 782.345 63.7957ZM793.81 72.2957C793.026 72.2957 792.353 72.1877 791.793 71.9718C791.236 71.7597 790.793 71.4699 790.463 71.1025C790.134 70.7351 789.92 70.3222 789.821 69.8639L792.06 69.5627C792.128 69.737 792.236 69.8998 792.384 70.0514C792.531 70.2029 792.727 70.3241 792.969 70.415C793.215 70.5097 793.514 70.557 793.867 70.557C794.393 70.557 794.827 70.4282 795.168 70.1707C795.512 69.9169 795.685 69.4907 795.685 68.8923V67.2957H795.583C795.477 67.5381 795.317 67.7673 795.105 67.9832C794.893 68.1991 794.62 68.3752 794.287 68.5116C793.954 68.6479 793.556 68.7161 793.094 68.7161C792.439 68.7161 791.842 68.5646 791.304 68.2616C790.77 67.9548 790.344 67.487 790.026 66.8582C789.711 66.2256 789.554 65.4264 789.554 64.4604C789.554 63.4718 789.715 62.646 790.037 61.9832C790.359 61.3203 790.787 60.8241 791.321 60.4945C791.859 60.165 792.448 60.0002 793.088 60.0002C793.577 60.0002 793.986 60.0835 794.316 60.2502C794.645 60.4131 794.91 60.6176 795.111 60.8639C795.316 61.1063 795.473 61.3449 795.583 61.5798H795.673V60.1139H798.077V68.9264C798.077 69.6688 797.895 70.29 797.531 70.79C797.168 71.29 796.664 71.665 796.02 71.915C795.38 72.1688 794.643 72.2957 793.81 72.2957ZM793.861 66.8979C794.251 66.8979 794.581 66.8014 794.85 66.6082C795.122 66.4112 795.331 66.1309 795.475 65.7673C795.622 65.3998 795.696 64.9604 795.696 64.4491C795.696 63.9377 795.624 63.4945 795.48 63.1195C795.336 62.7407 795.128 62.4472 794.855 62.2389C794.583 62.0305 794.251 61.9264 793.861 61.9264C793.463 61.9264 793.128 62.0343 792.855 62.2502C792.583 62.4623 792.376 62.7578 792.236 63.1366C792.096 63.5154 792.026 63.9529 792.026 64.4491C792.026 64.9529 792.096 65.3885 792.236 65.7559C792.38 66.1195 792.586 66.4017 792.855 66.6025C793.128 66.7995 793.463 66.8979 793.861 66.8979Z" fill="white"/>
<path d="M850.461 56.8411L847.132 45.2048H849.819L851.745 53.29H851.842L853.967 45.2048H856.268L858.387 53.307H858.49L860.416 45.2048H863.103L859.774 56.8411H857.376L855.16 49.2332H855.069L852.859 56.8411H850.461ZM874.031 49.2786H871.542C871.497 48.9567 871.404 48.6707 871.264 48.4207C871.124 48.1669 870.944 47.951 870.724 47.7729C870.504 47.5949 870.251 47.4585 869.963 47.3639C869.679 47.2692 869.37 47.2218 869.037 47.2218C868.434 47.2218 867.91 47.3714 867.463 47.6707C867.016 47.9661 866.669 48.3979 866.423 48.9661C866.177 49.5305 866.054 50.2161 866.054 51.0229C866.054 51.8525 866.177 52.5495 866.423 53.1139C866.673 53.6782 867.021 54.1044 867.468 54.3923C867.915 54.6801 868.432 54.8241 869.019 54.8241C869.349 54.8241 869.654 54.7805 869.934 54.6934C870.218 54.6063 870.47 54.4794 870.69 54.3127C870.91 54.1423 871.091 53.9358 871.235 53.6934C871.383 53.451 871.485 53.1745 871.542 52.8639L874.031 52.8752C873.966 53.4093 873.805 53.9245 873.548 54.4207C873.294 54.9131 872.951 55.3544 872.519 55.7445C872.091 56.1309 871.58 56.4377 870.985 56.665C870.394 56.8885 869.726 57.0002 868.98 57.0002C867.942 57.0002 867.014 56.7654 866.196 56.2957C865.381 55.826 864.737 55.146 864.264 54.2559C863.794 53.3657 863.559 52.2881 863.559 51.0229C863.559 49.754 863.798 48.6745 864.275 47.7843C864.752 46.8942 865.4 46.2161 866.218 45.7502C867.037 45.2805 867.957 45.0457 868.98 45.0457C869.654 45.0457 870.279 45.1404 870.855 45.3298C871.434 45.5192 871.948 45.7957 872.394 46.1593C872.841 46.5192 873.205 46.9604 873.485 47.4832C873.769 48.0059 873.951 48.6044 874.031 49.2786ZM847.842 80.8411V69.2048H852.433C853.315 69.2048 854.067 69.3733 854.689 69.7104C855.31 70.0438 855.783 70.5078 856.109 71.1025C856.439 71.6934 856.603 72.3752 856.603 73.1479C856.603 73.9207 856.437 74.6025 856.103 75.1934C855.77 75.7843 855.287 76.2445 854.654 76.5741C854.026 76.9036 853.264 77.0684 852.37 77.0684H849.444V75.0968H851.973C852.446 75.0968 852.836 75.0154 853.143 74.8525C853.454 74.6858 853.685 74.4567 853.836 74.165C853.992 73.8695 854.069 73.5305 854.069 73.1479C854.069 72.7616 853.992 72.4245 853.836 72.1366C853.685 71.8449 853.454 71.6195 853.143 71.4604C852.832 71.2976 852.439 71.2161 851.961 71.2161H850.302V80.8411H847.842ZM861.992 81.0116C861.095 81.0116 860.322 80.8298 859.674 80.4661C859.03 80.0987 858.534 79.5798 858.186 78.9093C857.837 78.2351 857.663 77.4377 857.663 76.5173C857.663 75.6195 857.837 74.8317 858.186 74.1536C858.534 73.4756 859.025 72.9472 859.657 72.5684C860.294 72.1896 861.04 72.0002 861.896 72.0002C862.472 72.0002 863.008 72.093 863.504 72.2786C864.004 72.4604 864.439 72.7351 864.811 73.1025C865.186 73.4699 865.477 73.932 865.686 74.4889C865.894 75.0419 865.998 75.6896 865.998 76.432V77.0968H858.629V75.5968H863.72C863.72 75.2483 863.644 74.9396 863.492 74.6707C863.341 74.4017 863.131 74.1915 862.862 74.04C862.597 73.8847 862.288 73.807 861.936 73.807C861.568 73.807 861.242 73.8923 860.958 74.0627C860.678 74.2294 860.458 74.4548 860.299 74.7389C860.14 75.0192 860.059 75.3317 860.055 75.6764V77.1025C860.055 77.5343 860.135 77.9074 860.294 78.2218C860.457 78.5362 860.686 78.7786 860.981 78.9491C861.277 79.1195 861.627 79.2048 862.032 79.2048C862.301 79.2048 862.547 79.1669 862.771 79.0911C862.994 79.0154 863.186 78.9017 863.345 78.7502C863.504 78.5987 863.625 78.4131 863.708 78.1934L865.947 78.3411C865.833 78.879 865.6 79.3487 865.248 79.7502C864.9 80.1479 864.449 80.4585 863.896 80.682C863.347 80.9017 862.712 81.0116 861.992 81.0116ZM867.578 80.8411V72.1139H869.924V73.6366H870.015C870.174 73.0949 870.441 72.6858 870.816 72.4093C871.191 72.129 871.623 71.9889 872.112 71.9889C872.233 71.9889 872.364 71.9964 872.504 72.0116C872.644 72.0267 872.767 72.0476 872.873 72.0741V74.2218C872.76 74.1877 872.602 74.1574 872.402 74.1309C872.201 74.1044 872.017 74.0911 871.85 74.0911C871.494 74.0911 871.176 74.1688 870.896 74.3241C870.619 74.4756 870.4 74.6877 870.237 74.9604C870.078 75.2332 869.998 75.5476 869.998 75.9036V80.8411H867.578ZM877.696 81.0116C876.798 81.0116 876.025 80.8298 875.377 80.4661C874.734 80.0987 874.237 79.5798 873.889 78.9093C873.54 78.2351 873.366 77.4377 873.366 76.5173C873.366 75.6195 873.54 74.8317 873.889 74.1536C874.237 73.4756 874.728 72.9472 875.36 72.5684C875.997 72.1896 876.743 72.0002 877.599 72.0002C878.175 72.0002 878.711 72.093 879.207 72.2786C879.707 72.4604 880.143 72.7351 880.514 73.1025C880.889 73.4699 881.18 73.932 881.389 74.4889C881.597 75.0419 881.701 75.6896 881.701 76.432V77.0968H874.332V75.5968H879.423C879.423 75.2483 879.347 74.9396 879.196 74.6707C879.044 74.4017 878.834 74.1915 878.565 74.04C878.3 73.8847 877.991 73.807 877.639 73.807C877.271 73.807 876.946 73.8923 876.662 74.0627C876.381 74.2294 876.162 74.4548 876.002 74.7389C875.843 75.0192 875.762 75.3317 875.758 75.6764V77.1025C875.758 77.5343 875.838 77.9074 875.997 78.2218C876.16 78.5362 876.389 78.7786 876.684 78.9491C876.98 79.1195 877.33 79.2048 877.735 79.2048C878.004 79.2048 878.251 79.1669 878.474 79.0911C878.698 79.0154 878.889 78.9017 879.048 78.7502C879.207 78.5987 879.328 78.4131 879.412 78.1934L881.65 78.3411C881.537 78.879 881.304 79.3487 880.951 79.7502C880.603 80.1479 880.152 80.4585 879.599 80.682C879.05 80.9017 878.415 81.0116 877.696 81.0116ZM883.281 80.8411V72.1139H885.588V73.6536H885.69C885.872 73.1423 886.175 72.7389 886.599 72.4434C887.023 72.1479 887.531 72.0002 888.122 72.0002C888.72 72.0002 889.23 72.1498 889.65 72.4491C890.071 72.7445 890.351 73.146 890.491 73.6536H890.582C890.76 73.1536 891.082 72.754 891.548 72.4548C892.018 72.1517 892.573 72.0002 893.213 72.0002C894.027 72.0002 894.688 72.2597 895.196 72.7786C895.707 73.2938 895.963 74.0248 895.963 74.9718V80.8411H893.548V75.4491C893.548 74.9642 893.419 74.6006 893.162 74.3582C892.904 74.1157 892.582 73.9945 892.196 73.9945C891.756 73.9945 891.413 74.1347 891.167 74.415C890.921 74.6915 890.798 75.057 890.798 75.5116V80.8411H888.451V75.3979C888.451 74.9699 888.328 74.629 888.082 74.3752C887.84 74.1214 887.519 73.9945 887.122 73.9945C886.853 73.9945 886.61 74.0627 886.394 74.1991C886.182 74.3317 886.014 74.5192 885.889 74.7616C885.764 75.0002 885.701 75.2805 885.701 75.6025V80.8411H883.281ZM897.875 84.1139V72.1139H900.261V73.5798H900.369C900.475 73.3449 900.628 73.1063 900.829 72.8639C901.034 72.6176 901.299 72.4131 901.625 72.2502C901.954 72.0835 902.363 72.0002 902.852 72.0002C903.488 72.0002 904.075 72.1669 904.613 72.5002C905.151 72.8298 905.581 73.3279 905.903 73.9945C906.225 74.6574 906.386 75.4889 906.386 76.4889C906.386 77.4623 906.229 78.2843 905.914 78.9548C905.604 79.6214 905.18 80.1271 904.642 80.4718C904.108 80.8127 903.509 80.9832 902.846 80.9832C902.376 80.9832 901.977 80.9055 901.647 80.7502C901.322 80.5949 901.055 80.3998 900.846 80.165C900.638 79.9264 900.479 79.6858 900.369 79.4434H900.295V84.1139H897.875ZM900.244 76.4775C900.244 76.9964 900.316 77.4491 900.46 77.8354C900.604 78.2218 900.812 78.5229 901.085 78.7389C901.358 78.951 901.689 79.057 902.079 79.057C902.473 79.057 902.806 78.9491 903.079 78.7332C903.352 78.5135 903.558 78.2104 903.698 77.8241C903.842 77.4339 903.914 76.9851 903.914 76.4775C903.914 75.9737 903.844 75.5305 903.704 75.1479C903.564 74.7654 903.358 74.4661 903.085 74.2502C902.812 74.0343 902.477 73.9264 902.079 73.9264C901.685 73.9264 901.352 74.0305 901.079 74.2389C900.81 74.4472 900.604 74.7426 900.46 75.1252C900.316 75.5078 900.244 75.9585 900.244 76.4775ZM913.596 77.1252V72.1139H916.017V80.8411H913.693V79.2559H913.602C913.405 79.7673 913.077 80.1782 912.619 80.4889C912.164 80.7995 911.609 80.9548 910.954 80.9548C910.371 80.9548 909.858 80.8222 909.414 80.557C908.971 80.2919 908.625 79.915 908.375 79.4264C908.128 78.9377 908.003 78.3525 908 77.6707V72.1139H910.42V77.2389C910.424 77.754 910.562 78.1612 910.835 78.4604C911.108 78.7597 911.473 78.9093 911.931 78.9093C912.223 78.9093 912.496 78.843 912.75 78.7104C913.003 78.5741 913.208 78.3733 913.363 78.1082C913.522 77.843 913.6 77.5154 913.596 77.1252ZM920.441 81.0059C919.885 81.0059 919.388 80.9093 918.953 80.7161C918.517 80.5192 918.172 80.2294 917.919 79.8468C917.669 79.4604 917.544 78.9794 917.544 78.4036C917.544 77.9188 917.633 77.5116 917.811 77.182C917.989 76.8525 918.231 76.5873 918.538 76.3866C918.845 76.1858 919.193 76.0343 919.583 75.932C919.977 75.8298 920.39 75.7578 920.822 75.7161C921.33 75.6631 921.739 75.6139 922.049 75.5684C922.36 75.5192 922.585 75.4472 922.725 75.3525C922.866 75.2578 922.936 75.1176 922.936 74.932V74.8979C922.936 74.5381 922.822 74.2597 922.595 74.0627C922.371 73.8657 922.053 73.7673 921.64 73.7673C921.205 73.7673 920.858 73.8639 920.6 74.057C920.343 74.2464 920.172 74.4851 920.089 74.7729L917.85 74.5911C917.964 74.0608 918.188 73.6025 918.521 73.2161C918.854 72.826 919.284 72.5267 919.811 72.3184C920.341 72.1063 920.955 72.0002 921.652 72.0002C922.136 72.0002 922.6 72.057 923.044 72.1707C923.491 72.2843 923.886 72.4604 924.231 72.6991C924.58 72.9377 924.854 73.2445 925.055 73.6195C925.256 73.9907 925.356 74.4358 925.356 74.9548V80.8411H923.061V79.6309H922.992C922.852 79.9036 922.665 80.1442 922.43 80.3525C922.195 80.557 921.913 80.718 921.583 80.8354C921.254 80.9491 920.873 81.0059 920.441 81.0059ZM921.135 79.3354C921.491 79.3354 921.805 79.2654 922.078 79.1252C922.35 78.9813 922.564 78.7881 922.72 78.5457C922.875 78.3032 922.953 78.0286 922.953 77.7218V76.7957C922.877 76.8449 922.773 76.8904 922.64 76.932C922.511 76.9699 922.366 77.0059 922.203 77.04C922.04 77.0703 921.877 77.0987 921.714 77.1252C921.551 77.1479 921.403 77.1688 921.271 77.1877C920.987 77.2294 920.739 77.2957 920.527 77.3866C920.314 77.4775 920.15 77.6006 920.032 77.7559C919.915 77.9074 919.856 78.0968 919.856 78.3241C919.856 78.6536 919.975 78.9055 920.214 79.0798C920.457 79.2502 920.763 79.3354 921.135 79.3354ZM929.654 75.7957V80.8411H927.234V72.1139H929.541V73.6536H929.643C929.836 73.146 930.16 72.7445 930.615 72.4491C931.069 72.1498 931.62 72.0002 932.268 72.0002C932.874 72.0002 933.403 72.1328 933.853 72.3979C934.304 72.6631 934.654 73.0419 934.904 73.5343C935.154 74.0229 935.279 74.6063 935.279 75.2843V80.8411H932.859V75.7161C932.863 75.182 932.726 74.7654 932.45 74.4661C932.173 74.1631 931.793 74.0116 931.308 74.0116C930.982 74.0116 930.694 74.0817 930.444 74.2218C930.198 74.362 930.005 74.5665 929.865 74.8354C929.728 75.1006 929.658 75.4207 929.654 75.7957Z" fill="white"/>
<path d="M861.961 202.759L858.632 191.123H861.319L863.245 199.208H863.342L865.467 191.123H867.768L869.887 199.225H869.99L871.916 191.123H874.603L871.274 202.759H868.876L866.66 195.151H866.569L864.359 202.759H861.961ZM885.531 195.196H883.042C882.997 194.874 882.904 194.588 882.764 194.338C882.624 194.085 882.444 193.869 882.224 193.691C882.004 193.513 881.751 193.376 881.463 193.282C881.179 193.187 880.87 193.14 880.537 193.14C879.934 193.14 879.41 193.289 878.963 193.588C878.516 193.884 878.169 194.316 877.923 194.884C877.677 195.448 877.554 196.134 877.554 196.941C877.554 197.77 877.677 198.467 877.923 199.032C878.173 199.596 878.521 200.022 878.968 200.31C879.415 200.598 879.932 200.742 880.519 200.742C880.849 200.742 881.154 200.698 881.434 200.611C881.718 200.524 881.97 200.397 882.19 200.231C882.41 200.06 882.591 199.854 882.735 199.611C882.883 199.369 882.985 199.092 883.042 198.782L885.531 198.793C885.466 199.327 885.305 199.842 885.048 200.338C884.794 200.831 884.451 201.272 884.019 201.662C883.591 202.049 883.08 202.356 882.485 202.583C881.894 202.806 881.226 202.918 880.48 202.918C879.442 202.918 878.514 202.683 877.696 202.213C876.881 201.744 876.237 201.064 875.764 200.174C875.294 199.284 875.059 198.206 875.059 196.941C875.059 195.672 875.298 194.592 875.775 193.702C876.252 192.812 876.9 192.134 877.718 191.668C878.537 191.198 879.457 190.963 880.48 190.963C881.154 190.963 881.779 191.058 882.355 191.248C882.934 191.437 883.448 191.713 883.894 192.077C884.341 192.437 884.705 192.878 884.985 193.401C885.269 193.924 885.451 194.522 885.531 195.196ZM859.342 226.759V215.123H861.802V224.731H866.791V226.759H859.342ZM870.863 226.924C870.306 226.924 869.81 226.827 869.375 226.634C868.939 226.437 868.594 226.147 868.341 225.765C868.091 225.378 867.966 224.897 867.966 224.321C867.966 223.837 868.055 223.429 868.233 223.1C868.411 222.77 868.653 222.505 868.96 222.304C869.267 222.104 869.615 221.952 870.005 221.85C870.399 221.748 870.812 221.676 871.244 221.634C871.751 221.581 872.161 221.532 872.471 221.486C872.782 221.437 873.007 221.365 873.147 221.27C873.287 221.176 873.358 221.035 873.358 220.85V220.816C873.358 220.456 873.244 220.177 873.017 219.981C872.793 219.784 872.475 219.685 872.062 219.685C871.626 219.685 871.28 219.782 871.022 219.975C870.765 220.164 870.594 220.403 870.511 220.691L868.272 220.509C868.386 219.979 868.609 219.52 868.943 219.134C869.276 218.744 869.706 218.445 870.233 218.236C870.763 218.024 871.376 217.918 872.073 217.918C872.558 217.918 873.022 217.975 873.466 218.088C873.912 218.202 874.308 218.378 874.653 218.617C875.001 218.856 875.276 219.162 875.477 219.537C875.678 219.909 875.778 220.354 875.778 220.873V226.759H873.483V225.549H873.414C873.274 225.821 873.087 226.062 872.852 226.27C872.617 226.475 872.335 226.636 872.005 226.753C871.676 226.867 871.295 226.924 870.863 226.924ZM871.556 225.253C871.912 225.253 872.227 225.183 872.5 225.043C872.772 224.899 872.986 224.706 873.142 224.463C873.297 224.221 873.375 223.946 873.375 223.64V222.713C873.299 222.763 873.195 222.808 873.062 222.85C872.933 222.888 872.787 222.924 872.625 222.958C872.462 222.988 872.299 223.016 872.136 223.043C871.973 223.066 871.825 223.087 871.693 223.106C871.409 223.147 871.161 223.213 870.948 223.304C870.736 223.395 870.572 223.518 870.454 223.674C870.337 223.825 870.278 224.015 870.278 224.242C870.278 224.571 870.397 224.823 870.636 224.998C870.878 225.168 871.185 225.253 871.556 225.253ZM879.849 224.248L879.855 221.344H880.207L883.002 218.032H885.781L882.025 222.418H881.451L879.849 224.248ZM877.656 226.759V215.123H880.076V226.759H877.656ZM883.11 226.759L880.542 222.958L882.156 221.248L885.946 226.759H883.11ZM886.968 226.759V218.032H889.389V226.759H886.968ZM888.184 216.907C887.824 216.907 887.516 216.787 887.258 216.549C887.004 216.306 886.877 216.016 886.877 215.679C886.877 215.346 887.004 215.06 887.258 214.821C887.516 214.579 887.824 214.458 888.184 214.458C888.544 214.458 888.851 214.579 889.105 214.821C889.362 215.06 889.491 215.346 889.491 215.679C889.491 216.016 889.362 216.306 889.105 216.549C888.851 216.787 888.544 216.907 888.184 216.907ZM896.765 221.02V222.941H891.458V221.02H896.765ZM901.248 215.123V226.759H898.828V215.123H901.248ZM905.676 226.924C905.119 226.924 904.623 226.827 904.187 226.634C903.751 226.437 903.407 226.147 903.153 225.765C902.903 225.378 902.778 224.897 902.778 224.321C902.778 223.837 902.867 223.429 903.045 223.1C903.223 222.77 903.466 222.505 903.772 222.304C904.079 222.104 904.428 221.952 904.818 221.85C905.212 221.748 905.625 221.676 906.056 221.634C906.564 221.581 906.973 221.532 907.284 221.486C907.594 221.437 907.82 221.365 907.96 221.27C908.1 221.176 908.17 221.035 908.17 220.85V220.816C908.17 220.456 908.056 220.177 907.829 219.981C907.606 219.784 907.287 219.685 906.875 219.685C906.439 219.685 906.092 219.782 905.835 219.975C905.577 220.164 905.407 220.403 905.323 220.691L903.085 220.509C903.198 219.979 903.422 219.52 903.755 219.134C904.089 218.744 904.519 218.445 905.045 218.236C905.575 218.024 906.189 217.918 906.886 217.918C907.371 217.918 907.835 217.975 908.278 218.088C908.725 218.202 909.121 218.378 909.466 218.617C909.814 218.856 910.089 219.162 910.289 219.537C910.49 219.909 910.591 220.354 910.591 220.873V226.759H908.295V225.549H908.227C908.087 225.821 907.899 226.062 907.664 226.27C907.43 226.475 907.147 226.636 906.818 226.753C906.488 226.867 906.108 226.924 905.676 226.924ZM906.369 225.253C906.725 225.253 907.039 225.183 907.312 225.043C907.585 224.899 907.799 224.706 907.954 224.463C908.109 224.221 908.187 223.946 908.187 223.64V222.713C908.111 222.763 908.007 222.808 907.875 222.85C907.746 222.888 907.6 222.924 907.437 222.958C907.274 222.988 907.111 223.016 906.948 223.043C906.786 223.066 906.638 223.087 906.505 223.106C906.221 223.147 905.973 223.213 905.761 223.304C905.549 223.395 905.384 223.518 905.267 223.674C905.149 223.825 905.091 224.015 905.091 224.242C905.091 224.571 905.21 224.823 905.448 224.998C905.691 225.168 905.998 225.253 906.369 225.253ZM914.662 224.248L914.667 221.344H915.019L917.815 218.032H920.593L916.838 222.418H916.264L914.662 224.248ZM912.468 226.759V215.123H914.889V226.759H912.468ZM917.923 226.759L915.355 222.958L916.968 221.248L920.758 226.759H917.923ZM921.781 226.759V218.032H924.201V226.759H921.781ZM922.997 216.907C922.637 216.907 922.328 216.787 922.071 216.549C921.817 216.306 921.69 216.016 921.69 215.679C921.69 215.346 921.817 215.06 922.071 214.821C922.328 214.579 922.637 214.458 922.997 214.458C923.357 214.458 923.663 214.579 923.917 214.821C924.175 215.06 924.304 215.346 924.304 215.679C924.304 216.016 924.175 216.306 923.917 216.549C923.663 216.787 923.357 216.907 922.997 216.907Z" fill="white"/>
<path d="M25.6676 85.8786V74.2422H30.2585C31.1373 74.2422 31.8873 74.3994 32.5085 74.7138C33.1335 75.0244 33.6089 75.4657 33.9347 76.0377C34.2642 76.6059 34.429 77.2744 34.429 78.0434C34.429 78.8161 34.2623 79.4809 33.929 80.0377C33.5956 80.5907 33.1127 81.015 32.4801 81.3104C31.8513 81.6059 31.09 81.7536 30.196 81.7536H27.1222V79.7763H29.7983C30.268 79.7763 30.6581 79.7119 30.9688 79.5831C31.2794 79.4544 31.5104 79.2612 31.6619 79.0036C31.8172 78.746 31.8949 78.4259 31.8949 78.0434C31.8949 77.657 31.8172 77.3313 31.6619 77.0661C31.5104 76.8009 31.2775 76.6002 30.9631 76.4638C30.6525 76.3237 30.2604 76.2536 29.7869 76.2536H28.1278V85.8786H25.6676ZM31.9517 80.5831L34.8438 85.8786H32.1278L29.2983 80.5831H31.9517ZM41.7188 82.1627V77.1513H44.1392V85.8786H41.8153V84.2934H41.7244C41.5275 84.8047 41.1998 85.2157 40.7415 85.5263C40.2869 85.8369 39.732 85.9922 39.0767 85.9922C38.4934 85.9922 37.9801 85.8597 37.5369 85.5945C37.0938 85.3294 36.7472 84.9525 36.4972 84.4638C36.2509 83.9752 36.1259 83.39 36.1222 82.7081V77.1513H38.5426V82.2763C38.5464 82.7915 38.6847 83.1987 38.9574 83.4979C39.2301 83.7972 39.5956 83.9468 40.054 83.9468C40.3456 83.9468 40.6184 83.8805 40.8722 83.7479C41.1259 83.6116 41.3305 83.4108 41.4858 83.1456C41.6449 82.8805 41.7225 82.5528 41.7188 82.1627ZM48.5639 86.0434C48.0071 86.0434 47.5109 85.9468 47.0753 85.7536C46.6397 85.5566 46.295 85.2669 46.0412 84.8843C45.7912 84.4979 45.6662 84.0169 45.6662 83.4411C45.6662 82.9563 45.7552 82.5491 45.9332 82.2195C46.1113 81.89 46.3537 81.6248 46.6605 81.4241C46.9673 81.2233 47.3158 81.0718 47.706 80.9695C48.0999 80.8672 48.5128 80.7953 48.9446 80.7536C49.4522 80.7006 49.8613 80.6513 50.1719 80.6059C50.4825 80.5566 50.7079 80.4847 50.848 80.39C50.9882 80.2953 51.0582 80.1551 51.0582 79.9695V79.9354C51.0582 79.5756 50.9446 79.2972 50.7173 79.1002C50.4938 78.9032 50.1757 78.8047 49.7628 78.8047C49.3272 78.8047 48.9806 78.9013 48.723 79.0945C48.4654 79.2839 48.295 79.5225 48.2116 79.8104L45.973 79.6286C46.0866 79.0983 46.3101 78.64 46.6435 78.2536C46.9768 77.8634 47.4067 77.5642 47.9332 77.3559C48.4635 77.1438 49.0772 77.0377 49.7741 77.0377C50.259 77.0377 50.723 77.0945 51.1662 77.2081C51.6132 77.3218 52.009 77.4979 52.3537 77.7366C52.7022 77.9752 52.9768 78.282 53.1776 78.657C53.3783 79.0282 53.4787 79.4733 53.4787 79.9922V85.8786H51.1832V84.6684H51.1151C50.9749 84.9411 50.7874 85.1816 50.5526 85.39C50.3177 85.5945 50.0355 85.7555 49.706 85.8729C49.3764 85.9866 48.9957 86.0434 48.5639 86.0434ZM49.2571 84.3729C49.6132 84.3729 49.9276 84.3028 50.2003 84.1627C50.473 84.0188 50.687 83.8256 50.8423 83.5831C50.9976 83.3407 51.0753 83.0661 51.0753 82.7593V81.8331C50.9995 81.8824 50.8954 81.9278 50.7628 81.9695C50.634 82.0074 50.4882 82.0434 50.3253 82.0775C50.1624 82.1078 49.9995 82.1362 49.8366 82.1627C49.6738 82.1854 49.526 82.2063 49.3935 82.2252C49.1094 82.2669 48.8613 82.3331 48.6491 82.4241C48.437 82.515 48.2723 82.6381 48.1548 82.7934C48.0374 82.9449 47.9787 83.1343 47.9787 83.3616C47.9787 83.6911 48.098 83.943 48.3366 84.1172C48.5791 84.2877 48.8859 84.3729 49.2571 84.3729ZM57.777 80.8331V85.8786H55.3565V77.1513H57.6634V78.6911H57.7656C57.9588 78.1835 58.2827 77.782 58.7372 77.4866C59.1918 77.1873 59.7429 77.0377 60.3906 77.0377C60.9967 77.0377 61.5251 77.1703 61.9759 77.4354C62.4266 77.7006 62.777 78.0794 63.027 78.5718C63.277 79.0604 63.402 79.6438 63.402 80.3218V85.8786H60.9815V80.7536C60.9853 80.2195 60.849 79.8028 60.5724 79.5036C60.2959 79.2006 59.9152 79.0491 59.4304 79.0491C59.1046 79.0491 58.8168 79.1191 58.5668 79.2593C58.3205 79.3994 58.1274 79.604 57.9872 79.8729C57.8509 80.1381 57.7808 80.4581 57.777 80.8331ZM69.2415 89.3331C68.4574 89.3331 67.785 89.2252 67.2244 89.0093C66.6676 88.7972 66.2244 88.5074 65.8949 88.14C65.5653 87.7725 65.3513 87.3597 65.2528 86.9013L67.4915 86.6002C67.5597 86.7744 67.6676 86.9373 67.8153 87.0888C67.9631 87.2403 68.1581 87.3616 68.4006 87.4525C68.6468 87.5472 68.946 87.5945 69.2983 87.5945C69.8248 87.5945 70.2585 87.4657 70.5994 87.2081C70.9441 86.9544 71.1165 86.5282 71.1165 85.9297V84.3331H71.0142C70.9081 84.5756 70.7491 84.8047 70.5369 85.0206C70.3248 85.2366 70.0521 85.4127 69.7188 85.5491C69.3854 85.6854 68.9877 85.7536 68.5256 85.7536C67.8703 85.7536 67.2737 85.6021 66.7358 85.2991C66.2017 84.9922 65.7756 84.5244 65.4574 83.8956C65.143 83.2631 64.9858 82.4638 64.9858 81.4979C64.9858 80.5093 65.1468 79.6835 65.4688 79.0206C65.7907 78.3578 66.2188 77.8616 66.7528 77.532C67.2907 77.2025 67.8797 77.0377 68.5199 77.0377C69.0085 77.0377 69.4176 77.121 69.7472 77.2877C70.0767 77.4506 70.3419 77.6551 70.5426 77.9013C70.7472 78.1438 70.9044 78.3824 71.0142 78.6172H71.1051V77.1513H73.5085V85.9638C73.5085 86.7063 73.3267 87.3275 72.9631 87.8275C72.5994 88.3275 72.0956 88.7025 71.4517 88.9525C70.8116 89.2063 70.0748 89.3331 69.2415 89.3331ZM69.2926 83.9354C69.6828 83.9354 70.0123 83.8388 70.2812 83.6456C70.554 83.4487 70.7623 83.1684 70.9062 82.8047C71.054 82.4373 71.1278 81.9979 71.1278 81.4866C71.1278 80.9752 71.0559 80.532 70.9119 80.157C70.768 79.7782 70.5597 79.4847 70.2869 79.2763C70.0142 79.068 69.6828 78.9638 69.2926 78.9638C68.8949 78.9638 68.5597 79.0718 68.2869 79.2877C68.0142 79.4998 67.8078 79.7953 67.6676 80.1741C67.5275 80.5528 67.4574 80.9903 67.4574 81.4866C67.4574 81.9903 67.5275 82.4259 67.6676 82.7934C67.8116 83.157 68.018 83.4392 68.2869 83.64C68.5597 83.8369 68.8949 83.9354 69.2926 83.9354ZM25.6676 109.879V98.2422H28.1278V103.043H33.1222V98.2422H35.5767V109.879H33.1222V105.072H28.1278V109.879H25.6676ZM43.1562 106.163V101.151H45.5767V109.879H43.2528V108.293H43.1619C42.965 108.805 42.6373 109.216 42.179 109.526C41.7244 109.837 41.1695 109.992 40.5142 109.992C39.9309 109.992 39.4176 109.86 38.9744 109.595C38.5313 109.329 38.1847 108.952 37.9347 108.464C37.6884 107.975 37.5634 107.39 37.5597 106.708V101.151H39.9801V106.276C39.9839 106.791 40.1222 107.199 40.3949 107.498C40.6676 107.797 41.0331 107.947 41.4915 107.947C41.7831 107.947 42.0559 107.88 42.3097 107.748C42.5634 107.612 42.768 107.411 42.9233 107.146C43.0824 106.88 43.16 106.553 43.1562 106.163ZM49.706 107.367L49.7116 104.464H50.0639L52.8594 101.151H55.6378L51.8821 105.538H51.3082L49.706 107.367ZM47.5128 109.879V98.2422H49.9332V109.879H47.5128ZM52.9673 109.879L50.3991 106.077L52.0128 104.367L55.8026 109.879H52.9673ZM62.4219 106.163V101.151H64.8423V109.879H62.5185V108.293H62.4276C62.2306 108.805 61.9029 109.216 61.4446 109.526C60.9901 109.837 60.4351 109.992 59.7798 109.992C59.1965 109.992 58.6832 109.86 58.2401 109.595C57.7969 109.329 57.4503 108.952 57.2003 108.464C56.9541 107.975 56.8291 107.39 56.8253 106.708V101.151H59.2457V106.276C59.2495 106.791 59.3878 107.199 59.6605 107.498C59.9332 107.797 60.2988 107.947 60.7571 107.947C61.0488 107.947 61.3215 107.88 61.5753 107.748C61.8291 107.612 62.0336 107.411 62.1889 107.146C62.348 106.88 62.4257 106.553 62.4219 106.163ZM66.7784 109.879V101.151H69.0852V102.691H69.1875C69.3693 102.18 69.6723 101.776 70.0966 101.481C70.5208 101.185 71.0284 101.038 71.6193 101.038C72.2178 101.038 72.7273 101.187 73.1477 101.487C73.5682 101.782 73.8485 102.184 73.9886 102.691H74.0795C74.2576 102.191 74.5795 101.791 75.0455 101.492C75.5152 101.189 76.0701 101.038 76.7102 101.038C77.5246 101.038 78.1856 101.297 78.6932 101.816C79.2045 102.331 79.4602 103.062 79.4602 104.009V109.879H77.0455V104.487C77.0455 104.002 76.9167 103.638 76.6591 103.396C76.4015 103.153 76.0795 103.032 75.6932 103.032C75.2538 103.032 74.911 103.172 74.6648 103.452C74.4186 103.729 74.2955 104.095 74.2955 104.549V109.879H71.9489V104.435C71.9489 104.007 71.8258 103.666 71.5795 103.413C71.3371 103.159 71.017 103.032 70.6193 103.032C70.3504 103.032 70.108 103.1 69.892 103.237C69.6799 103.369 69.5114 103.557 69.3864 103.799C69.2614 104.038 69.1989 104.318 69.1989 104.64V109.879H66.7784ZM84.6776 100.271V98.2422H94.2344V100.271H90.6719V109.879H88.2401V100.271H84.6776ZM97.0639 110.043C96.5071 110.043 96.0109 109.947 95.5753 109.754C95.1397 109.557 94.795 109.267 94.5412 108.884C94.2912 108.498 94.1662 108.017 94.1662 107.441C94.1662 106.956 94.2552 106.549 94.4332 106.22C94.6113 105.89 94.8537 105.625 95.1605 105.424C95.4673 105.223 95.8158 105.072 96.206 104.97C96.5999 104.867 97.0128 104.795 97.4446 104.754C97.9522 104.701 98.3613 104.651 98.6719 104.606C98.9825 104.557 99.2079 104.485 99.348 104.39C99.4882 104.295 99.5582 104.155 99.5582 103.97V103.935C99.5582 103.576 99.4446 103.297 99.2173 103.1C98.9938 102.903 98.6757 102.805 98.2628 102.805C97.8272 102.805 97.4806 102.901 97.223 103.095C96.9654 103.284 96.795 103.523 96.7116 103.81L94.473 103.629C94.5866 103.098 94.8101 102.64 95.1435 102.254C95.4768 101.863 95.9067 101.564 96.4332 101.356C96.9635 101.144 97.5772 101.038 98.2741 101.038C98.759 101.038 99.223 101.095 99.6662 101.208C100.113 101.322 100.509 101.498 100.854 101.737C101.202 101.975 101.477 102.282 101.678 102.657C101.878 103.028 101.979 103.473 101.979 103.992V109.879H99.6832V108.668H99.6151C99.4749 108.941 99.2874 109.182 99.0526 109.39C98.8177 109.595 98.5355 109.755 98.206 109.873C97.8764 109.987 97.4957 110.043 97.0639 110.043ZM97.7571 108.373C98.1132 108.373 98.4276 108.303 98.7003 108.163C98.973 108.019 99.187 107.826 99.3423 107.583C99.4976 107.341 99.5753 107.066 99.5753 106.759V105.833C99.4995 105.882 99.3954 105.928 99.2628 105.97C99.134 106.007 98.9882 106.043 98.8253 106.077C98.6624 106.108 98.4995 106.136 98.3366 106.163C98.1738 106.185 98.026 106.206 97.8935 106.225C97.6094 106.267 97.3613 106.333 97.1491 106.424C96.937 106.515 96.7723 106.638 96.6548 106.793C96.5374 106.945 96.4787 107.134 96.4787 107.362C96.4787 107.691 96.598 107.943 96.8366 108.117C97.0791 108.288 97.3859 108.373 97.7571 108.373ZM108.499 101.151V102.97H103.243V101.151H108.499ZM104.436 99.0604H106.857V107.197C106.857 107.42 106.891 107.595 106.959 107.72C107.027 107.841 107.122 107.926 107.243 107.975C107.368 108.024 107.512 108.049 107.675 108.049C107.788 108.049 107.902 108.04 108.016 108.021C108.129 107.998 108.216 107.981 108.277 107.97L108.658 109.771C108.536 109.809 108.366 109.852 108.146 109.901C107.927 109.954 107.66 109.987 107.345 109.998C106.762 110.021 106.25 109.943 105.811 109.765C105.375 109.587 105.036 109.31 104.794 108.935C104.552 108.56 104.432 108.087 104.436 107.515V99.0604ZM112.564 110.043C112.007 110.043 111.511 109.947 111.075 109.754C110.64 109.557 110.295 109.267 110.041 108.884C109.791 108.498 109.666 108.017 109.666 107.441C109.666 106.956 109.755 106.549 109.933 106.22C110.111 105.89 110.354 105.625 110.661 105.424C110.967 105.223 111.316 105.072 111.706 104.97C112.1 104.867 112.513 104.795 112.945 104.754C113.452 104.701 113.861 104.651 114.172 104.606C114.482 104.557 114.708 104.485 114.848 104.39C114.988 104.295 115.058 104.155 115.058 103.97V103.935C115.058 103.576 114.945 103.297 114.717 103.1C114.494 102.903 114.176 102.805 113.763 102.805C113.327 102.805 112.981 102.901 112.723 103.095C112.465 103.284 112.295 103.523 112.212 103.81L109.973 103.629C110.087 103.098 110.31 102.64 110.643 102.254C110.977 101.863 111.407 101.564 111.933 101.356C112.464 101.144 113.077 101.038 113.774 101.038C114.259 101.038 114.723 101.095 115.166 101.208C115.613 101.322 116.009 101.498 116.354 101.737C116.702 101.975 116.977 102.282 117.178 102.657C117.378 103.028 117.479 103.473 117.479 103.992V109.879H115.183V108.668H115.115C114.975 108.941 114.787 109.182 114.553 109.39C114.318 109.595 114.036 109.755 113.706 109.873C113.376 109.987 112.996 110.043 112.564 110.043ZM113.257 108.373C113.613 108.373 113.928 108.303 114.2 108.163C114.473 108.019 114.687 107.826 114.842 107.583C114.998 107.341 115.075 107.066 115.075 106.759V105.833C115 105.882 114.895 105.928 114.763 105.97C114.634 106.007 114.488 106.043 114.325 106.077C114.162 106.108 114 106.136 113.837 106.163C113.674 106.185 113.526 106.206 113.393 106.225C113.109 106.267 112.861 106.333 112.649 106.424C112.437 106.515 112.272 106.638 112.155 106.793C112.037 106.945 111.979 107.134 111.979 107.362C111.979 107.691 112.098 107.943 112.337 108.117C112.579 108.288 112.886 108.373 113.257 108.373ZM25.6676 133.879V122.242H28.1278V131.85H33.1165V133.879H25.6676ZM37.1889 134.043C36.6321 134.043 36.1359 133.947 35.7003 133.754C35.2647 133.557 34.92 133.267 34.6662 132.884C34.4162 132.498 34.2912 132.017 34.2912 131.441C34.2912 130.956 34.3802 130.549 34.5582 130.22C34.7363 129.89 34.9787 129.625 35.2855 129.424C35.5923 129.223 35.9408 129.072 36.331 128.97C36.7249 128.867 37.1378 128.795 37.5696 128.754C38.0772 128.701 38.4863 128.651 38.7969 128.606C39.1075 128.557 39.3329 128.485 39.473 128.39C39.6132 128.295 39.6832 128.155 39.6832 127.97V127.935C39.6832 127.576 39.5696 127.297 39.3423 127.1C39.1188 126.903 38.8007 126.805 38.3878 126.805C37.9522 126.805 37.6056 126.901 37.348 127.095C37.0904 127.284 36.92 127.523 36.8366 127.81L34.598 127.629C34.7116 127.098 34.9351 126.64 35.2685 126.254C35.6018 125.863 36.0317 125.564 36.5582 125.356C37.0885 125.144 37.7022 125.038 38.3991 125.038C38.884 125.038 39.348 125.095 39.7912 125.208C40.2382 125.322 40.634 125.498 40.9787 125.737C41.3272 125.975 41.6018 126.282 41.8026 126.657C42.0033 127.028 42.1037 127.473 42.1037 127.992V133.879H39.8082V132.668H39.7401C39.5999 132.941 39.4124 133.182 39.1776 133.39C38.9427 133.595 38.6605 133.755 38.331 133.873C38.0014 133.987 37.6207 134.043 37.1889 134.043ZM37.8821 132.373C38.2382 132.373 38.5526 132.303 38.8253 132.163C39.098 132.019 39.312 131.826 39.4673 131.583C39.6226 131.341 39.7003 131.066 39.7003 130.759V129.833C39.6245 129.882 39.5204 129.928 39.3878 129.97C39.259 130.007 39.1132 130.043 38.9503 130.077C38.7874 130.108 38.6245 130.136 38.4616 130.163C38.2988 130.185 38.151 130.206 38.0185 130.225C37.7344 130.267 37.4863 130.333 37.2741 130.424C37.062 130.515 36.8973 130.638 36.7798 130.793C36.6624 130.945 36.6037 131.134 36.6037 131.362C36.6037 131.691 36.723 131.943 36.9616 132.117C37.2041 132.288 37.5109 132.373 37.8821 132.373ZM46.1747 131.367L46.1804 128.464H46.5327L49.3281 125.151H52.1065L48.3509 129.538H47.777L46.1747 131.367ZM43.9815 133.879V122.242H46.402V133.879H43.9815ZM49.4361 133.879L46.8679 130.077L48.4815 128.367L52.2713 133.879H49.4361ZM60.5554 127.64L58.3395 127.776C58.3016 127.587 58.2202 127.416 58.0952 127.265C57.9702 127.11 57.8054 126.987 57.6009 126.896C57.4001 126.801 57.1596 126.754 56.8793 126.754C56.5043 126.754 56.188 126.833 55.9304 126.992C55.6728 127.148 55.544 127.356 55.544 127.617C55.544 127.826 55.6274 128.002 55.794 128.146C55.9607 128.29 56.2467 128.405 56.652 128.492L58.2315 128.81C59.08 128.985 59.7126 129.265 60.1293 129.651C60.5459 130.038 60.7543 130.545 60.7543 131.174C60.7543 131.746 60.5857 132.248 60.2486 132.68C59.9152 133.112 59.4569 133.449 58.8736 133.691C58.294 133.93 57.6255 134.049 56.8679 134.049C55.7126 134.049 54.7921 133.809 54.1065 133.327C53.4247 132.843 53.0251 132.184 52.9077 131.35L55.2884 131.225C55.3603 131.577 55.5346 131.846 55.8111 132.032C56.0876 132.214 56.4418 132.305 56.8736 132.305C57.2978 132.305 57.6387 132.223 57.8963 132.06C58.1577 131.894 58.2902 131.68 58.294 131.418C58.2902 131.199 58.1974 131.019 58.0156 130.879C57.8338 130.735 57.5535 130.625 57.1747 130.549L55.6634 130.248C54.8111 130.077 54.1766 129.782 53.7599 129.362C53.3471 128.941 53.1406 128.405 53.1406 127.754C53.1406 127.193 53.2921 126.71 53.5952 126.305C53.902 125.899 54.3319 125.587 54.8849 125.367C55.4418 125.148 56.0933 125.038 56.8395 125.038C57.9418 125.038 58.8092 125.271 59.4418 125.737C60.0781 126.202 60.4493 126.837 60.5554 127.64ZM64.767 134.043C64.2102 134.043 63.714 133.947 63.2784 133.754C62.8428 133.557 62.4981 133.267 62.2443 132.884C61.9943 132.498 61.8693 132.017 61.8693 131.441C61.8693 130.956 61.9583 130.549 62.1364 130.22C62.3144 129.89 62.5568 129.625 62.8636 129.424C63.1705 129.223 63.5189 129.072 63.9091 128.97C64.303 128.867 64.7159 128.795 65.1477 128.754C65.6553 128.701 66.0644 128.651 66.375 128.606C66.6856 128.557 66.911 128.485 67.0511 128.39C67.1913 128.295 67.2614 128.155 67.2614 127.97V127.935C67.2614 127.576 67.1477 127.297 66.9205 127.1C66.697 126.903 66.3788 126.805 65.9659 126.805C65.5303 126.805 65.1837 126.901 64.9261 127.095C64.6686 127.284 64.4981 127.523 64.4148 127.81L62.1761 127.629C62.2898 127.098 62.5133 126.64 62.8466 126.254C63.1799 125.863 63.6098 125.564 64.1364 125.356C64.6667 125.144 65.2803 125.038 65.9773 125.038C66.4621 125.038 66.9261 125.095 67.3693 125.208C67.8163 125.322 68.2121 125.498 68.5568 125.737C68.9053 125.975 69.1799 126.282 69.3807 126.657C69.5814 127.028 69.6818 127.473 69.6818 127.992V133.879H67.3864V132.668H67.3182C67.178 132.941 66.9905 133.182 66.7557 133.39C66.5208 133.595 66.2386 133.755 65.9091 133.873C65.5795 133.987 65.1989 134.043 64.767 134.043ZM65.4602 132.373C65.8163 132.373 66.1307 132.303 66.4034 132.163C66.6761 132.019 66.8902 131.826 67.0455 131.583C67.2008 131.341 67.2784 131.066 67.2784 130.759V129.833C67.2027 129.882 67.0985 129.928 66.9659 129.97C66.8371 130.007 66.6913 130.043 66.5284 130.077C66.3655 130.108 66.2027 130.136 66.0398 130.163C65.8769 130.185 65.7292 130.206 65.5966 130.225C65.3125 130.267 65.0644 130.333 64.8523 130.424C64.6402 130.515 64.4754 130.638 64.358 130.793C64.2405 130.945 64.1818 131.134 64.1818 131.362C64.1818 131.691 64.3011 131.943 64.5398 132.117C64.7822 132.288 65.089 132.373 65.4602 132.373ZM73.9801 128.833V133.879H71.5597V125.151H73.8665V126.691H73.9688C74.1619 126.184 74.4858 125.782 74.9403 125.487C75.3949 125.187 75.946 125.038 76.5938 125.038C77.1998 125.038 77.7282 125.17 78.179 125.435C78.6297 125.701 78.9801 126.079 79.2301 126.572C79.4801 127.06 79.6051 127.644 79.6051 128.322V133.879H77.1847V128.754C77.1884 128.22 77.0521 127.803 76.7756 127.504C76.4991 127.201 76.1184 127.049 75.6335 127.049C75.3078 127.049 75.0199 127.119 74.7699 127.259C74.5237 127.399 74.3305 127.604 74.1903 127.873C74.054 128.138 73.9839 128.458 73.9801 128.833ZM84.0014 134.043C83.4446 134.043 82.9484 133.947 82.5128 133.754C82.0772 133.557 81.7325 133.267 81.4787 132.884C81.2287 132.498 81.1037 132.017 81.1037 131.441C81.1037 130.956 81.1927 130.549 81.3707 130.22C81.5488 129.89 81.7912 129.625 82.098 129.424C82.4048 129.223 82.7533 129.072 83.1435 128.97C83.5374 128.867 83.9503 128.795 84.3821 128.754C84.8897 128.701 85.2988 128.651 85.6094 128.606C85.92 128.557 86.1454 128.485 86.2855 128.39C86.4257 128.295 86.4957 128.155 86.4957 127.97V127.935C86.4957 127.576 86.3821 127.297 86.1548 127.1C85.9313 126.903 85.6132 126.805 85.2003 126.805C84.7647 126.805 84.4181 126.901 84.1605 127.095C83.9029 127.284 83.7325 127.523 83.6491 127.81L81.4105 127.629C81.5241 127.098 81.7476 126.64 82.081 126.254C82.4143 125.863 82.8442 125.564 83.3707 125.356C83.901 125.144 84.5147 125.038 85.2116 125.038C85.6965 125.038 86.1605 125.095 86.6037 125.208C87.0507 125.322 87.4465 125.498 87.7912 125.737C88.1397 125.975 88.4143 126.282 88.6151 126.657C88.8158 127.028 88.9162 127.473 88.9162 127.992V133.879H86.6207V132.668H86.5526C86.4124 132.941 86.2249 133.182 85.9901 133.39C85.7552 133.595 85.473 133.755 85.1435 133.873C84.8139 133.987 84.4332 134.043 84.0014 134.043ZM84.6946 132.373C85.0507 132.373 85.3651 132.303 85.6378 132.163C85.9105 132.019 86.1245 131.826 86.2798 131.583C86.4351 131.341 86.5128 131.066 86.5128 130.759V129.833C86.437 129.882 86.3329 129.928 86.2003 129.97C86.0715 130.007 85.9257 130.043 85.7628 130.077C85.5999 130.108 85.437 130.136 85.2741 130.163C85.1113 130.185 84.9635 130.206 84.831 130.225C84.5469 130.267 84.2988 130.333 84.0866 130.424C83.8745 130.515 83.7098 130.638 83.5923 130.793C83.4749 130.945 83.4162 131.134 83.4162 131.362C83.4162 131.691 83.5355 131.943 83.7741 132.117C84.0166 132.288 84.3234 132.373 84.6946 132.373Z" fill="white"/>
<path d="M21.6676 292.783V281.147H26.2585C27.1373 281.147 27.8873 281.304 28.5085 281.619C29.1335 281.929 29.6089 282.371 29.9347 282.943C30.2642 283.511 30.429 284.179 30.429 284.948C30.429 285.721 30.2623 286.386 29.929 286.943C29.5956 287.496 29.1127 287.92 28.4801 288.215C27.8513 288.511 27.09 288.658 26.196 288.658H23.1222V286.681H25.7983C26.268 286.681 26.6581 286.617 26.9688 286.488C27.2794 286.359 27.5104 286.166 27.6619 285.908C27.8172 285.651 27.8949 285.331 27.8949 284.948C27.8949 284.562 27.8172 284.236 27.6619 283.971C27.5104 283.706 27.2775 283.505 26.9631 283.369C26.6525 283.229 26.2604 283.158 25.7869 283.158H24.1278V292.783H21.6676ZM27.9517 287.488L30.8438 292.783H28.1278L25.2983 287.488H27.9517ZM37.7188 289.068V284.056H40.1392V292.783H37.8153V291.198H37.7244C37.5275 291.71 37.1998 292.121 36.7415 292.431C36.2869 292.742 35.732 292.897 35.0767 292.897C34.4934 292.897 33.9801 292.765 33.5369 292.499C33.0938 292.234 32.7472 291.857 32.4972 291.369C32.2509 290.88 32.1259 290.295 32.1222 289.613V284.056H34.5426V289.181C34.5464 289.696 34.6847 290.104 34.9574 290.403C35.2301 290.702 35.5956 290.852 36.054 290.852C36.3456 290.852 36.6184 290.785 36.8722 290.653C37.1259 290.516 37.3305 290.316 37.4858 290.05C37.6449 289.785 37.7225 289.458 37.7188 289.068ZM44.5639 292.948C44.0071 292.948 43.5109 292.852 43.0753 292.658C42.6397 292.461 42.295 292.172 42.0412 291.789C41.7912 291.403 41.6662 290.922 41.6662 290.346C41.6662 289.861 41.7552 289.454 41.9332 289.124C42.1113 288.795 42.3537 288.53 42.6605 288.329C42.9673 288.128 43.3158 287.977 43.706 287.874C44.0999 287.772 44.5128 287.7 44.9446 287.658C45.4522 287.605 45.8613 287.556 46.1719 287.511C46.4825 287.461 46.7079 287.39 46.848 287.295C46.9882 287.2 47.0582 287.06 47.0582 286.874V286.84C47.0582 286.48 46.9446 286.202 46.7173 286.005C46.4938 285.808 46.1757 285.71 45.7628 285.71C45.3272 285.71 44.9806 285.806 44.723 285.999C44.4654 286.189 44.295 286.427 44.2116 286.715L41.973 286.533C42.0866 286.003 42.3101 285.545 42.6435 285.158C42.9768 284.768 43.4067 284.469 43.9332 284.261C44.4635 284.049 45.0772 283.943 45.7741 283.943C46.259 283.943 46.723 283.999 47.1662 284.113C47.6132 284.227 48.009 284.403 48.3537 284.641C48.7022 284.88 48.9768 285.187 49.1776 285.562C49.3783 285.933 49.4787 286.378 49.4787 286.897V292.783H47.1832V291.573H47.1151C46.9749 291.846 46.7874 292.086 46.5526 292.295C46.3177 292.499 46.0355 292.66 45.706 292.778C45.3764 292.891 44.9957 292.948 44.5639 292.948ZM45.2571 291.278C45.6132 291.278 45.9276 291.208 46.2003 291.068C46.473 290.924 46.687 290.73 46.8423 290.488C46.9976 290.246 47.0753 289.971 47.0753 289.664V288.738C46.9995 288.787 46.8954 288.833 46.7628 288.874C46.634 288.912 46.4882 288.948 46.3253 288.982C46.1624 289.013 45.9995 289.041 45.8366 289.068C45.6738 289.09 45.526 289.111 45.3935 289.13C45.1094 289.172 44.8613 289.238 44.6491 289.329C44.437 289.42 44.2723 289.543 44.1548 289.698C44.0374 289.85 43.9787 290.039 43.9787 290.266C43.9787 290.596 44.098 290.848 44.3366 291.022C44.5791 291.193 44.8859 291.278 45.2571 291.278ZM53.777 287.738V292.783H51.3565V284.056H53.6634V285.596H53.7656C53.9588 285.088 54.2827 284.687 54.7372 284.391C55.1918 284.092 55.7429 283.943 56.3906 283.943C56.9967 283.943 57.5251 284.075 57.9759 284.34C58.4266 284.605 58.777 284.984 59.027 285.477C59.277 285.965 59.402 286.549 59.402 287.227V292.783H56.9815V287.658C56.9853 287.124 56.849 286.708 56.5724 286.408C56.2959 286.105 55.9152 285.954 55.4304 285.954C55.1046 285.954 54.8168 286.024 54.5668 286.164C54.3205 286.304 54.1274 286.509 53.9872 286.778C53.8509 287.043 53.7808 287.363 53.777 287.738ZM65.2415 296.238C64.4574 296.238 63.785 296.13 63.2244 295.914C62.6676 295.702 62.2244 295.412 61.8949 295.045C61.5653 294.677 61.3513 294.265 61.2528 293.806L63.4915 293.505C63.5597 293.679 63.6676 293.842 63.8153 293.994C63.9631 294.145 64.1581 294.266 64.4006 294.357C64.6468 294.452 64.946 294.499 65.2983 294.499C65.8248 294.499 66.2585 294.371 66.5994 294.113C66.9441 293.859 67.1165 293.433 67.1165 292.835V291.238H67.0142C66.9081 291.48 66.7491 291.71 66.5369 291.925C66.3248 292.141 66.0521 292.318 65.7188 292.454C65.3854 292.59 64.9877 292.658 64.5256 292.658C63.8703 292.658 63.2737 292.507 62.7358 292.204C62.2017 291.897 61.7756 291.429 61.4574 290.8C61.143 290.168 60.9858 289.369 60.9858 288.403C60.9858 287.414 61.1468 286.588 61.4688 285.925C61.7907 285.263 62.2188 284.766 62.7528 284.437C63.2907 284.107 63.8797 283.943 64.5199 283.943C65.0085 283.943 65.4176 284.026 65.7472 284.193C66.0767 284.355 66.3419 284.56 66.5426 284.806C66.7472 285.049 66.9044 285.287 67.0142 285.522H67.1051V284.056H69.5085V292.869C69.5085 293.611 69.3267 294.232 68.9631 294.732C68.5994 295.232 68.0956 295.607 67.4517 295.857C66.8116 296.111 66.0748 296.238 65.2415 296.238ZM65.2926 290.84C65.6828 290.84 66.0123 290.744 66.2812 290.55C66.554 290.354 66.7623 290.073 66.9062 289.71C67.054 289.342 67.1278 288.903 67.1278 288.391C67.1278 287.88 67.0559 287.437 66.9119 287.062C66.768 286.683 66.5597 286.39 66.2869 286.181C66.0142 285.973 65.6828 285.869 65.2926 285.869C64.8949 285.869 64.5597 285.977 64.2869 286.193C64.0142 286.405 63.8078 286.7 63.6676 287.079C63.5275 287.458 63.4574 287.895 63.4574 288.391C63.4574 288.895 63.5275 289.331 63.6676 289.698C63.8116 290.062 64.018 290.344 64.2869 290.545C64.5597 290.742 64.8949 290.84 65.2926 290.84ZM21.2244 307.175V305.147H30.7812V307.175H27.2188V316.783H24.7869V307.175H21.2244ZM31.4034 316.783V308.056H33.75V309.579H33.8409C34 309.037 34.267 308.628 34.642 308.352C35.017 308.071 35.4489 307.931 35.9375 307.931C36.0587 307.931 36.1894 307.939 36.3295 307.954C36.4697 307.969 36.5928 307.99 36.6989 308.016V310.164C36.5852 310.13 36.428 310.1 36.2273 310.073C36.0265 310.047 35.8428 310.033 35.6761 310.033C35.3201 310.033 35.0019 310.111 34.7216 310.266C34.4451 310.418 34.2254 310.63 34.0625 310.903C33.9034 311.175 33.8239 311.49 33.8239 311.846V316.783H31.4034ZM40.1889 316.948C39.6321 316.948 39.1359 316.852 38.7003 316.658C38.2647 316.461 37.92 316.172 37.6662 315.789C37.4162 315.403 37.2912 314.922 37.2912 314.346C37.2912 313.861 37.3802 313.454 37.5582 313.124C37.7363 312.795 37.9787 312.53 38.2855 312.329C38.5923 312.128 38.9408 311.977 39.331 311.874C39.7249 311.772 40.1378 311.7 40.5696 311.658C41.0772 311.605 41.4863 311.556 41.7969 311.511C42.1075 311.461 42.3329 311.39 42.473 311.295C42.6132 311.2 42.6832 311.06 42.6832 310.874V310.84C42.6832 310.48 42.5696 310.202 42.3423 310.005C42.1188 309.808 41.8007 309.71 41.3878 309.71C40.9522 309.71 40.6056 309.806 40.348 309.999C40.0904 310.189 39.92 310.427 39.8366 310.715L37.598 310.533C37.7116 310.003 37.9351 309.545 38.2685 309.158C38.6018 308.768 39.0317 308.469 39.5582 308.261C40.0885 308.049 40.7022 307.943 41.3991 307.943C41.884 307.943 42.348 307.999 42.7912 308.113C43.2382 308.227 43.634 308.403 43.9787 308.641C44.3272 308.88 44.6018 309.187 44.8026 309.562C45.0033 309.933 45.1037 310.378 45.1037 310.897V316.783H42.8082V315.573H42.7401C42.5999 315.846 42.4124 316.086 42.1776 316.295C41.9427 316.499 41.6605 316.66 41.331 316.778C41.0014 316.891 40.6207 316.948 40.1889 316.948ZM40.8821 315.278C41.2382 315.278 41.5526 315.208 41.8253 315.068C42.098 314.924 42.312 314.73 42.4673 314.488C42.6226 314.246 42.7003 313.971 42.7003 313.664V312.738C42.6245 312.787 42.5204 312.833 42.3878 312.874C42.259 312.912 42.1132 312.948 41.9503 312.982C41.7874 313.013 41.6245 313.041 41.4616 313.068C41.2988 313.09 41.151 313.111 41.0185 313.13C40.7344 313.172 40.4863 313.238 40.2741 313.329C40.062 313.42 39.8973 313.543 39.7798 313.698C39.6624 313.85 39.6037 314.039 39.6037 314.266C39.6037 314.596 39.723 314.848 39.9616 315.022C40.2041 315.193 40.5109 315.278 40.8821 315.278ZM49.402 311.738V316.783H46.9815V308.056H49.2884V309.596H49.3906C49.5838 309.088 49.9077 308.687 50.3622 308.391C50.8168 308.092 51.3679 307.943 52.0156 307.943C52.6217 307.943 53.1501 308.075 53.6009 308.34C54.0516 308.605 54.402 308.984 54.652 309.477C54.902 309.965 55.027 310.549 55.027 311.227V316.783H52.6065V311.658C52.6103 311.124 52.474 310.708 52.1974 310.408C51.9209 310.105 51.5402 309.954 51.0554 309.954C50.7296 309.954 50.4418 310.024 50.1918 310.164C49.9455 310.304 49.7524 310.509 49.6122 310.778C49.4759 311.043 49.4058 311.363 49.402 311.738ZM64.196 310.545L61.9801 310.681C61.9422 310.492 61.8608 310.321 61.7358 310.17C61.6108 310.015 61.446 309.891 61.2415 309.8C61.0407 309.706 60.8002 309.658 60.5199 309.658C60.1449 309.658 59.8286 309.738 59.571 309.897C59.3134 310.052 59.1847 310.261 59.1847 310.522C59.1847 310.73 59.268 310.907 59.4347 311.05C59.6013 311.194 59.8873 311.31 60.2926 311.397L61.8722 311.715C62.7206 311.89 63.3532 312.17 63.7699 312.556C64.1866 312.943 64.3949 313.45 64.3949 314.079C64.3949 314.651 64.2263 315.153 63.8892 315.585C63.5559 316.016 63.0975 316.354 62.5142 316.596C61.9347 316.835 61.2661 316.954 60.5085 316.954C59.3532 316.954 58.4328 316.713 57.7472 316.232C57.0653 315.747 56.6657 315.088 56.5483 314.255L58.929 314.13C59.0009 314.482 59.1752 314.751 59.4517 314.937C59.7282 315.119 60.0824 315.21 60.5142 315.21C60.9384 315.21 61.2794 315.128 61.5369 314.965C61.7983 314.799 61.9309 314.585 61.9347 314.323C61.9309 314.104 61.8381 313.924 61.6562 313.783C61.4744 313.64 61.1941 313.53 60.8153 313.454L59.304 313.153C58.4517 312.982 57.8172 312.687 57.4006 312.266C56.9877 311.846 56.7812 311.31 56.7812 310.658C56.7812 310.098 56.9328 309.615 57.2358 309.21C57.5426 308.804 57.9725 308.492 58.5256 308.272C59.0824 308.052 59.7339 307.943 60.4801 307.943C61.5824 307.943 62.4498 308.175 63.0824 308.641C63.7188 309.107 64.09 309.742 64.196 310.545ZM65.919 316.783V308.056H68.3395V316.783H65.919ZM67.1349 306.931C66.7751 306.931 66.4664 306.812 66.2088 306.573C65.955 306.331 65.8281 306.041 65.8281 305.704C65.8281 305.371 65.955 305.085 66.2088 304.846C66.4664 304.604 66.7751 304.482 67.1349 304.482C67.4948 304.482 67.8016 304.604 68.0554 304.846C68.313 305.085 68.4418 305.371 68.4418 305.704C68.4418 306.041 68.313 306.331 68.0554 306.573C67.8016 306.812 67.4948 306.931 67.1349 306.931ZM74.9205 308.056V309.874H69.6648V308.056H74.9205ZM70.858 305.965H73.2784V314.102C73.2784 314.325 73.3125 314.499 73.3807 314.624C73.4489 314.746 73.5436 314.831 73.6648 314.88C73.7898 314.929 73.9337 314.954 74.0966 314.954C74.2102 314.954 74.3239 314.944 74.4375 314.925C74.5511 314.903 74.6383 314.886 74.6989 314.874L75.0795 316.675C74.9583 316.713 74.7879 316.757 74.5682 316.806C74.3485 316.859 74.0814 316.891 73.767 316.903C73.1837 316.925 72.6723 316.848 72.233 316.67C71.7973 316.492 71.4583 316.215 71.2159 315.84C70.9735 315.465 70.8542 314.992 70.858 314.42V305.965ZM79.8026 307.175V305.147H89.3594V307.175H85.7969V316.783H83.3651V307.175H79.8026ZM92.1889 316.948C91.6321 316.948 91.1359 316.852 90.7003 316.658C90.2647 316.461 89.92 316.172 89.6662 315.789C89.4162 315.403 89.2912 314.922 89.2912 314.346C89.2912 313.861 89.3802 313.454 89.5582 313.124C89.7363 312.795 89.9787 312.53 90.2855 312.329C90.5923 312.128 90.9408 311.977 91.331 311.874C91.7249 311.772 92.1378 311.7 92.5696 311.658C93.0772 311.605 93.4863 311.556 93.7969 311.511C94.1075 311.461 94.3329 311.39 94.473 311.295C94.6132 311.2 94.6832 311.06 94.6832 310.874V310.84C94.6832 310.48 94.5696 310.202 94.3423 310.005C94.1188 309.808 93.8007 309.71 93.3878 309.71C92.9522 309.71 92.6056 309.806 92.348 309.999C92.0904 310.189 91.92 310.427 91.8366 310.715L89.598 310.533C89.7116 310.003 89.9351 309.545 90.2685 309.158C90.6018 308.768 91.0317 308.469 91.5582 308.261C92.0885 308.049 92.7022 307.943 93.3991 307.943C93.884 307.943 94.348 307.999 94.7912 308.113C95.2382 308.227 95.634 308.403 95.9787 308.641C96.3272 308.88 96.6018 309.187 96.8026 309.562C97.0033 309.933 97.1037 310.378 97.1037 310.897V316.783H94.8082V315.573H94.7401C94.5999 315.846 94.4124 316.086 94.1776 316.295C93.9427 316.499 93.6605 316.66 93.331 316.778C93.0014 316.891 92.6207 316.948 92.1889 316.948ZM92.8821 315.278C93.2382 315.278 93.5526 315.208 93.8253 315.068C94.098 314.924 94.312 314.73 94.4673 314.488C94.6226 314.246 94.7003 313.971 94.7003 313.664V312.738C94.6245 312.787 94.5204 312.833 94.3878 312.874C94.259 312.912 94.1132 312.948 93.9503 312.982C93.7874 313.013 93.6245 313.041 93.4616 313.068C93.2988 313.09 93.151 313.111 93.0185 313.13C92.7344 313.172 92.4863 313.238 92.2741 313.329C92.062 313.42 91.8973 313.543 91.7798 313.698C91.6624 313.85 91.6037 314.039 91.6037 314.266C91.6037 314.596 91.723 314.848 91.9616 315.022C92.2041 315.193 92.5109 315.278 92.8821 315.278ZM98.9815 316.783V308.056H101.288V309.596H101.391C101.572 309.085 101.875 308.681 102.3 308.386C102.724 308.09 103.232 307.943 103.822 307.943C104.421 307.943 104.93 308.092 105.351 308.391C105.771 308.687 106.052 309.088 106.192 309.596H106.283C106.461 309.096 106.783 308.696 107.249 308.397C107.718 308.094 108.273 307.943 108.913 307.943C109.728 307.943 110.389 308.202 110.896 308.721C111.408 309.236 111.663 309.967 111.663 310.914V316.783H109.249V311.391C109.249 310.907 109.12 310.543 108.862 310.3C108.605 310.058 108.283 309.937 107.896 309.937C107.457 309.937 107.114 310.077 106.868 310.357C106.622 310.634 106.499 310.999 106.499 311.454V316.783H104.152V311.34C104.152 310.912 104.029 310.571 103.783 310.318C103.54 310.064 103.22 309.937 102.822 309.937C102.554 309.937 102.311 310.005 102.095 310.141C101.883 310.274 101.714 310.461 101.589 310.704C101.464 310.943 101.402 311.223 101.402 311.545V316.783H98.9815ZM119.172 313.068V308.056H121.592V316.783H119.268V315.198H119.178C118.981 315.71 118.653 316.121 118.195 316.431C117.74 316.742 117.185 316.897 116.53 316.897C115.946 316.897 115.433 316.765 114.99 316.499C114.547 316.234 114.2 315.857 113.95 315.369C113.704 314.88 113.579 314.295 113.575 313.613V308.056H115.996V313.181C116 313.696 116.138 314.104 116.411 314.403C116.683 314.702 117.049 314.852 117.507 314.852C117.799 314.852 118.071 314.785 118.325 314.653C118.579 314.516 118.784 314.316 118.939 314.05C119.098 313.785 119.176 313.458 119.172 313.068Z" fill="white"/>
<path d="M383.201 249.96V232.505H386.891V246.917H394.374V249.96H383.201ZM400.483 250.207C399.648 250.207 398.904 250.062 398.25 249.772C397.597 249.477 397.08 249.042 396.699 248.468C396.324 247.889 396.136 247.167 396.136 246.303C396.136 245.576 396.27 244.965 396.537 244.471C396.804 243.977 397.168 243.579 397.628 243.278C398.088 242.977 398.611 242.749 399.196 242.596C399.787 242.443 400.406 242.335 401.054 242.272C401.815 242.193 402.429 242.119 402.895 242.051C403.361 241.977 403.699 241.869 403.909 241.727C404.119 241.585 404.225 241.374 404.225 241.096V241.045C404.225 240.505 404.054 240.087 403.713 239.792C403.378 239.497 402.901 239.349 402.281 239.349C401.628 239.349 401.108 239.494 400.722 239.784C400.335 240.068 400.08 240.426 399.955 240.857L396.597 240.585C396.767 239.789 397.102 239.102 397.602 238.522C398.102 237.937 398.747 237.488 399.537 237.176C400.333 236.857 401.253 236.698 402.298 236.698C403.026 236.698 403.722 236.784 404.386 236.954C405.057 237.124 405.651 237.389 406.168 237.747C406.69 238.105 407.102 238.565 407.404 239.127C407.705 239.684 407.855 240.352 407.855 241.13V249.96H404.412V248.144H404.31C404.1 248.553 403.818 248.914 403.466 249.227C403.114 249.534 402.69 249.775 402.196 249.951C401.702 250.122 401.131 250.207 400.483 250.207ZM401.523 247.701C402.057 247.701 402.529 247.596 402.938 247.386C403.347 247.17 403.668 246.88 403.901 246.516C404.134 246.153 404.25 245.741 404.25 245.281V243.891C404.136 243.965 403.98 244.034 403.781 244.096C403.588 244.153 403.369 244.207 403.125 244.258C402.881 244.303 402.636 244.346 402.392 244.386C402.148 244.42 401.926 244.451 401.727 244.48C401.301 244.542 400.929 244.641 400.611 244.778C400.293 244.914 400.046 245.099 399.869 245.332C399.693 245.559 399.605 245.843 399.605 246.184C399.605 246.678 399.784 247.056 400.142 247.318C400.506 247.573 400.966 247.701 401.523 247.701ZM414.303 242.391V249.96H410.672V236.869H414.132V239.178H414.286C414.575 238.417 415.061 237.815 415.743 237.372C416.425 236.923 417.252 236.698 418.223 236.698C419.132 236.698 419.925 236.897 420.601 237.295C421.277 237.693 421.803 238.261 422.178 238.999C422.553 239.732 422.74 240.607 422.74 241.624V249.96H419.11V242.272C419.115 241.471 418.911 240.846 418.496 240.397C418.081 239.943 417.51 239.715 416.783 239.715C416.294 239.715 415.862 239.82 415.487 240.031C415.118 240.241 414.828 240.548 414.618 240.951C414.413 241.349 414.308 241.829 414.303 242.391ZM432.565 236.869V239.596H424.681V236.869H432.565ZM426.471 233.732H430.102V245.937C430.102 246.272 430.153 246.534 430.255 246.721C430.357 246.903 430.499 247.031 430.681 247.105C430.869 247.178 431.085 247.215 431.329 247.215C431.499 247.215 431.67 247.201 431.84 247.173C432.011 247.139 432.141 247.113 432.232 247.096L432.803 249.798C432.622 249.855 432.366 249.92 432.036 249.994C431.707 250.073 431.306 250.122 430.835 250.139C429.96 250.173 429.193 250.056 428.534 249.789C427.88 249.522 427.372 249.107 427.008 248.545C426.644 247.982 426.465 247.272 426.471 246.414V233.732ZM438.663 250.207C437.828 250.207 437.083 250.062 436.43 249.772C435.776 249.477 435.259 249.042 434.879 248.468C434.504 247.889 434.316 247.167 434.316 246.303C434.316 245.576 434.45 244.965 434.717 244.471C434.984 243.977 435.347 243.579 435.808 243.278C436.268 242.977 436.791 242.749 437.376 242.596C437.967 242.443 438.586 242.335 439.234 242.272C439.995 242.193 440.609 242.119 441.075 242.051C441.541 241.977 441.879 241.869 442.089 241.727C442.299 241.585 442.404 241.374 442.404 241.096V241.045C442.404 240.505 442.234 240.087 441.893 239.792C441.558 239.497 441.08 239.349 440.461 239.349C439.808 239.349 439.288 239.494 438.901 239.784C438.515 240.068 438.259 240.426 438.134 240.857L434.776 240.585C434.947 239.789 435.282 239.102 435.782 238.522C436.282 237.937 436.927 237.488 437.717 237.176C438.512 236.857 439.433 236.698 440.478 236.698C441.205 236.698 441.901 236.784 442.566 236.954C443.237 237.124 443.83 237.389 444.347 237.747C444.87 238.105 445.282 238.565 445.583 239.127C445.884 239.684 446.035 240.352 446.035 241.13V249.96H442.592V248.144H442.489C442.279 248.553 441.998 248.914 441.646 249.227C441.293 249.534 440.87 249.775 440.376 249.951C439.882 250.122 439.311 250.207 438.663 250.207ZM439.703 247.701C440.237 247.701 440.708 247.596 441.117 247.386C441.526 247.17 441.847 246.88 442.08 246.516C442.313 246.153 442.43 245.741 442.43 245.281V243.891C442.316 243.965 442.16 244.034 441.961 244.096C441.768 244.153 441.549 244.207 441.305 244.258C441.061 244.303 440.816 244.346 440.572 244.386C440.328 244.42 440.106 244.451 439.907 244.48C439.481 244.542 439.109 244.641 438.791 244.778C438.472 244.914 438.225 245.099 438.049 245.332C437.873 245.559 437.785 245.843 437.785 246.184C437.785 246.678 437.964 247.056 438.322 247.318C438.686 247.573 439.146 247.701 439.703 247.701ZM448.852 249.96V236.869H452.482V249.96H448.852ZM450.676 235.181C450.136 235.181 449.673 235.002 449.286 234.644C448.906 234.281 448.715 233.846 448.715 233.34C448.715 232.84 448.906 232.411 449.286 232.053C449.673 231.69 450.136 231.508 450.676 231.508C451.215 231.508 451.676 231.69 452.056 232.053C452.443 232.411 452.636 232.84 452.636 233.34C452.636 233.846 452.443 234.281 452.056 234.644C451.676 235.002 451.215 235.181 450.676 235.181ZM468.505 232.505V249.96H464.815V236.008H464.712L460.715 238.514V235.241L465.036 232.505H468.505ZM489.884 238.147C489.765 237.732 489.597 237.366 489.382 237.048C489.166 236.724 488.901 236.451 488.589 236.23C488.282 236.002 487.93 235.829 487.532 235.71C487.14 235.59 486.705 235.531 486.228 235.531C485.336 235.531 484.552 235.752 483.876 236.195C483.205 236.639 482.683 237.284 482.308 238.13C481.933 238.971 481.745 239.999 481.745 241.215C481.745 242.431 481.93 243.465 482.299 244.318C482.668 245.17 483.191 245.82 483.867 246.269C484.543 246.712 485.342 246.934 486.262 246.934C487.097 246.934 487.811 246.786 488.401 246.491C488.998 246.19 489.453 245.766 489.765 245.221C490.083 244.676 490.242 244.031 490.242 243.286L490.992 243.397H486.492V240.619H493.796V242.818C493.796 244.352 493.472 245.67 492.825 246.772C492.177 247.869 491.285 248.715 490.149 249.312C489.012 249.903 487.711 250.198 486.245 250.198C484.609 250.198 483.171 249.837 481.933 249.116C480.694 248.389 479.728 247.357 479.035 246.022C478.347 244.681 478.004 243.09 478.004 241.249C478.004 239.835 478.208 238.573 478.617 237.465C479.032 236.352 479.612 235.409 480.356 234.636C481.1 233.863 481.967 233.275 482.955 232.872C483.944 232.468 485.015 232.266 486.168 232.266C487.157 232.266 488.078 232.411 488.93 232.701C489.782 232.985 490.538 233.389 491.197 233.911C491.862 234.434 492.404 235.056 492.825 235.778C493.245 236.494 493.515 237.284 493.634 238.147H489.884ZM502.466 250.215C501.119 250.215 499.96 249.943 498.989 249.397C498.023 248.846 497.279 248.068 496.756 247.062C496.233 246.051 495.972 244.855 495.972 243.474C495.972 242.127 496.233 240.945 496.756 239.928C497.279 238.911 498.014 238.119 498.963 237.551C499.918 236.982 501.037 236.698 502.321 236.698C503.185 236.698 503.989 236.837 504.733 237.116C505.483 237.389 506.136 237.801 506.693 238.352C507.256 238.903 507.693 239.596 508.006 240.431C508.318 241.261 508.475 242.232 508.475 243.346V244.343H497.421V242.093H505.057C505.057 241.57 504.943 241.107 504.716 240.704C504.489 240.301 504.173 239.985 503.77 239.758C503.372 239.525 502.909 239.409 502.381 239.409C501.83 239.409 501.341 239.536 500.915 239.792C500.494 240.042 500.165 240.38 499.926 240.806C499.688 241.227 499.565 241.695 499.56 242.212V244.352C499.56 244.999 499.679 245.559 499.918 246.031C500.162 246.502 500.506 246.866 500.949 247.122C501.392 247.377 501.918 247.505 502.526 247.505C502.929 247.505 503.298 247.448 503.634 247.335C503.969 247.221 504.256 247.051 504.494 246.823C504.733 246.596 504.915 246.318 505.04 245.988L508.398 246.21C508.227 247.016 507.878 247.721 507.35 248.323C506.827 248.92 506.151 249.386 505.321 249.721C504.497 250.051 503.546 250.215 502.466 250.215ZM515.668 250.173C514.673 250.173 513.773 249.917 512.966 249.406C512.165 248.889 511.529 248.13 511.057 247.13C510.591 246.124 510.358 244.891 510.358 243.431C510.358 241.931 510.6 240.684 511.083 239.69C511.565 238.69 512.208 237.943 513.009 237.448C513.815 236.948 514.699 236.698 515.659 236.698C516.392 236.698 517.003 236.823 517.492 237.073C517.986 237.318 518.384 237.624 518.685 237.994C518.992 238.357 519.225 238.715 519.384 239.068H519.494V232.505H523.117V249.96H519.537V247.863H519.384C519.213 248.227 518.972 248.587 518.659 248.945C518.352 249.298 517.952 249.59 517.458 249.823C516.969 250.056 516.372 250.173 515.668 250.173ZM516.818 247.284C517.404 247.284 517.898 247.124 518.301 246.806C518.71 246.482 519.023 246.031 519.239 245.451C519.46 244.872 519.571 244.193 519.571 243.414C519.571 242.636 519.463 241.96 519.247 241.386C519.031 240.812 518.719 240.369 518.31 240.056C517.901 239.744 517.404 239.587 516.818 239.587C516.222 239.587 515.719 239.749 515.31 240.073C514.901 240.397 514.591 240.846 514.381 241.42C514.171 241.994 514.065 242.659 514.065 243.414C514.065 244.176 514.171 244.849 514.381 245.434C514.597 246.014 514.906 246.468 515.31 246.798C515.719 247.122 516.222 247.284 516.818 247.284ZM534.497 244.386V236.869H538.127V249.96H534.641V247.582H534.505C534.21 248.349 533.718 248.965 533.031 249.431C532.349 249.897 531.516 250.13 530.534 250.13C529.659 250.13 528.889 249.931 528.224 249.534C527.559 249.136 527.039 248.57 526.664 247.837C526.295 247.105 526.107 246.227 526.102 245.204V236.869H529.732V244.556C529.738 245.329 529.945 245.94 530.355 246.389C530.764 246.837 531.312 247.062 531.999 247.062C532.437 247.062 532.846 246.962 533.227 246.764C533.607 246.559 533.914 246.258 534.147 245.86C534.386 245.462 534.502 244.971 534.497 244.386ZM544.662 242.391V249.96H541.031V236.869H544.492V239.178H544.645C544.935 238.417 545.421 237.815 546.102 237.372C546.784 236.923 547.611 236.698 548.583 236.698C549.492 236.698 550.284 236.897 550.96 237.295C551.636 237.693 552.162 238.261 552.537 238.999C552.912 239.732 553.1 240.607 553.1 241.624V249.96H549.469V242.272C549.475 241.471 549.27 240.846 548.855 240.397C548.44 239.943 547.869 239.715 547.142 239.715C546.654 239.715 546.222 239.82 545.847 240.031C545.477 240.241 545.188 240.548 544.977 240.951C544.773 241.349 544.668 241.829 544.662 242.391ZM561.859 255.141C560.683 255.141 559.674 254.98 558.833 254.656C557.998 254.337 557.333 253.903 556.839 253.352C556.345 252.801 556.024 252.181 555.876 251.494L559.234 251.042C559.336 251.303 559.498 251.548 559.72 251.775C559.941 252.002 560.234 252.184 560.597 252.32C560.967 252.462 561.416 252.534 561.944 252.534C562.734 252.534 563.384 252.34 563.896 251.954C564.413 251.573 564.671 250.934 564.671 250.036V247.641H564.518C564.359 248.005 564.12 248.349 563.802 248.673C563.484 248.997 563.075 249.261 562.575 249.465C562.075 249.67 561.478 249.772 560.785 249.772C559.802 249.772 558.907 249.545 558.1 249.09C557.299 248.63 556.66 247.928 556.183 246.985C555.711 246.036 555.475 244.837 555.475 243.389C555.475 241.906 555.717 240.667 556.2 239.673C556.683 238.678 557.325 237.934 558.126 237.44C558.933 236.945 559.816 236.698 560.776 236.698C561.509 236.698 562.123 236.823 562.617 237.073C563.112 237.318 563.509 237.624 563.811 237.994C564.117 238.357 564.353 238.715 564.518 239.068H564.654V236.869H568.259V250.087C568.259 251.201 567.987 252.133 567.441 252.883C566.896 253.633 566.14 254.195 565.174 254.57C564.214 254.951 563.109 255.141 561.859 255.141ZM561.936 247.045C562.521 247.045 563.015 246.9 563.418 246.61C563.828 246.315 564.14 245.894 564.356 245.349C564.578 244.798 564.688 244.139 564.688 243.372C564.688 242.605 564.58 241.94 564.364 241.377C564.149 240.809 563.836 240.369 563.427 240.056C563.018 239.744 562.521 239.587 561.936 239.587C561.339 239.587 560.836 239.749 560.427 240.073C560.018 240.391 559.708 240.835 559.498 241.403C559.288 241.971 559.183 242.627 559.183 243.372C559.183 244.127 559.288 244.781 559.498 245.332C559.714 245.877 560.024 246.301 560.427 246.602C560.836 246.897 561.339 247.045 561.936 247.045ZM579.78 249.96H575.825L581.851 232.505H586.607L592.624 249.96H588.669L584.297 236.494H584.161L579.78 249.96ZM579.533 243.099H588.874V245.98H579.533V243.099Z" fill="white"/>
</svg>
