<svg width="992" height="381" viewBox="0 0 992 381" fill="none" xmlns="http://www.w3.org/2000/svg">
<path fill-rule="evenodd" clip-rule="evenodd" d="M144.771 127.649H0.317383V380.594H144.771V127.649Z" fill="#C6C6C6"/>
<path fill-rule="evenodd" clip-rule="evenodd" d="M833.732 127.649H149.449V380.594H991.377V290.681H836.071H833.732V287.617V127.649Z" fill="#C6C6C6"/>
<path d="M383.201 249.96V232.505H386.891V246.917H394.374V249.96H383.201ZM400.483 250.207C399.648 250.207 398.904 250.062 398.25 249.772C397.597 249.477 397.08 249.042 396.699 248.468C396.324 247.889 396.136 247.167 396.136 246.303C396.136 245.576 396.27 244.965 396.537 244.471C396.804 243.977 397.168 243.579 397.628 243.278C398.088 242.977 398.611 242.749 399.196 242.596C399.787 242.443 400.406 242.335 401.054 242.272C401.815 242.193 402.429 242.119 402.895 242.051C403.361 241.977 403.699 241.869 403.909 241.727C404.119 241.585 404.225 241.374 404.225 241.096V241.045C404.225 240.505 404.054 240.087 403.713 239.792C403.378 239.497 402.901 239.349 402.281 239.349C401.628 239.349 401.108 239.494 400.722 239.784C400.335 240.068 400.08 240.426 399.955 240.857L396.597 240.585C396.767 239.789 397.102 239.102 397.602 238.522C398.102 237.937 398.747 237.488 399.537 237.176C400.333 236.857 401.253 236.698 402.298 236.698C403.026 236.698 403.722 236.784 404.386 236.954C405.057 237.124 405.651 237.389 406.168 237.747C406.69 238.105 407.102 238.565 407.404 239.127C407.705 239.684 407.855 240.352 407.855 241.13V249.96H404.412V248.144H404.31C404.1 248.553 403.818 248.914 403.466 249.227C403.114 249.534 402.69 249.775 402.196 249.951C401.702 250.122 401.131 250.207 400.483 250.207ZM401.523 247.701C402.057 247.701 402.529 247.596 402.938 247.386C403.347 247.17 403.668 246.88 403.901 246.516C404.134 246.153 404.25 245.741 404.25 245.281V243.891C404.136 243.965 403.98 244.034 403.781 244.096C403.588 244.153 403.369 244.207 403.125 244.258C402.881 244.303 402.636 244.346 402.392 244.386C402.148 244.42 401.926 244.451 401.727 244.48C401.301 244.542 400.929 244.641 400.611 244.778C400.293 244.914 400.046 245.099 399.869 245.332C399.693 245.559 399.605 245.843 399.605 246.184C399.605 246.678 399.784 247.056 400.142 247.318C400.506 247.573 400.966 247.701 401.523 247.701ZM414.303 242.391V249.96H410.672V236.869H414.132V239.178H414.286C414.575 238.417 415.061 237.815 415.743 237.372C416.425 236.923 417.252 236.698 418.223 236.698C419.132 236.698 419.925 236.897 420.601 237.295C421.277 237.693 421.803 238.261 422.178 238.999C422.553 239.732 422.74 240.607 422.74 241.624V249.96H419.11V242.272C419.115 241.471 418.911 240.846 418.496 240.397C418.081 239.943 417.51 239.715 416.783 239.715C416.294 239.715 415.862 239.82 415.487 240.031C415.118 240.241 414.828 240.548 414.618 240.951C414.413 241.349 414.308 241.829 414.303 242.391ZM432.565 236.869V239.596H424.681V236.869H432.565ZM426.471 233.732H430.102V245.937C430.102 246.272 430.153 246.534 430.255 246.721C430.357 246.903 430.499 247.031 430.681 247.105C430.869 247.178 431.085 247.215 431.329 247.215C431.499 247.215 431.67 247.201 431.84 247.173C432.011 247.139 432.141 247.113 432.232 247.096L432.803 249.798C432.622 249.855 432.366 249.92 432.036 249.994C431.707 250.073 431.306 250.122 430.835 250.139C429.96 250.173 429.193 250.056 428.534 249.789C427.88 249.522 427.372 249.107 427.008 248.545C426.644 247.982 426.465 247.272 426.471 246.414V233.732ZM438.663 250.207C437.828 250.207 437.083 250.062 436.43 249.772C435.776 249.477 435.259 249.042 434.879 248.468C434.504 247.889 434.316 247.167 434.316 246.303C434.316 245.576 434.45 244.965 434.717 244.471C434.984 243.977 435.347 243.579 435.808 243.278C436.268 242.977 436.791 242.749 437.376 242.596C437.967 242.443 438.586 242.335 439.234 242.272C439.995 242.193 440.609 242.119 441.075 242.051C441.541 241.977 441.879 241.869 442.089 241.727C442.299 241.585 442.404 241.374 442.404 241.096V241.045C442.404 240.505 442.234 240.087 441.893 239.792C441.558 239.497 441.08 239.349 440.461 239.349C439.808 239.349 439.288 239.494 438.901 239.784C438.515 240.068 438.259 240.426 438.134 240.857L434.776 240.585C434.947 239.789 435.282 239.102 435.782 238.522C436.282 237.937 436.927 237.488 437.717 237.176C438.512 236.857 439.433 236.698 440.478 236.698C441.205 236.698 441.901 236.784 442.566 236.954C443.237 237.124 443.83 237.389 444.347 237.747C444.87 238.105 445.282 238.565 445.583 239.127C445.884 239.684 446.035 240.352 446.035 241.13V249.96H442.592V248.144H442.489C442.279 248.553 441.998 248.914 441.646 249.227C441.293 249.534 440.87 249.775 440.376 249.951C439.882 250.122 439.311 250.207 438.663 250.207ZM439.703 247.701C440.237 247.701 440.708 247.596 441.117 247.386C441.526 247.17 441.847 246.88 442.08 246.516C442.313 246.153 442.43 245.741 442.43 245.281V243.891C442.316 243.965 442.16 244.034 441.961 244.096C441.768 244.153 441.549 244.207 441.305 244.258C441.061 244.303 440.816 244.346 440.572 244.386C440.328 244.42 440.106 244.451 439.907 244.48C439.481 244.542 439.109 244.641 438.791 244.778C438.472 244.914 438.225 245.099 438.049 245.332C437.873 245.559 437.785 245.843 437.785 246.184C437.785 246.678 437.964 247.056 438.322 247.318C438.686 247.573 439.146 247.701 439.703 247.701ZM448.852 249.96V236.869H452.482V249.96H448.852ZM450.676 235.181C450.136 235.181 449.673 235.002 449.286 234.644C448.906 234.281 448.715 233.846 448.715 233.34C448.715 232.84 448.906 232.411 449.286 232.053C449.673 231.69 450.136 231.508 450.676 231.508C451.215 231.508 451.676 231.69 452.056 232.053C452.443 232.411 452.636 232.84 452.636 233.34C452.636 233.846 452.443 234.281 452.056 234.644C451.676 235.002 451.215 235.181 450.676 235.181ZM460.911 249.96V247.301L467.124 241.548C467.653 241.036 468.096 240.576 468.454 240.167C468.818 239.758 469.093 239.357 469.281 238.965C469.468 238.568 469.562 238.139 469.562 237.678C469.562 237.167 469.445 236.727 469.212 236.357C468.98 235.982 468.661 235.695 468.258 235.497C467.855 235.292 467.397 235.19 466.886 235.19C466.352 235.19 465.886 235.298 465.488 235.514C465.09 235.73 464.784 236.039 464.568 236.443C464.352 236.846 464.244 237.326 464.244 237.883H460.741C460.741 236.741 460.999 235.749 461.516 234.909C462.034 234.068 462.758 233.417 463.69 232.957C464.622 232.497 465.695 232.266 466.911 232.266C468.161 232.266 469.249 232.488 470.176 232.931C471.107 233.369 471.832 233.977 472.349 234.755C472.866 235.534 473.124 236.426 473.124 237.431C473.124 238.09 472.994 238.741 472.732 239.383C472.477 240.025 472.019 240.738 471.36 241.522C470.701 242.301 469.772 243.235 468.573 244.326L466.025 246.823V246.943H473.355V249.96H460.911ZM493.259 238.147C493.14 237.732 492.972 237.366 492.757 237.048C492.541 236.724 492.276 236.451 491.964 236.23C491.657 236.002 491.305 235.829 490.907 235.71C490.515 235.59 490.08 235.531 489.603 235.531C488.711 235.531 487.927 235.752 487.251 236.195C486.58 236.639 486.058 237.284 485.683 238.13C485.308 238.971 485.12 239.999 485.12 241.215C485.12 242.431 485.305 243.465 485.674 244.318C486.043 245.17 486.566 245.82 487.242 246.269C487.918 246.712 488.717 246.934 489.637 246.934C490.472 246.934 491.186 246.786 491.776 246.491C492.373 246.19 492.828 245.766 493.14 245.221C493.458 244.676 493.617 244.031 493.617 243.286L494.367 243.397H489.867V240.619H497.171V242.818C497.171 244.352 496.847 245.67 496.2 246.772C495.552 247.869 494.66 248.715 493.524 249.312C492.387 249.903 491.086 250.198 489.62 250.198C487.984 250.198 486.546 249.837 485.308 249.116C484.069 248.389 483.103 247.357 482.41 246.022C481.722 244.681 481.379 243.09 481.379 241.249C481.379 239.835 481.583 238.573 481.992 237.465C482.407 236.352 482.987 235.409 483.731 234.636C484.475 233.863 485.342 233.275 486.33 232.872C487.319 232.468 488.39 232.266 489.543 232.266C490.532 232.266 491.453 232.411 492.305 232.701C493.157 232.985 493.913 233.389 494.572 233.911C495.237 234.434 495.779 235.056 496.2 235.778C496.62 236.494 496.89 237.284 497.009 238.147H493.259ZM505.841 250.215C504.494 250.215 503.335 249.943 502.364 249.397C501.398 248.846 500.654 248.068 500.131 247.062C499.608 246.051 499.347 244.855 499.347 243.474C499.347 242.127 499.608 240.945 500.131 239.928C500.654 238.911 501.389 238.119 502.338 237.551C503.293 236.982 504.412 236.698 505.696 236.698C506.56 236.698 507.364 236.837 508.108 237.116C508.858 237.389 509.511 237.801 510.068 238.352C510.631 238.903 511.068 239.596 511.381 240.431C511.693 241.261 511.85 242.232 511.85 243.346V244.343H500.796V242.093H508.432C508.432 241.57 508.318 241.107 508.091 240.704C507.864 240.301 507.548 239.985 507.145 239.758C506.747 239.525 506.284 239.409 505.756 239.409C505.205 239.409 504.716 239.536 504.29 239.792C503.869 240.042 503.54 240.38 503.301 240.806C503.063 241.227 502.94 241.695 502.935 242.212V244.352C502.935 244.999 503.054 245.559 503.293 246.031C503.537 246.502 503.881 246.866 504.324 247.122C504.767 247.377 505.293 247.505 505.901 247.505C506.304 247.505 506.673 247.448 507.009 247.335C507.344 247.221 507.631 247.051 507.869 246.823C508.108 246.596 508.29 246.318 508.415 245.988L511.773 246.21C511.602 247.016 511.253 247.721 510.725 248.323C510.202 248.92 509.526 249.386 508.696 249.721C507.872 250.051 506.921 250.215 505.841 250.215ZM519.043 250.173C518.048 250.173 517.148 249.917 516.341 249.406C515.54 248.889 514.904 248.13 514.432 247.13C513.966 246.124 513.733 244.891 513.733 243.431C513.733 241.931 513.975 240.684 514.458 239.69C514.94 238.69 515.583 237.943 516.384 237.448C517.19 236.948 518.074 236.698 519.034 236.698C519.767 236.698 520.378 236.823 520.867 237.073C521.361 237.318 521.759 237.624 522.06 237.994C522.367 238.357 522.6 238.715 522.759 239.068H522.869V232.505H526.492V249.96H522.912V247.863H522.759C522.588 248.227 522.347 248.587 522.034 248.945C521.727 249.298 521.327 249.59 520.833 249.823C520.344 250.056 519.747 250.173 519.043 250.173ZM520.193 247.284C520.779 247.284 521.273 247.124 521.676 246.806C522.085 246.482 522.398 246.031 522.614 245.451C522.835 244.872 522.946 244.193 522.946 243.414C522.946 242.636 522.838 241.96 522.622 241.386C522.406 240.812 522.094 240.369 521.685 240.056C521.276 239.744 520.779 239.587 520.193 239.587C519.597 239.587 519.094 239.749 518.685 240.073C518.276 240.397 517.966 240.846 517.756 241.42C517.546 241.994 517.44 242.659 517.44 243.414C517.44 244.176 517.546 244.849 517.756 245.434C517.972 246.014 518.281 246.468 518.685 246.798C519.094 247.122 519.597 247.284 520.193 247.284ZM537.872 244.386V236.869H541.502V249.96H538.016V247.582H537.88C537.585 248.349 537.093 248.965 536.406 249.431C535.724 249.897 534.891 250.13 533.909 250.13C533.034 250.13 532.264 249.931 531.599 249.534C530.934 249.136 530.414 248.57 530.039 247.837C529.67 247.105 529.482 246.227 529.477 245.204V236.869H533.107V244.556C533.113 245.329 533.32 245.94 533.73 246.389C534.139 246.837 534.687 247.062 535.374 247.062C535.812 247.062 536.221 246.962 536.602 246.764C536.982 246.559 537.289 246.258 537.522 245.86C537.761 245.462 537.877 244.971 537.872 244.386ZM548.037 242.391V249.96H544.406V236.869H547.867V239.178H548.02C548.31 238.417 548.796 237.815 549.477 237.372C550.159 236.923 550.986 236.698 551.958 236.698C552.867 236.698 553.659 236.897 554.335 237.295C555.011 237.693 555.537 238.261 555.912 238.999C556.287 239.732 556.475 240.607 556.475 241.624V249.96H552.844V242.272C552.85 241.471 552.645 240.846 552.23 240.397C551.815 239.943 551.244 239.715 550.517 239.715C550.029 239.715 549.597 239.82 549.222 240.031C548.852 240.241 548.563 240.548 548.352 240.951C548.148 241.349 548.043 241.829 548.037 242.391ZM565.234 255.141C564.058 255.141 563.049 254.98 562.208 254.656C561.373 254.337 560.708 253.903 560.214 253.352C559.72 252.801 559.399 252.181 559.251 251.494L562.609 251.042C562.711 251.303 562.873 251.548 563.095 251.775C563.316 252.002 563.609 252.184 563.972 252.32C564.342 252.462 564.791 252.534 565.319 252.534C566.109 252.534 566.759 252.34 567.271 251.954C567.788 251.573 568.046 250.934 568.046 250.036V247.641H567.893C567.734 248.005 567.495 248.349 567.177 248.673C566.859 248.997 566.45 249.261 565.95 249.465C565.45 249.67 564.853 249.772 564.16 249.772C563.177 249.772 562.282 249.545 561.475 249.09C560.674 248.63 560.035 247.928 559.558 246.985C559.086 246.036 558.85 244.837 558.85 243.389C558.85 241.906 559.092 240.667 559.575 239.673C560.058 238.678 560.7 237.934 561.501 237.44C562.308 236.945 563.191 236.698 564.151 236.698C564.884 236.698 565.498 236.823 565.992 237.073C566.487 237.318 566.884 237.624 567.186 237.994C567.492 238.357 567.728 238.715 567.893 239.068H568.029V236.869H571.634V250.087C571.634 251.201 571.362 252.133 570.816 252.883C570.271 253.633 569.515 254.195 568.549 254.57C567.589 254.951 566.484 255.141 565.234 255.141ZM565.311 247.045C565.896 247.045 566.39 246.9 566.793 246.61C567.203 246.315 567.515 245.894 567.731 245.349C567.953 244.798 568.063 244.139 568.063 243.372C568.063 242.605 567.955 241.94 567.739 241.377C567.524 240.809 567.211 240.369 566.802 240.056C566.393 239.744 565.896 239.587 565.311 239.587C564.714 239.587 564.211 239.749 563.802 240.073C563.393 240.391 563.083 240.835 562.873 241.403C562.663 241.971 562.558 242.627 562.558 243.372C562.558 244.127 562.663 244.781 562.873 245.332C563.089 245.877 563.399 246.301 563.802 246.602C564.211 246.897 564.714 247.045 565.311 247.045ZM583.155 249.96H579.2L585.226 232.505H589.982L595.999 249.96H592.044L587.672 236.494H587.536L583.155 249.96ZM582.908 243.099H592.249V245.98H582.908V243.099Z" fill="white"/>
<path fill-rule="evenodd" clip-rule="evenodd" d="M991.378 102.444H838.41V284.552H991.378V102.444Z" fill="#C6C6C6"/>
<path fill-rule="evenodd" clip-rule="evenodd" d="M144.771 0.59436H0.317383V90.9363H144.771V0.59436Z" fill="#C6C6C6"/>
<path fill-rule="evenodd" clip-rule="evenodd" d="M399.763 0.59436H149.449V90.9363H399.763V84.6847V78.5556V67.8911V61.7621V51.0363V44.9073V34.2427V31.1782V28.1137V14.3234V11.2589V0.59436Z" fill="#C6C6C6"/>
<path fill-rule="evenodd" clip-rule="evenodd" d="M404.441 84.6847V90.9363H475.077V84.6847H404.441Z" fill="#C6C6C6"/>
<path fill-rule="evenodd" clip-rule="evenodd" d="M404.441 67.8911V78.5557H475.077V67.8911H404.441Z" fill="#C6C6C6"/>
<path fill-rule="evenodd" clip-rule="evenodd" d="M404.441 51.0363V61.7621H475.077V51.0363H404.441Z" fill="#C6C6C6"/>
<path fill-rule="evenodd" clip-rule="evenodd" d="M404.441 34.2427V44.9073H475.077V34.2427H404.441Z" fill="#C6C6C6"/>
<path fill-rule="evenodd" clip-rule="evenodd" d="M404.441 17.3879V28.1137H475.077V17.3879H404.441Z" fill="#C6C6C6"/>
<path fill-rule="evenodd" clip-rule="evenodd" d="M475.077 0.59436H404.441V11.2589H475.077V0.59436Z" fill="#C6C6C6"/>
<path fill-rule="evenodd" clip-rule="evenodd" d="M479.755 84.6847V90.9363H548.895V84.6847H479.755Z" fill="#C6C6C6"/>
<path fill-rule="evenodd" clip-rule="evenodd" d="M479.755 67.8911V78.5557H548.895V67.8911H479.755Z" fill="#C6C6C6"/>
<path fill-rule="evenodd" clip-rule="evenodd" d="M479.755 51.0363V61.7621H548.895V51.0363H479.755Z" fill="#C6C6C6"/>
<path fill-rule="evenodd" clip-rule="evenodd" d="M479.755 34.2427V44.9073H548.895V34.2427H479.755Z" fill="#C6C6C6"/>
<path fill-rule="evenodd" clip-rule="evenodd" d="M479.755 17.3879V28.1137H548.895V17.3879H479.755Z" fill="#C6C6C6"/>
<path fill-rule="evenodd" clip-rule="evenodd" d="M548.895 0.59436H479.755V11.2589H548.895V0.59436Z" fill="#C6C6C6"/>
<path fill-rule="evenodd" clip-rule="evenodd" d="M833.456 0.59436H553.468V11.2589V14.3234V28.1137V31.1782V34.2427V44.9073V51.0363V61.7621V67.8911V78.5556V84.6847V90.9363H833.456V0.59436Z" fill="#C6C6C6"/>
<path fill-rule="evenodd" clip-rule="evenodd" d="M833.456 97.0653H694.769H692.454H547.796H474.75H472.435H397.907H395.593H147.892H0.317383V121.52H833.456V97.0653Z" fill="#C6C6C6"/>
<path fill-rule="evenodd" clip-rule="evenodd" d="M991.378 0.59436H838.41V75.1112V77.556V97.0653H991.378V0.59436Z" fill="#C6C6C6"/>
<path d="M551.244 31.1782H402.102V31.1847H551.244V31.1782Z" fill="#C6C6C6"/>
<path d="M551.244 64.8266H402.102V64.833H551.244V64.8266Z" fill="#C6C6C6"/>
<path d="M551.244 81.6202H402.102V81.6266H551.244V81.6202Z" fill="#C6C6C6"/>
<path d="M30.5556 39.7653V28.129H35.1465C36.0253 28.129 36.7753 28.2862 37.3965 28.6006C38.0215 28.9112 38.4968 29.3525 38.8226 29.9244C39.1521 30.4926 39.3169 31.1612 39.3169 31.9301C39.3169 32.7028 39.1503 33.3676 38.8169 33.9244C38.4836 34.4775 38.0006 34.9017 37.3681 35.1972C36.7393 35.4926 35.9779 35.6403 35.084 35.6403H32.0101V33.6631H34.6862C35.1559 33.6631 35.5461 33.5987 35.8567 33.4699C36.1673 33.3411 36.3984 33.1479 36.5499 32.8903C36.7052 32.6328 36.7828 32.3127 36.7828 31.9301C36.7828 31.5437 36.7052 31.218 36.5499 30.9528C36.3984 30.6877 36.1654 30.4869 35.851 30.3506C35.5404 30.2104 35.1484 30.1403 34.6749 30.1403H33.0158V39.7653H30.5556ZM36.8396 34.4699L39.7317 39.7653H37.0158L34.1862 34.4699H36.8396ZM46.6067 36.0494V31.0381H49.0271V39.7653H46.7033V38.1801H46.6124C46.4154 38.6915 46.0878 39.1025 45.6294 39.4131C45.1749 39.7237 44.6199 39.879 43.9646 39.879C43.3813 39.879 42.8681 39.7464 42.4249 39.4812C41.9817 39.2161 41.6351 38.8392 41.3851 38.3506C41.1389 37.8619 41.0139 37.2767 41.0101 36.5949V31.0381H43.4306V36.1631C43.4343 36.6782 43.5726 37.0854 43.8453 37.3847C44.1181 37.6839 44.4836 37.8335 44.9419 37.8335C45.2336 37.8335 45.5063 37.7672 45.7601 37.6347C46.0139 37.4983 46.2184 37.2975 46.3737 37.0324C46.5328 36.7672 46.6105 36.4396 46.6067 36.0494ZM53.4519 39.9301C52.895 39.9301 52.3988 39.8335 51.9632 39.6403C51.5276 39.4434 51.1829 39.1536 50.9291 38.771C50.6791 38.3847 50.5541 37.9036 50.5541 37.3278C50.5541 36.843 50.6431 36.4358 50.8212 36.1062C50.9992 35.7767 51.2416 35.5115 51.5485 35.3108C51.8553 35.11 52.2038 34.9585 52.5939 34.8562C52.9878 34.754 53.4007 34.682 53.8325 34.6403C54.3401 34.5873 54.7492 34.5381 55.0598 34.4926C55.3704 34.4434 55.5958 34.3714 55.736 34.2767C55.8761 34.182 55.9462 34.0419 55.9462 33.8562V33.8222C55.9462 33.4623 55.8325 33.1839 55.6053 32.9869C55.3818 32.79 55.0636 32.6915 54.6507 32.6915C54.2151 32.6915 53.8685 32.7881 53.611 32.9812C53.3534 33.1706 53.1829 33.4093 53.0996 33.6972L50.861 33.5153C50.9746 32.985 51.1981 32.5267 51.5314 32.1403C51.8647 31.7502 52.2947 31.4509 52.8212 31.2426C53.3515 31.0305 53.9651 30.9244 54.6621 30.9244C55.1469 30.9244 55.611 30.9812 56.0541 31.0949C56.5011 31.2085 56.8969 31.3847 57.2416 31.6233C57.5901 31.8619 57.8647 32.1687 58.0655 32.5437C58.2663 32.915 58.3666 33.36 58.3666 33.879V39.7653H56.0712V38.5551H56.003C55.8628 38.8278 55.6753 39.0684 55.4405 39.2767C55.2056 39.4812 54.9235 39.6422 54.5939 39.7597C54.2644 39.8733 53.8837 39.9301 53.4519 39.9301ZM54.145 38.2597C54.5011 38.2597 54.8155 38.1896 55.0882 38.0494C55.361 37.9055 55.575 37.7123 55.7303 37.4699C55.8856 37.2275 55.9632 36.9528 55.9632 36.646V35.7199C55.8875 35.7691 55.7833 35.8146 55.6507 35.8562C55.5219 35.8941 55.3761 35.9301 55.2132 35.9642C55.0503 35.9945 54.8875 36.0229 54.7246 36.0494C54.5617 36.0722 54.414 36.093 54.2814 36.1119C53.9973 36.1536 53.7492 36.2199 53.5371 36.3108C53.325 36.4017 53.1602 36.5248 53.0428 36.6801C52.9253 36.8316 52.8666 37.021 52.8666 37.2483C52.8666 37.5778 52.986 37.8297 53.2246 38.004C53.467 38.1744 53.7738 38.2597 54.145 38.2597ZM62.6649 34.7199V39.7653H60.2445V31.0381H62.5513V32.5778H62.6536C62.8467 32.0703 63.1706 31.6687 63.6252 31.3733C64.0797 31.074 64.6308 30.9244 65.2786 30.9244C65.8846 30.9244 66.413 31.057 66.8638 31.3222C67.3145 31.5873 67.6649 31.9661 67.9149 32.4585C68.1649 32.9472 68.2899 33.5305 68.2899 34.2085V39.7653H65.8695V34.6403C65.8733 34.1062 65.7369 33.6896 65.4604 33.3903C65.1839 33.0873 64.8032 32.9358 64.3183 32.9358C63.9926 32.9358 63.7047 33.0059 63.4547 33.146C63.2085 33.2862 63.0153 33.4907 62.8752 33.7597C62.7388 34.0248 62.6687 34.3449 62.6649 34.7199ZM74.1294 43.2199C73.3453 43.2199 72.673 43.1119 72.1124 42.896C71.5556 42.6839 71.1124 42.3941 70.7828 42.0267C70.4533 41.6593 70.2393 41.2464 70.1408 40.7881L72.3794 40.4869C72.4476 40.6612 72.5556 40.824 72.7033 40.9756C72.851 41.1271 73.0461 41.2483 73.2885 41.3392C73.5347 41.4339 73.834 41.4812 74.1862 41.4812C74.7128 41.4812 75.1465 41.3525 75.4874 41.0949C75.8321 40.8411 76.0044 40.415 76.0044 39.8165V38.2199H75.9021C75.7961 38.4623 75.637 38.6915 75.4249 38.9074C75.2128 39.1233 74.94 39.2994 74.6067 39.4358C74.2734 39.5722 73.8756 39.6403 73.4135 39.6403C72.7582 39.6403 72.1616 39.4888 71.6237 39.1858C71.0896 38.879 70.6635 38.4112 70.3453 37.7824C70.0309 37.1498 69.8737 36.3506 69.8737 35.3847C69.8737 34.396 70.0347 33.5703 70.3567 32.9074C70.6787 32.2445 71.1067 31.7483 71.6408 31.4187C72.1787 31.0892 72.7677 30.9244 73.4078 30.9244C73.8965 30.9244 74.3056 31.0078 74.6351 31.1744C74.9646 31.3373 75.2298 31.5419 75.4306 31.7881C75.6351 32.0305 75.7923 32.2691 75.9021 32.504H75.9931V31.0381H78.3965V39.8506C78.3965 40.593 78.2146 41.2142 77.851 41.7142C77.4874 42.2142 76.9836 42.5892 76.3396 42.8392C75.6995 43.093 74.9628 43.2199 74.1294 43.2199ZM74.1806 37.8222C74.5707 37.8222 74.9003 37.7256 75.1692 37.5324C75.4419 37.3354 75.6503 37.0551 75.7942 36.6915C75.9419 36.324 76.0158 35.8847 76.0158 35.3733C76.0158 34.8619 75.9438 34.4187 75.7999 34.0437C75.6559 33.665 75.4476 33.3714 75.1749 33.1631C74.9021 32.9547 74.5707 32.8506 74.1806 32.8506C73.7828 32.8506 73.4476 32.9585 73.1749 33.1744C72.9021 33.3865 72.6957 33.682 72.5556 34.0608C72.4154 34.4396 72.3453 34.8771 72.3453 35.3733C72.3453 35.8771 72.4154 36.3127 72.5556 36.6801C72.6995 37.0437 72.9059 37.3259 73.1749 37.5267C73.4476 37.7237 73.7828 37.8222 74.1806 37.8222ZM30.5556 63.7653V52.129H35.1465C36.0253 52.129 36.7753 52.2862 37.3965 52.6006C38.0215 52.9112 38.4968 53.3525 38.8226 53.9244C39.1521 54.4926 39.3169 55.1612 39.3169 55.9301C39.3169 56.7028 39.1503 57.3676 38.8169 57.9244C38.4836 58.4775 38.0006 58.9017 37.3681 59.1972C36.7393 59.4926 35.9779 59.6403 35.084 59.6403H32.0101V57.6631H34.6862C35.1559 57.6631 35.5461 57.5987 35.8567 57.4699C36.1673 57.3411 36.3984 57.1479 36.5499 56.8903C36.7052 56.6328 36.7828 56.3127 36.7828 55.9301C36.7828 55.5437 36.7052 55.218 36.5499 54.9528C36.3984 54.6877 36.1654 54.4869 35.851 54.3506C35.5404 54.2104 35.1484 54.1403 34.6749 54.1403H33.0158V63.7653H30.5556ZM36.8396 58.4699L39.7317 63.7653H37.0158L34.1862 58.4699H36.8396ZM43.4987 63.9301C42.9419 63.9301 42.4457 63.8335 42.0101 63.6403C41.5745 63.4434 41.2298 63.1536 40.976 62.771C40.726 62.3847 40.601 61.9036 40.601 61.3278C40.601 60.843 40.69 60.4358 40.8681 60.1062C41.0461 59.7767 41.2885 59.5115 41.5953 59.3108C41.9021 59.11 42.2506 58.9585 42.6408 58.8562C43.0347 58.754 43.4476 58.682 43.8794 58.6403C44.387 58.5873 44.7961 58.5381 45.1067 58.4926C45.4173 58.4434 45.6427 58.3714 45.7828 58.2767C45.923 58.182 45.9931 58.0419 45.9931 57.8562V57.8222C45.9931 57.4623 45.8794 57.1839 45.6521 56.9869C45.4287 56.79 45.1105 56.6915 44.6976 56.6915C44.262 56.6915 43.9154 56.7881 43.6578 56.9812C43.4003 57.1706 43.2298 57.4093 43.1465 57.6972L40.9078 57.5153C41.0215 56.985 41.2449 56.5267 41.5783 56.1403C41.9116 55.7502 42.3415 55.4509 42.8681 55.2426C43.3984 55.0305 44.012 54.9244 44.709 54.9244C45.1938 54.9244 45.6578 54.9812 46.101 55.0949C46.548 55.2085 46.9438 55.3847 47.2885 55.6233C47.637 55.8619 47.9116 56.1687 48.1124 56.5437C48.3131 56.915 48.4135 57.36 48.4135 57.879V63.7653H46.1181V62.5551H46.0499C45.9097 62.8278 45.7222 63.0684 45.4874 63.2767C45.2525 63.4812 44.9703 63.6422 44.6408 63.7597C44.3112 63.8733 43.9306 63.9301 43.4987 63.9301ZM44.1919 62.2597C44.548 62.2597 44.8624 62.1896 45.1351 62.0494C45.4078 61.9055 45.6218 61.7123 45.7771 61.4699C45.9324 61.2275 46.0101 60.9528 46.0101 60.646V59.7199C45.9343 59.7691 45.8302 59.8146 45.6976 59.8562C45.5688 59.8941 45.423 59.9301 45.2601 59.9642C45.0972 59.9945 44.9343 60.0229 44.7715 60.0494C44.6086 60.0722 44.4609 60.093 44.3283 60.1119C44.0442 60.1536 43.7961 60.2199 43.584 60.3108C43.3718 60.4017 43.2071 60.5248 43.0896 60.6801C42.9722 60.8316 42.9135 61.021 42.9135 61.2483C42.9135 61.5778 43.0328 61.8297 43.2715 62.004C43.5139 62.1744 43.8207 62.2597 44.1919 62.2597ZM50.2913 67.0381V55.0381H52.6777V56.504H52.7857C52.8917 56.2691 53.0451 56.0305 53.2459 55.7881C53.4504 55.5419 53.7156 55.3373 54.0413 55.1744C54.3709 55.0078 54.78 54.9244 55.2686 54.9244C55.905 54.9244 56.4921 55.0911 57.03 55.4244C57.5679 55.754 57.9978 56.2521 58.3198 56.9187C58.6417 57.5816 58.8027 58.4131 58.8027 59.4131C58.8027 60.3865 58.6455 61.2085 58.3311 61.879C58.0205 62.5456 57.5963 63.0513 57.0584 63.396C56.5243 63.7369 55.9258 63.9074 55.2629 63.9074C54.7932 63.9074 54.3936 63.8297 54.0641 63.6744C53.7383 63.5191 53.4713 63.324 53.2629 63.0892C53.0546 62.8506 52.8955 62.61 52.7857 62.3676H52.7118V67.0381H50.2913ZM52.6607 59.4017C52.6607 59.9206 52.7326 60.3733 52.8766 60.7597C53.0205 61.146 53.2288 61.4472 53.5016 61.6631C53.7743 61.8752 54.1057 61.9812 54.4959 61.9812C54.8898 61.9812 55.2232 61.8733 55.4959 61.6574C55.7686 61.4377 55.9751 61.1347 56.1152 60.7483C56.2592 60.3581 56.3311 59.9093 56.3311 59.4017C56.3311 58.8979 56.261 58.4547 56.1209 58.0722C55.9807 57.6896 55.7743 57.3903 55.5016 57.1744C55.2288 56.9585 54.8936 56.8506 54.4959 56.8506C54.102 56.8506 53.7686 56.9547 53.4959 57.1631C53.227 57.3714 53.0205 57.6668 52.8766 58.0494C52.7326 58.432 52.6607 58.8828 52.6607 59.4017ZM62.905 63.9301C62.3482 63.9301 61.852 63.8335 61.4163 63.6403C60.9807 63.4434 60.636 63.1536 60.3823 62.771C60.1323 62.3847 60.0073 61.9036 60.0073 61.3278C60.0073 60.843 60.0963 60.4358 60.2743 60.1062C60.4523 59.7767 60.6948 59.5115 61.0016 59.3108C61.3084 59.11 61.6569 58.9585 62.047 58.8562C62.441 58.754 62.8538 58.682 63.2857 58.6403C63.7932 58.5873 64.2023 58.5381 64.5129 58.4926C64.8235 58.4434 65.0489 58.3714 65.1891 58.2767C65.3292 58.182 65.3993 58.0419 65.3993 57.8562V57.8222C65.3993 57.4623 65.2857 57.1839 65.0584 56.9869C64.8349 56.79 64.5167 56.6915 64.1038 56.6915C63.6682 56.6915 63.3217 56.7881 63.0641 56.9812C62.8065 57.1706 62.636 57.4093 62.5527 57.6972L60.3141 57.5153C60.4277 56.985 60.6512 56.5267 60.9845 56.1403C61.3179 55.7502 61.7478 55.4509 62.2743 55.2426C62.8046 55.0305 63.4182 54.9244 64.1152 54.9244C64.6001 54.9244 65.0641 54.9812 65.5073 55.0949C65.9542 55.2085 66.3501 55.3847 66.6948 55.6233C67.0432 55.8619 67.3179 56.1687 67.5186 56.5437C67.7194 56.915 67.8198 57.36 67.8198 57.879V63.7653H65.5243V62.5551H65.4561C65.316 62.8278 65.1285 63.0684 64.8936 63.2767C64.6588 63.4812 64.3766 63.6422 64.047 63.7597C63.7175 63.8733 63.3368 63.9301 62.905 63.9301ZM63.5982 62.2597C63.9542 62.2597 64.2686 62.1896 64.5413 62.0494C64.8141 61.9055 65.0281 61.7123 65.1834 61.4699C65.3387 61.2275 65.4163 60.9528 65.4163 60.646V59.7199C65.3406 59.7691 65.2364 59.8146 65.1038 59.8562C64.9751 59.8941 64.8292 59.9301 64.6663 59.9642C64.5035 59.9945 64.3406 60.0229 64.1777 60.0494C64.0148 60.0722 63.8671 60.093 63.7345 60.1119C63.4504 60.1536 63.2023 60.2199 62.9902 60.3108C62.7781 60.4017 62.6133 60.5248 62.4959 60.6801C62.3785 60.8316 62.3198 61.021 62.3198 61.2483C62.3198 61.5778 62.4391 61.8297 62.6777 62.004C62.9201 62.1744 63.227 62.2597 63.5982 62.2597ZM74.3396 55.0381V56.8562H69.084V55.0381H74.3396ZM70.2771 52.9472H72.6976V61.0835C72.6976 61.307 72.7317 61.4812 72.7999 61.6062C72.8681 61.7275 72.9628 61.8127 73.084 61.8619C73.209 61.9112 73.3529 61.9358 73.5158 61.9358C73.6294 61.9358 73.7431 61.9263 73.8567 61.9074C73.9703 61.8847 74.0574 61.8676 74.1181 61.8562L74.4987 63.6574C74.3775 63.6953 74.2071 63.7388 73.9874 63.7881C73.7677 63.8411 73.5006 63.8733 73.1862 63.8847C72.6029 63.9074 72.0915 63.8297 71.6521 63.6517C71.2165 63.4737 70.8775 63.1972 70.6351 62.8222C70.3927 62.4472 70.2734 61.9737 70.2771 61.4017V52.9472ZM81.8127 61.254L81.8183 58.3506H82.1706L84.9661 55.0381H87.7445L83.9888 59.4244H83.4149L81.8127 61.254ZM79.6195 63.7653V52.129H82.0399V63.7653H79.6195ZM85.074 63.7653L82.5058 59.9642L84.1195 58.254L87.9092 63.7653H85.074ZM92.5499 63.9358C91.6521 63.9358 90.8794 63.754 90.2317 63.3903C89.5878 63.0229 89.0915 62.504 88.7431 61.8335C88.3946 61.1593 88.2203 60.3619 88.2203 59.4415C88.2203 58.5437 88.3946 57.7559 88.7431 57.0778C89.0915 56.3998 89.5821 55.8714 90.2146 55.4926C90.851 55.1138 91.5972 54.9244 92.4533 54.9244C93.029 54.9244 93.565 55.0172 94.0612 55.2028C94.5612 55.3847 94.9968 55.6593 95.3681 56.0267C95.7431 56.3941 96.0347 56.8562 96.2431 57.4131C96.4514 57.9661 96.5556 58.6138 96.5556 59.3562V60.021H89.1862V58.521H94.2771C94.2771 58.1725 94.2014 57.8638 94.0499 57.5949C93.8984 57.3259 93.6881 57.1157 93.4192 56.9642C93.154 56.8089 92.8453 56.7312 92.4931 56.7312C92.1256 56.7312 91.7999 56.8165 91.5158 56.9869C91.2355 57.1536 91.0158 57.379 90.8567 57.6631C90.6976 57.9434 90.6162 58.2559 90.6124 58.6006V60.0267C90.6124 60.4585 90.6919 60.8316 90.851 61.146C91.0139 61.4604 91.2431 61.7028 91.5385 61.8733C91.834 62.0437 92.1843 62.129 92.5896 62.129C92.8586 62.129 93.1048 62.0911 93.3283 62.0153C93.5518 61.9396 93.7431 61.8259 93.9021 61.6744C94.0612 61.5229 94.1824 61.3373 94.2658 61.1176L96.5044 61.2653C96.3908 61.8032 96.1578 62.2729 95.8056 62.6744C95.4571 63.0722 95.0063 63.3828 94.4533 63.6062C93.904 63.8259 93.2696 63.9358 92.5499 63.9358ZM102.078 63.9358C101.184 63.9358 100.415 63.7464 99.7715 63.3676C99.1313 62.985 98.6389 62.4547 98.2942 61.7767C97.9533 61.0987 97.7828 60.3184 97.7828 59.4358C97.7828 58.5419 97.9552 57.7578 98.2999 57.0835C98.6484 56.4055 99.1427 55.8771 99.7828 55.4983C100.423 55.1157 101.184 54.9244 102.067 54.9244C102.828 54.9244 103.495 55.0627 104.067 55.3392C104.639 55.6157 105.092 56.004 105.425 56.504C105.758 57.004 105.942 57.5911 105.976 58.2653H103.692C103.628 57.8297 103.457 57.4793 103.181 57.2142C102.908 56.9453 102.55 56.8108 102.107 56.8108C101.732 56.8108 101.404 56.9131 101.124 57.1176C100.847 57.3184 100.631 57.6119 100.476 57.9983C100.321 58.3847 100.243 58.8525 100.243 59.4017C100.243 59.9585 100.319 60.432 100.47 60.8222C100.626 61.2123 100.843 61.5097 101.124 61.7142C101.404 61.9187 101.732 62.021 102.107 62.021C102.383 62.021 102.631 61.9642 102.851 61.8506C103.074 61.7369 103.258 61.5722 103.402 61.3562C103.55 61.1365 103.646 60.8733 103.692 60.5665H105.976C105.938 61.2331 105.756 61.8203 105.431 62.3278C105.109 62.8316 104.664 63.2256 104.095 63.5097C103.527 63.7937 102.855 63.9358 102.078 63.9358ZM107.526 63.7653V55.0381H109.946V63.7653H107.526ZM108.742 53.9131C108.382 53.9131 108.073 53.7937 107.815 53.5551C107.562 53.3127 107.435 53.0229 107.435 52.6858C107.435 52.3525 107.562 52.0665 107.815 51.8278C108.073 51.5854 108.382 51.4642 108.742 51.4642C109.101 51.4642 109.408 51.5854 109.662 51.8278C109.92 52.0665 110.048 52.3525 110.048 52.6858C110.048 53.0229 109.92 53.3127 109.662 53.5551C109.408 53.7937 109.101 53.9131 108.742 53.9131ZM114.306 52.129V63.7653H111.885V52.129H114.306Z" fill="white"/>
<path d="M26.5556 248.122V236.485H31.1465C32.0253 236.485 32.7753 236.643 33.3965 236.957C34.0215 237.268 34.4968 237.709 34.8226 238.281C35.1521 238.849 35.3169 239.518 35.3169 240.287C35.3169 241.059 35.1503 241.724 34.8169 242.281C34.4836 242.834 34.0006 243.258 33.3681 243.554C32.7393 243.849 31.9779 243.997 31.084 243.997H28.0101V242.019H30.6862C31.1559 242.019 31.5461 241.955 31.8567 241.826C32.1673 241.697 32.3984 241.504 32.5499 241.247C32.7052 240.989 32.7828 240.669 32.7828 240.287C32.7828 239.9 32.7052 239.574 32.5499 239.309C32.3984 239.044 32.1654 238.843 31.851 238.707C31.5404 238.567 31.1484 238.497 30.6749 238.497H29.0158V248.122H26.5556ZM32.8396 242.826L35.7317 248.122H33.0158L30.1862 242.826H32.8396ZM42.6067 244.406V239.394H45.0271V248.122H42.7033V246.537H42.6124C42.4154 247.048 42.0878 247.459 41.6294 247.769C41.1749 248.08 40.6199 248.235 39.9646 248.235C39.3813 248.235 38.8681 248.103 38.4249 247.838C37.9817 247.572 37.6351 247.196 37.3851 246.707C37.1389 246.218 37.0139 245.633 37.0101 244.951V239.394H39.4306V244.519C39.4343 245.035 39.5726 245.442 39.8453 245.741C40.1181 246.04 40.4836 246.19 40.9419 246.19C41.2336 246.19 41.5063 246.124 41.7601 245.991C42.0139 245.855 42.2184 245.654 42.3737 245.389C42.5328 245.124 42.6105 244.796 42.6067 244.406ZM49.4519 248.287C48.895 248.287 48.3988 248.19 47.9632 247.997C47.5276 247.8 47.1829 247.51 46.9291 247.127C46.6791 246.741 46.5541 246.26 46.5541 245.684C46.5541 245.199 46.6431 244.792 46.8212 244.463C46.9992 244.133 47.2416 243.868 47.5485 243.667C47.8553 243.466 48.2038 243.315 48.5939 243.213C48.9878 243.11 49.4007 243.038 49.8325 242.997C50.3401 242.944 50.7492 242.894 51.0598 242.849C51.3704 242.8 51.5958 242.728 51.736 242.633C51.8761 242.538 51.9462 242.398 51.9462 242.213V242.179C51.9462 241.819 51.8325 241.54 51.6053 241.343C51.3818 241.146 51.0636 241.048 50.6507 241.048C50.2151 241.048 49.8685 241.144 49.611 241.338C49.3534 241.527 49.1829 241.766 49.0996 242.054L46.861 241.872C46.9746 241.341 47.1981 240.883 47.5314 240.497C47.8647 240.107 48.2947 239.807 48.8212 239.599C49.3515 239.387 49.9651 239.281 50.6621 239.281C51.1469 239.281 51.611 239.338 52.0541 239.451C52.5011 239.565 52.8969 239.741 53.2416 239.98C53.5901 240.218 53.8647 240.525 54.0655 240.9C54.2663 241.271 54.3666 241.716 54.3666 242.235V248.122H52.0712V246.912H52.003C51.8628 247.184 51.6753 247.425 51.4405 247.633C51.2056 247.838 50.9235 247.999 50.5939 248.116C50.2644 248.23 49.8837 248.287 49.4519 248.287ZM50.145 246.616C50.5011 246.616 50.8155 246.546 51.0882 246.406C51.361 246.262 51.575 246.069 51.7303 245.826C51.8856 245.584 51.9632 245.309 51.9632 245.002V244.076C51.8875 244.126 51.7833 244.171 51.6507 244.213C51.5219 244.251 51.3761 244.287 51.2132 244.321C51.0503 244.351 50.8875 244.379 50.7246 244.406C50.5617 244.429 50.414 244.449 50.2814 244.468C49.9973 244.51 49.7492 244.576 49.5371 244.667C49.325 244.758 49.1602 244.881 49.0428 245.037C48.9253 245.188 48.8666 245.377 48.8666 245.605C48.8666 245.934 48.986 246.186 49.2246 246.36C49.467 246.531 49.7738 246.616 50.145 246.616ZM58.6649 243.076V248.122H56.2445V239.394H58.5513V240.934H58.6536C58.8467 240.427 59.1706 240.025 59.6252 239.73C60.0797 239.43 60.6308 239.281 61.2786 239.281C61.8846 239.281 62.413 239.413 62.8638 239.679C63.3145 239.944 63.6649 240.322 63.9149 240.815C64.1649 241.304 64.2899 241.887 64.2899 242.565V248.122H61.8695V242.997C61.8733 242.463 61.7369 242.046 61.4604 241.747C61.1839 241.444 60.8032 241.292 60.3183 241.292C59.9926 241.292 59.7047 241.362 59.4547 241.502C59.2085 241.643 59.0153 241.847 58.8752 242.116C58.7388 242.381 58.6687 242.701 58.6649 243.076ZM70.1294 251.576C69.3453 251.576 68.673 251.468 68.1124 251.252C67.5556 251.04 67.1124 250.751 66.7828 250.383C66.4533 250.016 66.2393 249.603 66.1408 249.144L68.3794 248.843C68.4476 249.018 68.5556 249.18 68.7033 249.332C68.851 249.483 69.0461 249.605 69.2885 249.696C69.5347 249.79 69.834 249.838 70.1862 249.838C70.7128 249.838 71.1465 249.709 71.4874 249.451C71.8321 249.197 72.0044 248.771 72.0044 248.173V246.576H71.9021C71.7961 246.819 71.637 247.048 71.4249 247.264C71.2128 247.48 70.94 247.656 70.6067 247.792C70.2734 247.929 69.8756 247.997 69.4135 247.997C68.7582 247.997 68.1616 247.845 67.6237 247.542C67.0896 247.235 66.6635 246.768 66.3453 246.139C66.0309 245.506 65.8737 244.707 65.8737 243.741C65.8737 242.752 66.0347 241.927 66.3567 241.264C66.6787 240.601 67.1067 240.105 67.6408 239.775C68.1787 239.446 68.7677 239.281 69.4078 239.281C69.8965 239.281 70.3056 239.364 70.6351 239.531C70.9646 239.694 71.2298 239.898 71.4306 240.144C71.6351 240.387 71.7923 240.626 71.9021 240.86H71.9931V239.394H74.3965V248.207C74.3965 248.949 74.2146 249.571 73.851 250.071C73.4874 250.571 72.9836 250.946 72.3396 251.196C71.6995 251.449 70.9628 251.576 70.1294 251.576ZM70.1806 246.179C70.5707 246.179 70.9003 246.082 71.1692 245.889C71.4419 245.692 71.6503 245.412 71.7942 245.048C71.9419 244.68 72.0158 244.241 72.0158 243.73C72.0158 243.218 71.9438 242.775 71.7999 242.4C71.6559 242.021 71.4476 241.728 71.1749 241.519C70.9021 241.311 70.5707 241.207 70.1806 241.207C69.7828 241.207 69.4476 241.315 69.1749 241.531C68.9021 241.743 68.6957 242.038 68.5556 242.417C68.4154 242.796 68.3453 243.233 68.3453 243.73C68.3453 244.233 68.4154 244.669 68.5556 245.037C68.6995 245.4 68.9059 245.682 69.1749 245.883C69.4476 246.08 69.7828 246.179 70.1806 246.179ZM26.5556 272.122V260.485H31.1465C32.0253 260.485 32.7753 260.643 33.3965 260.957C34.0215 261.268 34.4968 261.709 34.8226 262.281C35.1521 262.849 35.3169 263.518 35.3169 264.287C35.3169 265.059 35.1503 265.724 34.8169 266.281C34.4836 266.834 34.0006 267.258 33.3681 267.554C32.7393 267.849 31.9779 267.997 31.084 267.997H28.0101V266.019H30.6862C31.1559 266.019 31.5461 265.955 31.8567 265.826C32.1673 265.697 32.3984 265.504 32.5499 265.247C32.7052 264.989 32.7828 264.669 32.7828 264.287C32.7828 263.9 32.7052 263.574 32.5499 263.309C32.3984 263.044 32.1654 262.843 31.851 262.707C31.5404 262.567 31.1484 262.497 30.6749 262.497H29.0158V272.122H26.5556ZM32.8396 266.826L35.7317 272.122H33.0158L30.1862 266.826H32.8396ZM39.4987 272.287C38.9419 272.287 38.4457 272.19 38.0101 271.997C37.5745 271.8 37.2298 271.51 36.976 271.127C36.726 270.741 36.601 270.26 36.601 269.684C36.601 269.199 36.69 268.792 36.8681 268.463C37.0461 268.133 37.2885 267.868 37.5953 267.667C37.9021 267.466 38.2506 267.315 38.6408 267.213C39.0347 267.11 39.4476 267.038 39.8794 266.997C40.387 266.944 40.7961 266.894 41.1067 266.849C41.4173 266.8 41.6427 266.728 41.7828 266.633C41.923 266.538 41.9931 266.398 41.9931 266.213V266.179C41.9931 265.819 41.8794 265.54 41.6521 265.343C41.4287 265.146 41.1105 265.048 40.6976 265.048C40.262 265.048 39.9154 265.144 39.6578 265.338C39.4003 265.527 39.2298 265.766 39.1465 266.054L36.9078 265.872C37.0215 265.341 37.2449 264.883 37.5783 264.497C37.9116 264.107 38.3415 263.807 38.8681 263.599C39.3984 263.387 40.012 263.281 40.709 263.281C41.1938 263.281 41.6578 263.338 42.101 263.451C42.548 263.565 42.9438 263.741 43.2885 263.98C43.637 264.218 43.9116 264.525 44.1124 264.9C44.3131 265.271 44.4135 265.716 44.4135 266.235V272.122H42.1181V270.912H42.0499C41.9097 271.184 41.7222 271.425 41.4874 271.633C41.2525 271.838 40.9703 271.999 40.6408 272.116C40.3112 272.23 39.9306 272.287 39.4987 272.287ZM40.1919 270.616C40.548 270.616 40.8624 270.546 41.1351 270.406C41.4078 270.262 41.6218 270.069 41.7771 269.826C41.9324 269.584 42.0101 269.309 42.0101 269.002V268.076C41.9343 268.126 41.8302 268.171 41.6976 268.213C41.5688 268.251 41.423 268.287 41.2601 268.321C41.0972 268.351 40.9343 268.379 40.7715 268.406C40.6086 268.429 40.4609 268.449 40.3283 268.468C40.0442 268.51 39.7961 268.576 39.584 268.667C39.3718 268.758 39.2071 268.881 39.0896 269.037C38.9722 269.188 38.9135 269.377 38.9135 269.605C38.9135 269.934 39.0328 270.186 39.2715 270.36C39.5139 270.531 39.8207 270.616 40.1919 270.616ZM46.2913 275.394V263.394H48.6777V264.86H48.7857C48.8917 264.626 49.0451 264.387 49.2459 264.144C49.4504 263.898 49.7156 263.694 50.0413 263.531C50.3709 263.364 50.78 263.281 51.2686 263.281C51.905 263.281 52.4921 263.447 53.03 263.781C53.5679 264.11 53.9978 264.608 54.3198 265.275C54.6417 265.938 54.8027 266.769 54.8027 267.769C54.8027 268.743 54.6455 269.565 54.3311 270.235C54.0205 270.902 53.5963 271.408 53.0584 271.752C52.5243 272.093 51.9258 272.264 51.2629 272.264C50.7932 272.264 50.3936 272.186 50.0641 272.031C49.7383 271.876 49.4713 271.68 49.2629 271.446C49.0546 271.207 48.8955 270.966 48.7857 270.724H48.7118V275.394H46.2913ZM48.6607 267.758C48.6607 268.277 48.7326 268.73 48.8766 269.116C49.0205 269.502 49.2288 269.804 49.5016 270.019C49.7743 270.232 50.1057 270.338 50.4959 270.338C50.8898 270.338 51.2232 270.23 51.4959 270.014C51.7686 269.794 51.9751 269.491 52.1152 269.105C52.2592 268.715 52.3311 268.266 52.3311 267.758C52.3311 267.254 52.261 266.811 52.1209 266.429C51.9807 266.046 51.7743 265.747 51.5016 265.531C51.2288 265.315 50.8936 265.207 50.4959 265.207C50.102 265.207 49.7686 265.311 49.4959 265.519C49.227 265.728 49.0205 266.023 48.8766 266.406C48.7326 266.788 48.6607 267.239 48.6607 267.758ZM58.905 272.287C58.3482 272.287 57.852 272.19 57.4163 271.997C56.9807 271.8 56.636 271.51 56.3823 271.127C56.1323 270.741 56.0073 270.26 56.0073 269.684C56.0073 269.199 56.0963 268.792 56.2743 268.463C56.4523 268.133 56.6948 267.868 57.0016 267.667C57.3084 267.466 57.6569 267.315 58.047 267.213C58.441 267.11 58.8538 267.038 59.2857 266.997C59.7932 266.944 60.2023 266.894 60.5129 266.849C60.8235 266.8 61.0489 266.728 61.1891 266.633C61.3292 266.538 61.3993 266.398 61.3993 266.213V266.179C61.3993 265.819 61.2857 265.54 61.0584 265.343C60.8349 265.146 60.5167 265.048 60.1038 265.048C59.6682 265.048 59.3217 265.144 59.0641 265.338C58.8065 265.527 58.636 265.766 58.5527 266.054L56.3141 265.872C56.4277 265.341 56.6512 264.883 56.9845 264.497C57.3179 264.107 57.7478 263.807 58.2743 263.599C58.8046 263.387 59.4182 263.281 60.1152 263.281C60.6001 263.281 61.0641 263.338 61.5073 263.451C61.9542 263.565 62.3501 263.741 62.6948 263.98C63.0432 264.218 63.3179 264.525 63.5186 264.9C63.7194 265.271 63.8198 265.716 63.8198 266.235V272.122H61.5243V270.912H61.4561C61.316 271.184 61.1285 271.425 60.8936 271.633C60.6588 271.838 60.3766 271.999 60.047 272.116C59.7175 272.23 59.3368 272.287 58.905 272.287ZM59.5982 270.616C59.9542 270.616 60.2686 270.546 60.5413 270.406C60.8141 270.262 61.0281 270.069 61.1834 269.826C61.3387 269.584 61.4163 269.309 61.4163 269.002V268.076C61.3406 268.126 61.2364 268.171 61.1038 268.213C60.9751 268.251 60.8292 268.287 60.6663 268.321C60.5035 268.351 60.3406 268.379 60.1777 268.406C60.0148 268.429 59.8671 268.449 59.7345 268.468C59.4504 268.51 59.2023 268.576 58.9902 268.667C58.7781 268.758 58.6133 268.881 58.4959 269.037C58.3785 269.188 58.3198 269.377 58.3198 269.605C58.3198 269.934 58.4391 270.186 58.6777 270.36C58.9201 270.531 59.227 270.616 59.5982 270.616ZM70.3396 263.394V265.213H65.084V263.394H70.3396ZM66.2771 261.304H68.6976V269.44C68.6976 269.663 68.7317 269.838 68.7999 269.963C68.8681 270.084 68.9628 270.169 69.084 270.218C69.209 270.268 69.3529 270.292 69.5158 270.292C69.6294 270.292 69.7431 270.283 69.8567 270.264C69.9703 270.241 70.0574 270.224 70.1181 270.213L70.4987 272.014C70.3775 272.052 70.2071 272.095 69.9874 272.144C69.7677 272.197 69.5006 272.23 69.1862 272.241C68.6029 272.264 68.0915 272.186 67.6521 272.008C67.2165 271.83 66.8775 271.554 66.6351 271.179C66.3927 270.804 66.2734 270.33 66.2771 269.758V261.304ZM75.6649 272.122V260.485H78.0854V264.86H78.1592C78.2653 264.626 78.4187 264.387 78.6195 264.144C78.824 263.898 79.0892 263.694 79.4149 263.531C79.7445 263.364 80.1536 263.281 80.6422 263.281C81.2786 263.281 81.8657 263.447 82.4036 263.781C82.9414 264.11 83.3714 264.608 83.6933 265.275C84.0153 265.938 84.1763 266.769 84.1763 267.769C84.1763 268.743 84.0191 269.565 83.7047 270.235C83.3941 270.902 82.9699 271.408 82.432 271.752C81.8979 272.093 81.2994 272.264 80.6365 272.264C80.1668 272.264 79.7672 272.186 79.4377 272.031C79.1119 271.876 78.8449 271.68 78.6365 271.446C78.4282 271.207 78.2691 270.966 78.1592 270.724H78.0513V272.122H75.6649ZM78.0342 267.758C78.0342 268.277 78.1062 268.73 78.2502 269.116C78.3941 269.502 78.6024 269.804 78.8752 270.019C79.1479 270.232 79.4793 270.338 79.8695 270.338C80.2634 270.338 80.5967 270.23 80.8695 270.014C81.1422 269.794 81.3486 269.491 81.4888 269.105C81.6327 268.715 81.7047 268.266 81.7047 267.758C81.7047 267.254 81.6346 266.811 81.4945 266.429C81.3543 266.046 81.1479 265.747 80.8752 265.531C80.6024 265.315 80.2672 265.207 79.8695 265.207C79.4755 265.207 79.1422 265.311 78.8695 265.519C78.6005 265.728 78.3941 266.023 78.2502 266.406C78.1062 266.788 78.0342 267.239 78.0342 267.758ZM89.7686 272.292C88.8709 272.292 88.0982 272.11 87.4504 271.747C86.8065 271.379 86.3103 270.86 85.9618 270.19C85.6133 269.516 85.4391 268.718 85.4391 267.798C85.4391 266.9 85.6133 266.112 85.9618 265.434C86.3103 264.756 86.8008 264.228 87.4334 263.849C88.0698 263.47 88.816 263.281 89.672 263.281C90.2478 263.281 90.7838 263.374 91.28 263.559C91.78 263.741 92.2156 264.016 92.5868 264.383C92.9618 264.751 93.2535 265.213 93.4618 265.769C93.6701 266.322 93.7743 266.97 93.7743 267.713V268.377H86.405V266.877H91.4959C91.4959 266.529 91.4201 266.22 91.2686 265.951C91.1171 265.682 90.9069 265.472 90.6379 265.321C90.3728 265.165 90.0641 265.088 89.7118 265.088C89.3444 265.088 89.0186 265.173 88.7345 265.343C88.4542 265.51 88.2345 265.735 88.0754 266.019C87.9163 266.3 87.8349 266.612 87.8311 266.957V268.383C87.8311 268.815 87.9107 269.188 88.0698 269.502C88.2326 269.817 88.4618 270.059 88.7573 270.23C89.0527 270.4 89.4031 270.485 89.8084 270.485C90.0773 270.485 90.3235 270.447 90.547 270.372C90.7705 270.296 90.9618 270.182 91.1209 270.031C91.28 269.879 91.4012 269.694 91.4845 269.474L93.7232 269.622C93.6095 270.16 93.3766 270.629 93.0243 271.031C92.6758 271.429 92.2251 271.739 91.672 271.963C91.1228 272.182 90.4883 272.292 89.7686 272.292ZM102.615 265.883L100.399 266.019C100.361 265.83 100.28 265.66 100.155 265.508C100.03 265.353 99.8652 265.23 99.6607 265.139C99.4599 265.044 99.2194 264.997 98.9391 264.997C98.5641 264.997 98.2478 265.076 97.9902 265.235C97.7326 265.391 97.6038 265.599 97.6038 265.86C97.6038 266.069 97.6872 266.245 97.8538 266.389C98.0205 266.533 98.3065 266.648 98.7118 266.735L100.291 267.054C101.14 267.228 101.772 267.508 102.189 267.894C102.606 268.281 102.814 268.788 102.814 269.417C102.814 269.989 102.646 270.491 102.308 270.923C101.975 271.355 101.517 271.692 100.933 271.934C100.354 272.173 99.6853 272.292 98.9277 272.292C97.7724 272.292 96.852 272.052 96.1663 271.571C95.4845 271.086 95.0849 270.427 94.9675 269.593L97.3482 269.468C97.4201 269.821 97.5944 270.09 97.8709 270.275C98.1474 270.457 98.5016 270.548 98.9334 270.548C99.3576 270.548 99.6985 270.466 99.9561 270.304C100.217 270.137 100.35 269.923 100.354 269.662C100.35 269.442 100.257 269.262 100.075 269.122C99.8936 268.978 99.6133 268.868 99.2345 268.792L97.7232 268.491C96.8709 268.321 96.2364 268.025 95.8198 267.605C95.4069 267.184 95.2004 266.648 95.2004 265.997C95.2004 265.436 95.352 264.953 95.655 264.548C95.9618 264.143 96.3917 263.83 96.9448 263.61C97.5016 263.391 98.1531 263.281 98.8993 263.281C100.002 263.281 100.869 263.514 101.502 263.98C102.138 264.446 102.509 265.08 102.615 265.883ZM106.827 272.287C106.27 272.287 105.774 272.19 105.338 271.997C104.903 271.8 104.558 271.51 104.304 271.127C104.054 270.741 103.929 270.26 103.929 269.684C103.929 269.199 104.018 268.792 104.196 268.463C104.374 268.133 104.617 267.868 104.923 267.667C105.23 267.466 105.579 267.315 105.969 267.213C106.363 267.11 106.776 267.038 107.208 266.997C107.715 266.944 108.124 266.894 108.435 266.849C108.745 266.8 108.971 266.728 109.111 266.633C109.251 266.538 109.321 266.398 109.321 266.213V266.179C109.321 265.819 109.208 265.54 108.98 265.343C108.757 265.146 108.439 265.048 108.026 265.048C107.59 265.048 107.244 265.144 106.986 265.338C106.728 265.527 106.558 265.766 106.475 266.054L104.236 265.872C104.35 265.341 104.573 264.883 104.906 264.497C105.24 264.107 105.67 263.807 106.196 263.599C106.726 263.387 107.34 263.281 108.037 263.281C108.522 263.281 108.986 263.338 109.429 263.451C109.876 263.565 110.272 263.741 110.617 263.98C110.965 264.218 111.24 264.525 111.44 264.9C111.641 265.271 111.742 265.716 111.742 266.235V272.122H109.446V270.912H109.378C109.238 271.184 109.05 271.425 108.815 271.633C108.581 271.838 108.298 271.999 107.969 272.116C107.639 272.23 107.259 272.287 106.827 272.287ZM107.52 270.616C107.876 270.616 108.19 270.546 108.463 270.406C108.736 270.262 108.95 270.069 109.105 269.826C109.261 269.584 109.338 269.309 109.338 269.002V268.076C109.262 268.126 109.158 268.171 109.026 268.213C108.897 268.251 108.751 268.287 108.588 268.321C108.425 268.351 108.262 268.379 108.1 268.406C107.937 268.429 107.789 268.449 107.656 268.468C107.372 268.51 107.124 268.576 106.912 268.667C106.7 268.758 106.535 268.881 106.418 269.037C106.3 269.188 106.242 269.377 106.242 269.605C106.242 269.934 106.361 270.186 106.6 270.36C106.842 270.531 107.149 270.616 107.52 270.616ZM113.619 272.122V263.394H115.966V264.917H116.057C116.216 264.376 116.483 263.966 116.858 263.69C117.233 263.41 117.665 263.269 118.154 263.269C118.275 263.269 118.405 263.277 118.546 263.292C118.686 263.307 118.809 263.328 118.915 263.355V265.502C118.801 265.468 118.644 265.438 118.443 265.412C118.243 265.385 118.059 265.372 117.892 265.372C117.536 265.372 117.218 265.449 116.938 265.605C116.661 265.756 116.441 265.968 116.279 266.241C116.119 266.514 116.04 266.828 116.04 267.184V272.122H113.619Z" fill="white"/>
<path d="M258.737 51.7653L255.407 40.129H258.095L260.021 48.2142H260.117L262.242 40.129H264.543L266.663 48.2312H266.765L268.691 40.129H271.379L268.049 51.7653H265.651L263.436 44.1574H263.345L261.134 51.7653H258.737ZM272.695 51.7653V40.129H277.286C278.165 40.129 278.915 40.2862 279.536 40.6005C280.161 40.9112 280.637 41.3524 280.962 41.9244C281.292 42.4926 281.457 43.1612 281.457 43.9301C281.457 44.7028 281.29 45.3676 280.957 45.9244C280.623 46.4774 280.141 46.9017 279.508 47.1971C278.879 47.4926 278.118 47.6403 277.224 47.6403H274.15V45.663H276.826C277.296 45.663 277.686 45.5987 277.997 45.4699C278.307 45.3411 278.538 45.1479 278.69 44.8903C278.845 44.6327 278.923 44.3127 278.923 43.9301C278.923 43.5437 278.845 43.218 278.69 42.9528C278.538 42.6877 278.305 42.4869 277.991 42.3505C277.68 42.2104 277.288 42.1403 276.815 42.1403H275.156V51.7653H272.695ZM278.98 46.4699L281.872 51.7653H279.156L276.326 46.4699H278.98ZM291.893 40.129V51.7653H289.433V42.4642H289.364L286.7 44.1346V41.9528L289.58 40.129H291.893Z" fill="white"/>
<path d="M682.54 51.7653L679.21 40.129H681.898L683.824 48.2142H683.921L686.046 40.129H688.347L690.466 48.2312H690.568L692.494 40.129H695.182L691.852 51.7653H689.455L687.239 44.1574H687.148L684.938 51.7653H682.54ZM696.499 51.7653V40.129H701.09C701.968 40.129 702.718 40.2862 703.34 40.6005C703.965 40.9112 704.44 41.3524 704.766 41.9244C705.095 42.4926 705.26 43.1612 705.26 43.9301C705.26 44.7028 705.093 45.3676 704.76 45.9244C704.427 46.4774 703.944 46.9017 703.311 47.1971C702.682 47.4926 701.921 47.6403 701.027 47.6403H697.953V45.663H700.629C701.099 45.663 701.489 45.5987 701.8 45.4699C702.11 45.3411 702.341 45.1479 702.493 44.8903C702.648 44.6327 702.726 44.3127 702.726 43.9301C702.726 43.5437 702.648 43.218 702.493 42.9528C702.341 42.6877 702.109 42.4869 701.794 42.3505C701.484 42.2104 701.091 42.1403 700.618 42.1403H698.959V51.7653H696.499ZM702.783 46.4699L705.675 51.7653H702.959L700.129 46.4699H702.783ZM706.93 51.7653V49.9926L711.073 46.1574C711.425 45.8165 711.72 45.5096 711.959 45.2369C712.201 44.9642 712.385 44.6971 712.51 44.4358C712.635 44.1706 712.698 43.8846 712.698 43.5778C712.698 43.2369 712.62 42.9433 712.465 42.6971C712.309 42.4471 712.097 42.2558 711.828 42.1233C711.559 41.9869 711.254 41.9187 710.913 41.9187C710.557 41.9187 710.247 41.9907 709.982 42.1346C709.716 42.2786 709.512 42.485 709.368 42.754C709.224 43.0229 709.152 43.343 709.152 43.7142H706.817C706.817 42.9528 706.989 42.2918 707.334 41.7312C707.679 41.1706 708.162 40.7369 708.783 40.4301C709.404 40.1233 710.12 39.9699 710.93 39.9699C711.764 39.9699 712.489 40.1176 713.107 40.413C713.728 40.7047 714.211 41.11 714.555 41.629C714.9 42.1479 715.073 42.7426 715.073 43.413C715.073 43.8524 714.985 44.2862 714.811 44.7142C714.641 45.1422 714.336 45.6176 713.896 46.1403C713.457 46.6593 712.838 47.2824 712.038 48.0096L710.34 49.6744V49.754H715.226V51.7653H706.93Z" fill="white"/>
<path d="M872.405 42.8298V31.1935H876.996C877.875 31.1935 878.625 31.3507 879.246 31.6651C879.871 31.9757 880.347 32.417 880.672 32.9889C881.002 33.5571 881.167 34.2257 881.167 34.9946C881.167 35.7673 881 36.4321 880.667 36.9889C880.333 37.542 879.85 37.9662 879.218 38.2617C878.589 38.5571 877.828 38.7048 876.934 38.7048H873.86V36.7276H876.536C877.006 36.7276 877.396 36.6632 877.707 36.5344C878.017 36.4056 878.248 36.2124 878.4 35.9548C878.555 35.6973 878.633 35.3772 878.633 34.9946C878.633 34.6082 878.555 34.2825 878.4 34.0173C878.248 33.7522 878.015 33.5514 877.701 33.4151C877.39 33.2749 876.998 33.2048 876.525 33.2048H874.866V42.8298H872.405ZM878.689 37.5344L881.582 42.8298H878.866L876.036 37.5344H878.689ZM888.457 39.1139V34.1026H890.877V42.8298H888.553V41.2446H888.462C888.265 41.756 887.938 42.167 887.479 42.4776C887.025 42.7882 886.47 42.9435 885.814 42.9435C885.231 42.9435 884.718 42.8109 884.275 42.5457C883.832 42.2806 883.485 41.9037 883.235 41.4151C882.989 40.9264 882.864 40.3412 882.86 39.6594V34.1026H885.28V39.2276C885.284 39.7427 885.422 40.1499 885.695 40.4492C885.968 40.7484 886.333 40.898 886.792 40.898C887.083 40.898 887.356 40.8317 887.61 40.6992C887.864 40.5628 888.068 40.362 888.224 40.0969C888.383 39.8317 888.46 39.5041 888.457 39.1139ZM895.302 42.9946C894.745 42.9946 894.249 42.898 893.813 42.7048C893.377 42.5079 893.033 42.2181 892.779 41.8355C892.529 41.4492 892.404 40.9681 892.404 40.3923C892.404 39.9075 892.493 39.5003 892.671 39.1707C892.849 38.8412 893.091 38.576 893.398 38.3753C893.705 38.1745 894.054 38.023 894.444 37.9207C894.838 37.8185 895.251 37.7465 895.682 37.7048C896.19 37.6518 896.599 37.6026 896.91 37.5571C897.22 37.5079 897.446 37.4359 897.586 37.3412C897.726 37.2465 897.796 37.1063 897.796 36.9207V36.8867C897.796 36.5268 897.682 36.2484 897.455 36.0514C897.232 35.8545 896.913 35.756 896.501 35.756C896.065 35.756 895.718 35.8526 895.461 36.0457C895.203 36.2351 895.033 36.4738 894.949 36.7617L892.711 36.5798C892.824 36.0495 893.048 35.5912 893.381 35.2048C893.715 34.8147 894.145 34.5154 894.671 34.3071C895.201 34.095 895.815 33.9889 896.512 33.9889C896.997 33.9889 897.461 34.0457 897.904 34.1594C898.351 34.273 898.747 34.4492 899.091 34.6878C899.44 34.9264 899.715 35.2332 899.915 35.6082C900.116 35.9795 900.216 36.4245 900.216 36.9435V42.8298H897.921V41.6196H897.853C897.713 41.8923 897.525 42.1329 897.29 42.3412C897.056 42.5457 896.773 42.7067 896.444 42.8242C896.114 42.9378 895.734 42.9946 895.302 42.9946ZM895.995 41.3242C896.351 41.3242 896.665 41.2541 896.938 41.1139C897.211 40.97 897.425 40.7768 897.58 40.5344C897.735 40.292 897.813 40.0173 897.813 39.7105V38.7844C897.737 38.8336 897.633 38.8791 897.501 38.9207C897.372 38.9586 897.226 38.9946 897.063 39.0287C896.9 39.059 896.737 39.0874 896.574 39.1139C896.412 39.1367 896.264 39.1575 896.131 39.1764C895.847 39.2181 895.599 39.2844 895.387 39.3753C895.175 39.4662 895.01 39.5893 894.893 39.7446C894.775 39.8961 894.716 40.0855 894.716 40.3128C894.716 40.6423 894.836 40.8942 895.074 41.0685C895.317 41.2389 895.624 41.3242 895.995 41.3242ZM904.515 37.7844V42.8298H902.094V34.1026H904.401V35.6423H904.503C904.697 35.1348 905.02 34.7332 905.475 34.4378C905.93 34.1385 906.481 33.9889 907.128 33.9889C907.734 33.9889 908.263 34.1215 908.714 34.3867C909.164 34.6518 909.515 35.0306 909.765 35.523C910.015 36.0117 910.14 36.595 910.14 37.273V42.8298H907.719V37.7048C907.723 37.1707 907.587 36.7541 907.31 36.4548C907.034 36.1518 906.653 36.0003 906.168 36.0003C905.842 36.0003 905.555 36.0704 905.305 36.2105C905.058 36.3507 904.865 36.5552 904.725 36.8242C904.589 37.0893 904.519 37.4094 904.515 37.7844ZM915.979 46.2844C915.195 46.2844 914.523 46.1764 913.962 45.9605C913.405 45.7484 912.962 45.4586 912.633 45.0912C912.303 44.7238 912.089 44.3109 911.991 43.8526L914.229 43.5514C914.297 43.7257 914.405 43.8885 914.553 44.0401C914.701 44.1916 914.896 44.3128 915.138 44.4037C915.385 44.4984 915.684 44.5457 916.036 44.5457C916.563 44.5457 916.996 44.417 917.337 44.1594C917.682 43.9056 917.854 43.4795 917.854 42.881V41.2844H917.752C917.646 41.5268 917.487 41.756 917.275 41.9719C917.063 42.1878 916.79 42.3639 916.457 42.5003C916.123 42.6367 915.725 42.7048 915.263 42.7048C914.608 42.7048 914.011 42.5533 913.474 42.2503C912.939 41.9435 912.513 41.4757 912.195 40.8469C911.881 40.2143 911.724 39.4151 911.724 38.4492C911.724 37.4605 911.885 36.6348 912.207 35.9719C912.529 35.309 912.957 34.8128 913.491 34.4832C914.029 34.1537 914.618 33.9889 915.258 33.9889C915.746 33.9889 916.155 34.0723 916.485 34.2389C916.814 34.4018 917.08 34.6063 917.28 34.8526C917.485 35.095 917.642 35.3336 917.752 35.5685H917.843V34.1026H920.246V42.9151C920.246 43.6575 920.064 44.2787 919.701 44.7787C919.337 45.2787 918.833 45.6537 918.189 45.9037C917.549 46.1575 916.813 46.2844 915.979 46.2844ZM916.03 40.8867C916.421 40.8867 916.75 40.7901 917.019 40.5969C917.292 40.3999 917.5 40.1196 917.644 39.756C917.792 39.3885 917.866 38.9492 917.866 38.4378C917.866 37.9264 917.794 37.4832 917.65 37.1082C917.506 36.7295 917.297 36.4359 917.025 36.2276C916.752 36.0192 916.421 35.9151 916.03 35.9151C915.633 35.9151 915.297 36.023 915.025 36.2389C914.752 36.451 914.546 36.7465 914.405 37.1253C914.265 37.5041 914.195 37.9416 914.195 38.4378C914.195 38.9416 914.265 39.3772 914.405 39.7446C914.549 40.1082 914.756 40.3904 915.025 40.5912C915.297 40.7882 915.633 40.8867 916.03 40.8867ZM878.718 58.5401C878.672 58.0817 878.477 57.7257 878.133 57.4719C877.788 57.2181 877.32 57.0912 876.729 57.0912C876.328 57.0912 875.989 57.148 875.712 57.2617C875.436 57.3715 875.224 57.5249 875.076 57.7219C874.932 57.9188 874.86 58.1423 874.86 58.3923C874.852 58.6007 874.896 58.7825 874.991 58.9378C875.089 59.0931 875.224 59.2276 875.394 59.3412C875.564 59.451 875.761 59.5476 875.985 59.631C876.208 59.7105 876.447 59.7787 876.701 59.8355L877.746 60.0855C878.254 60.1992 878.72 60.3507 879.144 60.5401C879.568 60.7295 879.936 60.9624 880.246 61.2389C880.557 61.5154 880.797 61.8412 880.968 62.2162C881.142 62.5912 881.231 63.0211 881.235 63.506C881.231 64.2181 881.049 64.8355 880.689 65.3582C880.333 65.8772 879.818 66.2806 879.144 66.5685C878.474 66.8526 877.665 66.9946 876.718 66.9946C875.779 66.9946 874.96 66.8507 874.263 66.5628C873.57 66.2749 873.029 65.8488 872.638 65.2844C872.252 64.7162 872.049 64.0135 872.03 63.1764H874.411C874.438 63.5666 874.549 63.8923 874.746 64.1537C874.947 64.4113 875.214 64.6063 875.547 64.7389C875.885 64.8677 876.265 64.9321 876.689 64.9321C877.106 64.9321 877.468 64.8715 877.775 64.7503C878.085 64.6291 878.326 64.4605 878.496 64.2446C878.667 64.0287 878.752 63.7806 878.752 63.5003C878.752 63.2389 878.674 63.0192 878.519 62.8412C878.368 62.6632 878.144 62.5117 877.849 62.3867C877.557 62.2617 877.199 62.148 876.775 62.0457L875.508 61.7276C874.527 61.4889 873.752 61.1158 873.184 60.6082C872.616 60.1007 872.333 59.417 872.337 58.5571C872.333 57.8526 872.521 57.237 872.9 56.7105C873.282 56.184 873.807 55.773 874.474 55.4776C875.14 55.1821 875.898 55.0344 876.746 55.0344C877.61 55.0344 878.364 55.1821 879.008 55.4776C879.655 55.773 880.159 56.184 880.519 56.7105C880.879 57.237 881.064 57.8469 881.076 58.5401H878.718ZM886.822 67.0003C885.924 67.0003 885.151 66.8185 884.503 66.4548C883.859 66.0874 883.363 65.5685 883.015 64.898C882.666 64.2238 882.492 63.4264 882.492 62.506C882.492 61.6082 882.666 60.8204 883.015 60.1423C883.363 59.4643 883.854 58.9359 884.486 58.5571C885.123 58.1783 885.869 57.9889 886.725 57.9889C887.301 57.9889 887.837 58.0817 888.333 58.2673C888.833 58.4492 889.269 58.7238 889.64 59.0912C890.015 59.4586 890.306 59.9207 890.515 60.4776C890.723 61.0306 890.827 61.6783 890.827 62.4207V63.0855H883.458V61.5855H888.549C888.549 61.237 888.473 60.9283 888.322 60.6594C888.17 60.3904 887.96 60.1802 887.691 60.0287C887.426 59.8734 887.117 59.7957 886.765 59.7957C886.397 59.7957 886.072 59.881 885.788 60.0514C885.507 60.2181 885.288 60.4435 885.128 60.7276C884.969 61.0079 884.888 61.3204 884.884 61.6651V63.0912C884.884 63.523 884.964 63.8961 885.123 64.2105C885.286 64.5249 885.515 64.7673 885.81 64.9378C886.106 65.1082 886.456 65.1935 886.861 65.1935C887.13 65.1935 887.377 65.1556 887.6 65.0798C887.823 65.0041 888.015 64.8904 888.174 64.7389C888.333 64.5874 888.454 64.4018 888.538 64.1821L890.776 64.3298C890.663 64.8677 890.43 65.3374 890.077 65.7389C889.729 66.1367 889.278 66.4473 888.725 66.6707C888.176 66.8904 887.541 67.0003 886.822 67.0003ZM894.6 64.3185L894.606 61.4151H894.958L897.753 58.1026H900.532L896.776 62.4889H896.202L894.6 64.3185ZM892.407 66.8298V55.1935H894.827V66.8298H892.407ZM897.861 66.8298L895.293 63.0287L896.907 61.3185L900.697 66.8298H897.861ZM901.719 66.8298V58.1026H904.066V59.6253H904.157C904.316 59.0836 904.583 58.6745 904.958 58.398C905.333 58.1177 905.765 57.9776 906.253 57.9776C906.375 57.9776 906.505 57.9851 906.645 58.0003C906.786 58.0154 906.909 58.0363 907.015 58.0628V60.2105C906.901 60.1764 906.744 60.1461 906.543 60.1196C906.342 60.0931 906.159 60.0798 905.992 60.0798C905.636 60.0798 905.318 60.1575 905.038 60.3128C904.761 60.4643 904.541 60.6764 904.378 60.9492C904.219 61.2219 904.14 61.5363 904.14 61.8923V66.8298H901.719ZM911.837 67.0003C910.939 67.0003 910.167 66.8185 909.519 66.4548C908.875 66.0874 908.379 65.5685 908.03 64.898C907.682 64.2238 907.508 63.4264 907.508 62.506C907.508 61.6082 907.682 60.8204 908.03 60.1423C908.379 59.4643 908.869 58.9359 909.502 58.5571C910.138 58.1783 910.885 57.9889 911.741 57.9889C912.316 57.9889 912.852 58.0817 913.349 58.2673C913.849 58.4492 914.284 58.7238 914.655 59.0912C915.03 59.4586 915.322 59.9207 915.53 60.4776C915.739 61.0306 915.843 61.6783 915.843 62.4207V63.0855H908.474V61.5855H913.564C913.564 61.237 913.489 60.9283 913.337 60.6594C913.186 60.3904 912.975 60.1802 912.707 60.0287C912.441 59.8734 912.133 59.7957 911.78 59.7957C911.413 59.7957 911.087 59.881 910.803 60.0514C910.523 60.2181 910.303 60.4435 910.144 60.7276C909.985 61.0079 909.904 61.3204 909.9 61.6651V63.0912C909.9 63.523 909.979 63.8961 910.138 64.2105C910.301 64.5249 910.53 64.7673 910.826 64.9378C911.121 65.1082 911.472 65.1935 911.877 65.1935C912.146 65.1935 912.392 65.1556 912.616 65.0798C912.839 65.0041 913.03 64.8904 913.189 64.7389C913.349 64.5874 913.47 64.4018 913.553 64.1821L915.792 64.3298C915.678 64.8677 915.445 65.3374 915.093 65.7389C914.744 66.1367 914.294 66.4473 913.741 66.6707C913.191 66.8904 912.557 67.0003 911.837 67.0003ZM922.064 58.1026V59.9207H916.809V58.1026H922.064ZM918.002 56.0117H920.422V64.148C920.422 64.3715 920.457 64.5457 920.525 64.6707C920.593 64.792 920.688 64.8772 920.809 64.9264C920.934 64.9757 921.078 65.0003 921.241 65.0003C921.354 65.0003 921.468 64.9908 921.582 64.9719C921.695 64.9492 921.782 64.9321 921.843 64.9207L922.224 66.7219C922.102 66.7598 921.932 66.8033 921.712 66.8526C921.493 66.9056 921.225 66.9378 920.911 66.9492C920.328 66.9719 919.816 66.8942 919.377 66.7162C918.941 66.5382 918.602 66.2617 918.36 65.8867C918.118 65.5117 917.998 65.0382 918.002 64.4662V56.0117ZM926.13 66.9946C925.573 66.9946 925.077 66.898 924.641 66.7048C924.206 66.5079 923.861 66.2181 923.607 65.8355C923.357 65.4492 923.232 64.9681 923.232 64.3923C923.232 63.9075 923.321 63.5003 923.499 63.1707C923.677 62.8412 923.92 62.576 924.226 62.3753C924.533 62.1745 924.882 62.023 925.272 61.9207C925.666 61.8185 926.079 61.7465 926.511 61.7048C927.018 61.6518 927.427 61.6026 927.738 61.5571C928.048 61.5079 928.274 61.4359 928.414 61.3412C928.554 61.2465 928.624 61.1063 928.624 60.9207V60.8867C928.624 60.5268 928.511 60.2484 928.283 60.0514C928.06 59.8545 927.742 59.756 927.329 59.756C926.893 59.756 926.547 59.8526 926.289 60.0457C926.031 60.2351 925.861 60.4738 925.778 60.7617L923.539 60.5798C923.653 60.0495 923.876 59.5912 924.209 59.2048C924.543 58.8147 924.973 58.5154 925.499 58.3071C926.029 58.095 926.643 57.9889 927.34 57.9889C927.825 57.9889 928.289 58.0457 928.732 58.1594C929.179 58.273 929.575 58.4492 929.92 58.6878C930.268 58.9264 930.543 59.2332 930.743 59.6082C930.944 59.9795 931.045 60.4245 931.045 60.9435V66.8298H928.749V65.6196H928.681C928.541 65.8923 928.353 66.1329 928.118 66.3412C927.884 66.5457 927.601 66.7067 927.272 66.8242C926.942 66.9378 926.562 66.9946 926.13 66.9946ZM926.823 65.3242C927.179 65.3242 927.493 65.2541 927.766 65.1139C928.039 64.97 928.253 64.7768 928.408 64.5344C928.564 64.292 928.641 64.0173 928.641 63.7105V62.7844C928.565 62.8336 928.461 62.8791 928.329 62.9207C928.2 62.9586 928.054 62.9946 927.891 63.0287C927.728 63.059 927.565 63.0874 927.403 63.1139C927.24 63.1367 927.092 63.1575 926.959 63.1764C926.675 63.2181 926.427 63.2844 926.215 63.3753C926.003 63.4662 925.838 63.5893 925.721 63.7446C925.603 63.8961 925.545 64.0855 925.545 64.3128C925.545 64.6423 925.664 64.8942 925.903 65.0685C926.145 65.2389 926.452 65.3242 926.823 65.3242ZM932.922 66.8298V58.1026H935.269V59.6253H935.36C935.519 59.0836 935.786 58.6745 936.161 58.398C936.536 58.1177 936.968 57.9776 937.457 57.9776C937.578 57.9776 937.708 57.9851 937.849 58.0003C937.989 58.0154 938.112 58.0363 938.218 58.0628V60.2105C938.104 60.1764 937.947 60.1461 937.746 60.1196C937.546 60.0931 937.362 60.0798 937.195 60.0798C936.839 60.0798 936.521 60.1575 936.241 60.3128C935.964 60.4643 935.744 60.6764 935.582 60.9492C935.422 61.2219 935.343 61.5363 935.343 61.8923V66.8298H932.922ZM939.469 66.8298V58.1026H941.89V66.8298H939.469ZM940.685 56.9776C940.325 56.9776 940.017 56.8582 939.759 56.6196C939.505 56.3772 939.378 56.0874 939.378 55.7503C939.378 55.417 939.505 55.131 939.759 54.8923C940.017 54.6499 940.325 54.5287 940.685 54.5287C941.045 54.5287 941.352 54.6499 941.606 54.8923C941.863 55.131 941.992 55.417 941.992 55.7503C941.992 56.0874 941.863 56.3772 941.606 56.6196C941.352 56.8582 941.045 56.9776 940.685 56.9776ZM946.317 66.9946C945.761 66.9946 945.264 66.898 944.829 66.7048C944.393 66.5079 944.048 66.2181 943.795 65.8355C943.545 65.4492 943.42 64.9681 943.42 64.3923C943.42 63.9075 943.509 63.5003 943.687 63.1707C943.865 62.8412 944.107 62.576 944.414 62.3753C944.721 62.1745 945.069 62.023 945.459 61.9207C945.853 61.8185 946.266 61.7465 946.698 61.7048C947.206 61.6518 947.615 61.6026 947.925 61.5571C948.236 61.5079 948.461 61.4359 948.601 61.3412C948.742 61.2465 948.812 61.1063 948.812 60.9207V60.8867C948.812 60.5268 948.698 60.2484 948.471 60.0514C948.247 59.8545 947.929 59.756 947.516 59.756C947.081 59.756 946.734 59.8526 946.476 60.0457C946.219 60.2351 946.048 60.4738 945.965 60.7617L943.726 60.5798C943.84 60.0495 944.064 59.5912 944.397 59.2048C944.73 58.8147 945.16 58.5154 945.687 58.3071C946.217 58.095 946.831 57.9889 947.528 57.9889C948.012 57.9889 948.476 58.0457 948.92 58.1594C949.367 58.273 949.762 58.4492 950.107 58.6878C950.456 58.9264 950.73 59.2332 950.931 59.6082C951.132 59.9795 951.232 60.4245 951.232 60.9435V66.8298H948.937V65.6196H948.868C948.728 65.8923 948.541 66.1329 948.306 66.3412C948.071 66.5457 947.789 66.7067 947.459 66.8242C947.13 66.9378 946.749 66.9946 946.317 66.9946ZM947.011 65.3242C947.367 65.3242 947.681 65.2541 947.954 65.1139C948.226 64.97 948.44 64.7768 948.596 64.5344C948.751 64.292 948.829 64.0173 948.829 63.7105V62.7844C948.753 62.8336 948.649 62.8791 948.516 62.9207C948.387 62.9586 948.242 62.9946 948.079 63.0287C947.916 63.059 947.753 63.0874 947.59 63.1139C947.427 63.1367 947.279 63.1575 947.147 63.1764C946.863 63.2181 946.615 63.2844 946.403 63.3753C946.19 63.4662 946.026 63.5893 945.908 63.7446C945.791 63.8961 945.732 64.0855 945.732 64.3128C945.732 64.6423 945.851 64.8942 946.09 65.0685C946.332 65.2389 946.639 65.3242 947.011 65.3242ZM957.752 58.1026V59.9207H952.496V58.1026H957.752ZM953.689 56.0117H956.11V64.148C956.11 64.3715 956.144 64.5457 956.212 64.6707C956.28 64.792 956.375 64.8772 956.496 64.9264C956.621 64.9757 956.765 65.0003 956.928 65.0003C957.042 65.0003 957.155 64.9908 957.269 64.9719C957.383 64.9492 957.47 64.9321 957.53 64.9207L957.911 66.7219C957.79 66.7598 957.619 66.8033 957.4 66.8526C957.18 66.9056 956.913 66.9378 956.599 66.9492C956.015 66.9719 955.504 66.8942 955.064 66.7162C954.629 66.5382 954.29 66.2617 954.047 65.8867C953.805 65.5117 953.686 65.0382 953.689 64.4662V56.0117Z" fill="white"/>
<path d="M889.905 187.498V175.862H894.496C895.375 175.862 896.125 176.019 896.746 176.333C897.371 176.644 897.847 177.085 898.172 177.657C898.502 178.225 898.667 178.894 898.667 179.663C898.667 180.436 898.5 181.1 898.167 181.657C897.833 182.21 897.35 182.635 896.718 182.93C896.089 183.225 895.328 183.373 894.434 183.373H891.36V181.396H894.036C894.506 181.396 894.896 181.331 895.207 181.203C895.517 181.074 895.748 180.881 895.9 180.623C896.055 180.366 896.133 180.045 896.133 179.663C896.133 179.277 896.055 178.951 895.9 178.686C895.748 178.42 895.515 178.22 895.201 178.083C894.89 177.943 894.498 177.873 894.025 177.873H892.366V187.498H889.905ZM896.189 182.203L899.082 187.498H896.366L893.536 182.203H896.189ZM905.957 183.782V178.771H908.377V187.498H906.053V185.913H905.962C905.765 186.424 905.438 186.835 904.979 187.146C904.525 187.456 903.97 187.612 903.314 187.612C902.731 187.612 902.218 187.479 901.775 187.214C901.332 186.949 900.985 186.572 900.735 186.083C900.489 185.595 900.364 185.01 900.36 184.328V178.771H902.78V183.896C902.784 184.411 902.922 184.818 903.195 185.117C903.468 185.417 903.833 185.566 904.292 185.566C904.583 185.566 904.856 185.5 905.11 185.367C905.364 185.231 905.568 185.03 905.724 184.765C905.883 184.5 905.96 184.172 905.957 183.782ZM912.802 187.663C912.245 187.663 911.749 187.566 911.313 187.373C910.877 187.176 910.533 186.886 910.279 186.504C910.029 186.117 909.904 185.636 909.904 185.061C909.904 184.576 909.993 184.169 910.171 183.839C910.349 183.51 910.591 183.244 910.898 183.044C911.205 182.843 911.554 182.691 911.944 182.589C912.338 182.487 912.751 182.415 913.182 182.373C913.69 182.32 914.099 182.271 914.41 182.225C914.72 182.176 914.946 182.104 915.086 182.01C915.226 181.915 915.296 181.775 915.296 181.589V181.555C915.296 181.195 915.182 180.917 914.955 180.72C914.732 180.523 914.413 180.424 914.001 180.424C913.565 180.424 913.218 180.521 912.961 180.714C912.703 180.903 912.533 181.142 912.449 181.43L910.211 181.248C910.324 180.718 910.548 180.26 910.881 179.873C911.215 179.483 911.645 179.184 912.171 178.975C912.701 178.763 913.315 178.657 914.012 178.657C914.497 178.657 914.961 178.714 915.404 178.828C915.851 178.941 916.247 179.117 916.591 179.356C916.94 179.595 917.215 179.902 917.415 180.277C917.616 180.648 917.716 181.093 917.716 181.612V187.498H915.421V186.288H915.353C915.213 186.561 915.025 186.801 914.79 187.01C914.556 187.214 914.273 187.375 913.944 187.492C913.614 187.606 913.234 187.663 912.802 187.663ZM913.495 185.992C913.851 185.992 914.165 185.922 914.438 185.782C914.711 185.638 914.925 185.445 915.08 185.203C915.235 184.96 915.313 184.686 915.313 184.379V183.453C915.237 183.502 915.133 183.547 915.001 183.589C914.872 183.627 914.726 183.663 914.563 183.697C914.4 183.727 914.237 183.756 914.074 183.782C913.912 183.805 913.764 183.826 913.631 183.845C913.347 183.886 913.099 183.953 912.887 184.044C912.675 184.135 912.51 184.258 912.393 184.413C912.275 184.564 912.216 184.754 912.216 184.981C912.216 185.311 912.336 185.563 912.574 185.737C912.817 185.907 913.124 185.992 913.495 185.992ZM922.015 182.453V187.498H919.594V178.771H921.901V180.311H922.003C922.197 179.803 922.52 179.402 922.975 179.106C923.43 178.807 923.981 178.657 924.628 178.657C925.234 178.657 925.763 178.79 926.214 179.055C926.664 179.32 927.015 179.699 927.265 180.191C927.515 180.68 927.64 181.263 927.64 181.941V187.498H925.219V182.373C925.223 181.839 925.087 181.422 924.81 181.123C924.534 180.82 924.153 180.669 923.668 180.669C923.342 180.669 923.055 180.739 922.805 180.879C922.558 181.019 922.365 181.224 922.225 181.492C922.089 181.758 922.019 182.078 922.015 182.453ZM933.479 190.953C932.695 190.953 932.023 190.845 931.462 190.629C930.905 190.417 930.462 190.127 930.133 189.76C929.803 189.392 929.589 188.979 929.491 188.521L931.729 188.22C931.797 188.394 931.905 188.557 932.053 188.708C932.201 188.86 932.396 188.981 932.638 189.072C932.885 189.167 933.184 189.214 933.536 189.214C934.063 189.214 934.496 189.085 934.837 188.828C935.182 188.574 935.354 188.148 935.354 187.549V185.953H935.252C935.146 186.195 934.987 186.424 934.775 186.64C934.563 186.856 934.29 187.032 933.957 187.169C933.623 187.305 933.225 187.373 932.763 187.373C932.108 187.373 931.511 187.222 930.974 186.919C930.439 186.612 930.013 186.144 929.695 185.515C929.381 184.883 929.224 184.083 929.224 183.117C929.224 182.129 929.385 181.303 929.707 180.64C930.029 179.977 930.457 179.481 930.991 179.152C931.529 178.822 932.118 178.657 932.758 178.657C933.246 178.657 933.655 178.741 933.985 178.907C934.314 179.07 934.58 179.275 934.78 179.521C934.985 179.763 935.142 180.002 935.252 180.237H935.343V178.771H937.746V187.583C937.746 188.326 937.564 188.947 937.201 189.447C936.837 189.947 936.333 190.322 935.689 190.572C935.049 190.826 934.313 190.953 933.479 190.953ZM933.53 185.555C933.921 185.555 934.25 185.458 934.519 185.265C934.792 185.068 935 184.788 935.144 184.424C935.292 184.057 935.366 183.617 935.366 183.106C935.366 182.595 935.294 182.152 935.15 181.777C935.006 181.398 934.797 181.104 934.525 180.896C934.252 180.688 933.921 180.583 933.53 180.583C933.133 180.583 932.797 180.691 932.525 180.907C932.252 181.119 932.046 181.415 931.905 181.794C931.765 182.172 931.695 182.61 931.695 183.106C931.695 183.61 931.765 184.045 931.905 184.413C932.049 184.777 932.256 185.059 932.525 185.26C932.797 185.456 933.133 185.555 933.53 185.555ZM889.905 211.498V199.862H894.496C895.375 199.862 896.125 200.019 896.746 200.333C897.371 200.644 897.847 201.085 898.172 201.657C898.502 202.225 898.667 202.894 898.667 203.663C898.667 204.436 898.5 205.1 898.167 205.657C897.833 206.21 897.35 206.635 896.718 206.93C896.089 207.225 895.328 207.373 894.434 207.373H891.36V205.396H894.036C894.506 205.396 894.896 205.331 895.207 205.203C895.517 205.074 895.748 204.881 895.9 204.623C896.055 204.366 896.133 204.045 896.133 203.663C896.133 203.277 896.055 202.951 895.9 202.686C895.748 202.42 895.515 202.22 895.201 202.083C894.89 201.943 894.498 201.873 894.025 201.873H892.366V211.498H889.905ZM896.189 206.203L899.082 211.498H896.366L893.536 206.203H896.189ZM904.197 211.669C903.299 211.669 902.526 211.487 901.878 211.123C901.234 210.756 900.738 210.237 900.39 209.566C900.041 208.892 899.867 208.095 899.867 207.174C899.867 206.277 900.041 205.489 900.39 204.811C900.738 204.133 901.229 203.604 901.861 203.225C902.498 202.847 903.244 202.657 904.1 202.657C904.676 202.657 905.212 202.75 905.708 202.936C906.208 203.117 906.644 203.392 907.015 203.76C907.39 204.127 907.681 204.589 907.89 205.146C908.098 205.699 908.202 206.347 908.202 207.089V207.754H900.833V206.254H905.924C905.924 205.905 905.848 205.597 905.697 205.328C905.545 205.059 905.335 204.849 905.066 204.697C904.801 204.542 904.492 204.464 904.14 204.464C903.772 204.464 903.447 204.549 903.163 204.72C902.882 204.886 902.663 205.112 902.503 205.396C902.344 205.676 902.263 205.989 902.259 206.333V207.76C902.259 208.191 902.339 208.564 902.498 208.879C902.661 209.193 902.89 209.436 903.185 209.606C903.481 209.777 903.831 209.862 904.236 209.862C904.505 209.862 904.752 209.824 904.975 209.748C905.198 209.672 905.39 209.559 905.549 209.407C905.708 209.256 905.829 209.07 905.913 208.85L908.151 208.998C908.038 209.536 907.805 210.006 907.452 210.407C907.104 210.805 906.653 211.116 906.1 211.339C905.551 211.559 904.916 211.669 904.197 211.669ZM911.975 208.987L911.981 206.083H912.333L915.128 202.771H917.907L914.151 207.157H913.577L911.975 208.987ZM909.782 211.498V199.862H912.202V211.498H909.782ZM915.236 211.498L912.668 207.697L914.282 205.987L918.072 211.498H915.236ZM923.736 202.771V204.589H918.481V202.771H923.736ZM919.674 200.68H922.094V208.816C922.094 209.04 922.128 209.214 922.197 209.339C922.265 209.46 922.359 209.545 922.481 209.595C922.606 209.644 922.75 209.669 922.913 209.669C923.026 209.669 923.14 209.659 923.253 209.64C923.367 209.617 923.454 209.6 923.515 209.589L923.895 211.39C923.774 211.428 923.604 211.472 923.384 211.521C923.164 211.574 922.897 211.606 922.583 211.617C922 211.64 921.488 211.563 921.049 211.385C920.613 211.206 920.274 210.93 920.032 210.555C919.789 210.18 919.67 209.706 919.674 209.135V200.68ZM929.163 211.669C928.28 211.669 927.517 211.481 926.873 211.106C926.233 210.727 925.738 210.201 925.39 209.527C925.041 208.849 924.867 208.063 924.867 207.169C924.867 206.267 925.041 205.479 925.39 204.805C925.738 204.127 926.233 203.6 926.873 203.225C927.517 202.847 928.28 202.657 929.163 202.657C930.045 202.657 930.806 202.847 931.447 203.225C932.091 203.6 932.587 204.127 932.935 204.805C933.284 205.479 933.458 206.267 933.458 207.169C933.458 208.063 933.284 208.849 932.935 209.527C932.587 210.201 932.091 210.727 931.447 211.106C930.806 211.481 930.045 211.669 929.163 211.669ZM929.174 209.794C929.575 209.794 929.911 209.68 930.18 209.453C930.448 209.222 930.651 208.907 930.788 208.51C930.928 208.112 930.998 207.659 930.998 207.152C930.998 206.644 930.928 206.191 930.788 205.794C930.651 205.396 930.448 205.081 930.18 204.85C929.911 204.619 929.575 204.504 929.174 204.504C928.769 204.504 928.428 204.619 928.151 204.85C927.878 205.081 927.672 205.396 927.532 205.794C927.395 206.191 927.327 206.644 927.327 207.152C927.327 207.659 927.395 208.112 927.532 208.51C927.672 208.907 927.878 209.222 928.151 209.453C928.428 209.68 928.769 209.794 929.174 209.794ZM935.032 211.498V202.771H937.378V204.294H937.469C937.628 203.752 937.895 203.343 938.27 203.066C938.645 202.786 939.077 202.646 939.566 202.646C939.687 202.646 939.818 202.653 939.958 202.669C940.098 202.684 940.221 202.705 940.327 202.731V204.879C940.214 204.845 940.056 204.814 939.856 204.788C939.655 204.761 939.471 204.748 939.305 204.748C938.948 204.748 938.63 204.826 938.35 204.981C938.073 205.133 937.854 205.345 937.691 205.617C937.532 205.89 937.452 206.205 937.452 206.561V211.498H935.032Z" fill="white"/>
</svg>
